{"glyphs":{"0":{"ha":551,"x_min":0,"x_max":550,"o":"m 379 128 q 389 179 385 150 q 393 242 393 208 q 385 313 393 278 q 360 376 376 349 q 319 421 343 404 q 267 438 296 438 q 189 413 239 438 q 165 353 178 389 q 151 286 151 318 q 163 215 151 249 q 195 156 175 182 q 243 114 215 129 q 303 99 271 99 q 337 108 314 99 q 379 128 360 118 m 250 0 q 113 24 163 0 q 38 89 63 49 q 6 179 13 129 q 0 282 0 229 q 16 324 0 299 q 58 376 32 349 q 116 430 83 403 q 182 479 149 457 q 246 515 215 501 q 299 528 276 528 q 421 510 372 528 q 498 462 469 492 q 538 392 526 432 q 550 310 550 353 q 549 277 550 294 q 546 244 549 260 q 528 203 544 228 q 485 151 511 178 q 428 97 460 124 q 364 48 396 69 q 301 13 332 26 q 250 0 271 0 z "},"1":{"ha":324,"x_min":35,"x_max":292,"o":"m 122 0 q 127 53 125 18 q 131 128 129 88 q 135 207 133 168 q 136 274 136 246 q 136 317 136 294 q 135 361 136 340 q 131 399 133 382 q 125 425 129 417 l 43 407 l 35 424 q 81 460 51 440 q 144 495 111 479 q 208 522 178 511 q 254 533 239 533 q 258 532 256 533 q 268 521 260 531 q 286 460 282 501 q 290 354 290 419 l 290 150 q 290 79 290 115 q 292 3 290 43 l 122 0 z "},"2":{"ha":601,"x_min":89,"x_max":589,"o":"m 282 528 q 353 510 313 528 q 431 465 394 492 q 492 410 467 439 q 518 360 518 382 q 481 266 518 335 q 358 68 443 197 l 589 94 l 546 0 l 306 0 q 261 -1 282 0 q 221 -1 240 -1 q 123 0 157 -1 q 89 7 89 1 l 174 72 q 208 114 186 85 q 256 178 231 143 q 305 249 281 214 q 344 307 329 283 q 366 340 361 331 q 378 365 371 350 l 381 369 q 332 413 357 413 q 299 403 317 413 q 265 378 282 393 q 233 342 249 363 q 208 300 218 321 q 180 322 194 310 q 153 344 165 333 q 131 363 140 354 q 117 375 121 371 l 117 383 q 118 392 117 390 q 142 433 125 410 q 182 476 160 456 q 228 510 204 496 q 272 528 253 525 l 282 528 z "},"3":{"ha":579,"x_min":24,"x_max":579,"o":"m 74 392 q 88 415 74 396 q 124 457 101 435 q 172 499 146 479 q 221 528 197 519 l 238 528 q 299 504 261 528 q 376 448 338 481 q 444 383 414 415 q 483 332 475 350 q 499 283 493 308 q 504 235 504 257 q 483 145 504 190 q 418 71 461 100 q 533 -27 488 24 q 579 -125 579 -78 q 553 -208 579 -167 q 487 -282 528 -249 q 397 -336 446 -315 q 300 -357 347 -357 q 206 -354 254 -357 q 116 -340 157 -351 q 49 -303 75 -328 q 24 -233 24 -278 q 25 -212 24 -224 q 32 -183 26 -201 q 56 -184 36 -183 q 100 -187 75 -185 q 149 -194 125 -190 q 188 -204 174 -199 q 196 -269 188 -237 q 229 -300 204 -300 q 305 -273 274 -300 q 356 -210 336 -246 q 384 -140 375 -174 q 393 -90 393 -106 q 376 3 393 -25 q 330 42 360 31 q 259 58 300 54 q 169 82 218 63 l 183 128 q 229 108 214 114 q 249 103 244 103 q 315 151 290 103 q 340 275 340 199 q 335 326 340 301 q 324 369 331 350 q 308 399 317 388 q 294 411 300 411 q 235 380 267 411 q 185 310 204 349 q 149 332 168 318 q 113 359 129 346 q 85 381 96 372 q 76 390 75 390 l 74 392 z "},"4":{"ha":717,"x_min":38,"x_max":688,"o":"m 643 -10 l 572 -10 l 572 -82 q 572 -119 572 -101 q 571 -157 571 -137 q 572 -259 571 -210 q 574 -351 572 -308 l 404 -351 q 408 -299 406 -339 q 413 -209 411 -260 q 417 -105 415 -158 q 419 -10 418 -51 l 403 -10 q 328 -11 369 -11 q 258 -11 288 -11 q 171 -11 211 -11 q 101 -10 131 -11 q 54 -7 71 -8 q 38 -3 38 -6 l 107 61 q 160 122 128 81 q 223 209 192 163 q 280 301 254 256 q 315 374 306 346 q 401 467 356 426 q 500 540 447 507 q 560 452 547 540 q 572 200 572 364 l 572 74 q 631 82 601 76 q 688 99 660 88 l 643 -10 m 421 67 q 420 110 421 88 q 419 160 419 133 q 417 222 418 188 q 411 299 415 256 l 351 200 q 313 137 335 172 q 267 54 290 101 q 344 59 300 56 q 421 67 389 63 z "},"5":{"ha":663,"x_min":14,"x_max":640,"o":"m 592 344 l 474 344 q 422 344 447 344 q 372 343 396 343 l 250 343 q 237 343 243 343 q 221 344 231 343 q 219 247 224 294 q 215 150 215 199 q 341 121 278 147 q 455 55 404 94 q 538 -33 506 15 q 569 -125 569 -81 q 544 -208 569 -167 q 477 -282 518 -249 q 387 -336 436 -315 q 290 -357 338 -357 q 196 -354 244 -357 q 106 -340 147 -351 q 40 -303 65 -328 q 14 -233 14 -278 q 15 -212 14 -224 q 22 -183 17 -201 q 46 -184 26 -183 q 90 -187 65 -185 q 140 -194 115 -190 q 178 -204 164 -199 q 186 -269 178 -237 q 219 -300 194 -300 q 295 -273 264 -300 q 346 -210 326 -246 q 374 -140 365 -174 q 383 -90 383 -106 q 363 -10 383 -44 q 309 49 342 25 q 237 84 276 72 q 158 96 197 96 l 83 96 q 101 218 93 158 q 108 331 108 278 q 108 347 108 339 q 107 360 108 356 l 104 368 l 190 453 q 245 437 214 440 q 297 433 276 433 l 308 433 q 352 435 324 433 q 415 438 381 436 q 485 444 449 440 q 554 450 522 447 q 609 455 586 453 q 640 458 632 457 l 592 344 z "},"6":{"ha":626,"x_min":44,"x_max":592,"o":"m 307 -3 q 168 22 219 -3 q 90 85 117 46 q 56 175 64 125 q 44 278 47 225 q 57 362 47 304 q 85 490 67 419 q 130 637 103 561 q 194 775 157 713 q 279 878 231 838 q 388 918 328 918 q 445 906 418 918 q 494 878 472 894 q 532 846 515 863 q 557 819 549 829 l 531 772 l 486 803 q 453 824 465 817 q 425 832 440 832 q 323 744 367 832 q 243 496 279 656 q 285 517 263 508 q 333 525 308 525 q 476 501 424 525 q 553 436 528 476 q 585 345 579 396 q 592 243 592 294 q 576 201 592 225 q 537 149 561 176 q 481 95 513 122 q 419 47 450 68 q 358 11 388 25 q 307 -3 328 -3 m 218 403 q 209 356 214 383 q 204 296 204 328 q 215 223 204 258 q 245 160 225 188 q 293 117 265 133 q 354 100 321 100 q 383 103 369 100 q 421 117 397 106 q 431 219 431 165 q 423 296 431 258 q 399 363 415 333 q 359 410 383 392 q 303 428 335 428 q 267 422 288 428 q 218 403 246 417 z "},"7":{"ha":576,"x_min":7,"x_max":558,"o":"m 110 -351 q 141 -276 119 -325 q 190 -165 163 -226 q 250 -33 218 -103 q 312 106 282 38 q 367 235 342 174 q 410 342 393 296 l 199 342 q 130 341 171 342 q 61 339 89 340 l 7 460 q 67 453 21 457 q 167 444 113 449 q 272 437 221 440 q 347 433 324 433 l 358 433 q 406 435 381 433 q 461 449 431 438 l 558 357 q 542 356 549 357 q 535 351 535 354 l 276 -351 l 110 -351 z "},"8":{"ha":668,"x_min":58,"x_max":608,"o":"m 308 -360 q 171 -336 221 -360 q 96 -275 121 -312 q 65 -190 71 -237 q 58 -92 58 -142 q 71 -60 58 -79 q 105 -19 83 -42 q 155 28 126 4 q 217 74 183 51 q 130 109 161 85 q 83 166 99 133 q 63 237 67 199 q 58 314 58 275 q 90 372 58 336 q 166 443 122 408 q 256 503 210 478 q 333 528 303 528 q 447 512 401 528 q 518 470 492 496 q 555 410 544 444 q 565 339 565 376 q 561 294 565 315 q 542 251 557 274 q 499 200 528 228 q 421 136 471 172 q 511 108 475 128 q 569 60 547 88 q 599 1 590 33 q 608 -65 608 -31 q 607 -93 608 -79 q 603 -125 606 -107 q 587 -165 603 -142 q 545 -215 571 -189 q 488 -267 519 -242 q 423 -314 456 -293 q 360 -347 390 -335 q 308 -360 331 -360 m 435 -244 q 435 -241 435 -242 q 436 -237 436 -240 q 444 -192 440 -218 q 449 -136 449 -167 q 440 -67 449 -101 q 415 -6 432 -33 q 375 37 399 21 q 322 53 351 53 q 246 28 293 53 q 227 -22 235 7 q 219 -83 219 -51 q 231 -150 219 -118 q 263 -207 243 -182 q 310 -247 283 -232 q 369 -262 338 -262 q 435 -244 397 -262 m 407 176 q 415 222 410 196 q 419 278 419 249 q 412 341 419 310 q 389 397 404 372 q 352 435 374 421 q 304 450 331 450 q 236 429 279 450 q 220 384 226 410 q 214 326 214 358 q 224 265 214 294 q 253 212 235 235 q 295 175 271 189 q 347 161 319 161 q 407 176 369 161 z "},"9":{"ha":678,"x_min":69,"x_max":617,"o":"m 354 515 q 493 491 442 515 q 571 427 544 467 q 606 337 597 388 q 617 235 614 286 q 608 155 617 208 q 583 35 600 101 q 540 -100 567 -31 q 478 -226 514 -169 q 394 -320 442 -283 q 289 -357 347 -357 q 230 -345 257 -357 q 181 -317 203 -333 q 143 -283 160 -300 q 118 -257 126 -267 l 140 -211 q 186 -241 169 -229 q 213 -259 203 -253 q 231 -267 222 -265 q 251 -269 239 -269 q 345 -203 307 -269 q 418 15 383 -137 q 376 -4 399 4 q 328 -12 353 -12 q 185 12 238 -12 q 108 76 133 36 q 76 167 82 117 q 69 269 69 217 q 85 311 69 286 q 124 363 100 336 q 180 417 149 390 q 242 466 211 444 q 303 501 274 488 q 354 515 333 515 m 232 393 q 233 383 232 388 q 233 372 233 378 q 232 335 233 356 q 231 293 231 314 q 238 217 231 254 q 262 150 246 179 q 302 103 278 121 q 360 85 326 85 q 395 90 375 85 q 443 110 415 96 q 453 157 449 131 q 458 211 458 183 q 448 283 458 247 q 418 347 438 318 q 370 393 399 375 q 306 411 342 411 q 232 393 276 411 z "},"\u0000":{"ha":0,"x_min":0,"x_max":0,"o":""},"\r":{"ha":0,"x_min":0,"x_max":0,"o":""}," ":{"ha":310,"x_min":0,"x_max":0,"o":""},"आ":{"ha":1479,"x_min":65,"x_max":1497,"o":"m 479 796 q 473 831 479 817 q 454 849 467 846 q 397 824 431 844 q 327 777 363 804 q 260 719 292 750 q 208 661 228 688 l 110 783 q 188 850 142 821 q 288 897 228 875 q 431 918 347 918 q 513 912 474 918 q 582 890 551 906 q 631 848 613 875 q 649 779 649 821 q 626 688 649 739 q 558 582 604 638 q 597 542 574 567 q 642 489 621 517 q 692 507 667 496 q 742 531 718 518 q 788 560 767 544 q 822 594 808 576 l 822 786 l 683 786 l 644 893 l 1463 893 l 1497 786 l 1344 786 l 1344 -21 l 1188 24 l 1188 786 l 979 786 l 979 -21 l 819 24 l 819 435 q 763 401 792 414 q 706 381 733 388 q 717 321 717 343 q 689 206 717 258 q 613 116 661 154 q 502 56 565 78 q 368 35 439 35 q 250 58 301 35 q 161 119 199 81 q 100 208 124 158 q 65 313 76 258 l 158 431 q 212 326 185 378 q 269 233 239 274 q 334 168 300 193 q 408 143 368 143 q 523 177 483 143 q 563 269 563 211 q 534 372 563 315 q 447 485 506 429 q 398 456 428 472 q 328 419 368 440 l 269 522 q 352 579 314 544 q 419 652 390 614 q 463 728 447 690 q 479 796 479 767 z "},"ॲ":{"ha":1107,"x_min":65,"x_max":1158,"o":"m 479 796 q 473 831 479 817 q 454 849 467 846 q 397 824 431 844 q 327 777 363 804 q 260 719 292 750 q 208 661 228 688 l 110 783 q 188 850 142 821 q 288 897 228 875 q 431 918 347 918 q 513 912 474 918 q 582 890 551 906 q 631 848 613 875 q 649 779 649 821 q 626 688 649 739 q 558 582 604 638 q 597 542 574 567 q 640 489 621 517 q 742 531 690 504 q 822 594 794 558 l 822 786 l 683 786 l 643 893 l 1097 893 l 1132 786 l 979 786 l 979 -21 l 819 24 l 819 435 q 762 401 790 414 q 706 381 733 388 q 713 348 710 363 q 715 321 715 333 q 688 206 715 258 q 612 116 660 154 q 501 56 564 78 q 367 35 438 35 q 249 58 300 35 q 161 119 199 81 q 100 208 124 158 q 65 313 76 258 l 157 431 q 211 326 183 378 q 269 233 239 274 q 334 168 300 193 q 408 143 368 143 q 523 177 483 143 q 563 269 563 211 q 534 372 563 315 q 447 485 506 429 q 398 456 428 472 q 328 419 368 440 l 269 522 q 352 579 314 544 q 419 652 390 614 q 463 728 447 690 q 479 796 479 767 m 900 1047 q 934 1067 917 1047 q 965 1115 951 1086 q 988 1178 979 1144 q 999 1240 997 1211 l 1158 1189 q 1137 1119 1154 1156 q 1088 1051 1119 1082 q 1009 1000 1056 1021 q 900 978 963 979 l 889 978 q 711 1033 776 978 q 626 1183 646 1088 l 783 1242 q 800 1164 788 1200 q 828 1102 813 1128 q 863 1062 844 1076 q 900 1047 882 1047 z "},"ॅ":{"ha":0,"x_min":-468,"x_max":65,"o":"m -193 1047 q -159 1067 -176 1047 q -127 1115 -142 1086 q -103 1178 -112 1144 q -92 1240 -93 1211 l 65 1189 q 44 1119 61 1156 q -6 1051 26 1082 q -84 1000 -37 1021 q -193 978 -131 979 l -204 978 q -381 1033 -315 978 q -468 1183 -447 1088 l -312 1242 q -294 1164 -307 1200 q -265 1102 -282 1128 q -230 1062 -249 1076 q -193 1047 -211 1047 z "},"ऐ":{"ha":733,"x_min":-44,"x_max":757,"o":"m 667 479 q 651 428 664 454 q 619 379 638 403 q 581 335 600 356 q 547 300 561 314 l 442 383 q 488 454 469 414 q 507 522 507 494 l 507 783 l 264 783 l 264 438 q 302 332 271 376 q 376 253 333 288 q 465 190 418 218 q 553 133 513 161 q 622 76 594 106 q 650 7 649 46 l 650 0 q 617 -99 650 -47 q 517 -196 583 -151 l 421 -117 q 442 -92 431 -111 q 465 -51 454 -74 q 482 -3 475 -28 q 489 42 489 22 q 483 67 489 57 q 467 85 476 78 q 444 99 457 93 q 418 114 432 106 q 317 176 372 140 q 215 251 263 211 q 133 335 167 292 q 96 421 99 379 l 96 783 l -1 783 l -44 893 l 558 893 q 524 978 547 936 q 467 1053 500 1019 q 397 1106 435 1086 q 321 1126 358 1126 q 284 1123 318 1126 q 185 1096 250 1119 l 157 1207 q 210 1222 183 1215 q 261 1234 233 1229 q 314 1239 289 1239 l 332 1239 q 465 1197 407 1231 q 566 1115 524 1164 q 634 1007 608 1065 q 669 893 660 949 l 728 893 l 757 790 l 667 790 l 667 479 z "},"॔":{"ha":0,"x_min":-278,"x_max":-31,"o":"m -31 1182 l -36 1175 q -61 1137 -47 1158 q -86 1093 -75 1115 q -106 1048 -97 1071 q -114 1004 -114 1025 l -242 976 q -278 992 -278 976 q -273 1015 -278 999 q -256 1060 -268 1031 q -222 1135 -243 1090 q -167 1244 -200 1181 l -31 1182 z "},"ै":{"ha":0,"x_min":-639,"x_max":-128,"o":"m -625 1008 q -442 1072 -531 1072 q -342 1054 -387 1072 q -406 1107 -372 1088 q -476 1126 -440 1126 q -512 1123 -479 1126 q -610 1096 -546 1119 l -639 1208 q -586 1224 -612 1217 q -535 1234 -562 1229 q -482 1239 -508 1239 l -464 1239 q -322 1193 -382 1231 q -219 1103 -261 1156 q -156 990 -178 1050 q -128 879 -133 931 l -274 879 q -343 947 -307 922 q -414 971 -379 971 q -474 953 -437 971 q -565 896 -511 936 l -625 1008 z "},"॒":{"ha":0,"x_min":-1001,"x_max":-204,"o":"m -1001 -89 l -239 -89 l -204 -196 l -954 -196 l -1001 -89 z "},"ं":{"ha":0,"x_min":-117,"x_max":44,"o":"m -117 1125 q -92 1178 -117 1157 q -35 1200 -68 1200 q 22 1178 -1 1200 q 44 1125 44 1157 q 22 1074 44 1096 q -35 1053 -1 1053 q -92 1074 -68 1053 q -117 1125 -117 1096 z "},"औ":{"ha":1479,"x_min":65,"x_max":1497,"o":"m 479 796 q 473 831 479 817 q 454 849 467 846 q 397 824 431 844 q 327 777 363 804 q 260 719 292 750 q 208 661 228 688 l 110 783 q 188 850 142 821 q 288 897 228 875 q 431 918 347 918 q 513 912 474 918 q 582 890 551 906 q 631 848 613 875 q 649 779 649 821 q 626 688 649 739 q 558 582 604 638 q 597 542 574 567 q 642 489 621 517 q 692 507 667 496 q 742 531 718 518 q 786 560 767 544 q 817 592 806 575 q 815 687 817 639 q 814 786 814 735 l 683 786 l 644 893 l 1186 893 q 1121 952 1154 933 q 1058 971 1088 971 q 907 896 1014 971 l 849 1008 q 1032 1072 942 1072 q 1131 1056 1085 1072 q 1065 1105 1101 1083 q 997 1126 1029 1126 q 961 1123 994 1126 q 861 1096 928 1119 l 835 1207 q 889 1222 863 1215 q 940 1234 913 1229 q 990 1239 967 1239 l 1010 1239 q 1140 1195 1082 1229 q 1240 1113 1199 1161 q 1308 1006 1282 1064 q 1343 893 1333 949 l 1463 893 l 1497 786 l 1344 786 l 1344 -21 l 1188 24 l 1188 786 l 979 786 l 979 -21 l 819 24 l 819 435 q 763 401 792 414 q 706 381 733 388 q 717 321 717 343 q 689 206 717 258 q 613 116 661 154 q 502 56 565 78 q 368 35 439 35 q 250 58 301 35 q 161 119 199 81 q 100 208 124 158 q 65 313 76 258 l 158 431 q 212 326 185 378 q 269 233 239 274 q 334 168 300 193 q 408 143 368 143 q 523 177 483 143 q 563 269 563 211 q 534 372 563 315 q 447 485 506 429 q 398 456 428 472 q 328 419 368 440 l 269 522 q 352 579 314 544 q 419 652 390 614 q 463 728 447 690 q 479 796 479 767 z "},"ऽ":{"ha":760,"x_min":38,"x_max":726,"o":"m 408 92 q 464 95 435 92 q 518 109 493 99 q 559 138 543 119 q 575 189 575 157 q 538 269 575 229 q 444 351 500 310 q 322 434 388 392 q 201 522 257 476 q 107 614 144 567 q 69 711 69 661 q 235 878 69 829 q 277 888 249 883 q 342 894 306 892 q 419 897 379 896 q 493 897 458 897 l 621 897 l 656 789 l 281 789 q 254 772 265 785 q 243 739 243 760 q 279 661 243 703 q 369 574 315 619 q 485 481 422 529 q 601 385 547 433 q 690 288 654 336 q 726 192 726 239 q 692 105 726 143 q 605 40 657 67 q 493 0 553 14 q 382 -14 433 -14 q 234 9 294 -14 q 134 70 174 32 q 72 158 94 108 q 38 264 50 208 l 133 379 q 190 274 161 325 q 251 183 218 222 q 322 118 283 143 q 408 92 360 93 z "},"ॵ":{"ha":1475,"x_min":65,"x_max":1497,"o":"m 1119 1256 q 1158 1179 1140 1210 q 1190 1130 1175 1149 q 1217 1101 1204 1111 q 1240 1083 1229 1090 q 1279 1053 1261 1068 q 1310 1015 1297 1038 q 1331 964 1324 993 q 1340 893 1339 935 l 1463 893 l 1497 786 l 1344 786 l 1344 -21 l 1188 24 l 1188 786 l 979 786 l 979 -21 l 819 24 l 819 435 q 763 401 792 414 q 706 381 733 388 q 717 321 717 343 q 689 206 717 258 q 613 116 661 154 q 502 56 565 78 q 368 35 439 35 q 250 58 301 35 q 161 119 199 81 q 100 208 124 158 q 65 313 76 258 l 158 431 q 212 326 185 378 q 269 233 239 274 q 334 168 300 193 q 408 143 368 143 q 523 177 483 143 q 563 269 563 211 q 534 372 563 315 q 447 485 506 429 q 398 456 428 472 q 328 419 368 440 l 269 522 q 352 579 314 544 q 419 652 390 614 q 463 728 447 690 q 479 796 479 767 q 474 831 479 817 q 456 849 468 846 q 397 823 432 843 q 327 776 363 803 q 260 718 292 749 q 208 661 228 688 l 110 783 q 188 850 142 821 q 288 897 228 875 q 431 918 347 918 q 513 912 474 918 q 582 890 551 906 q 631 848 613 875 q 649 779 649 821 q 626 688 649 739 q 558 582 604 638 q 597 542 574 567 q 642 489 621 517 q 692 507 667 496 q 742 531 718 518 q 788 560 767 544 q 822 594 808 576 l 822 786 l 683 786 l 644 893 l 1171 893 q 1135 906 1154 903 q 1092 908 1115 908 q 1008 913 1051 908 q 924 933 965 917 q 844 984 882 950 q 776 1078 806 1018 l 907 1181 q 965 1071 933 1110 q 1031 1013 997 1032 q 1096 991 1064 994 q 1154 988 1128 988 l 1163 988 q 1172 985 1167 988 q 1153 1001 1164 993 q 1124 1022 1142 1010 q 1050 1078 1088 1047 q 992 1153 1013 1108 l 1119 1256 z "},"ब":{"ha":790,"x_min":-39,"x_max":817,"o":"m -39 893 l 783 893 l 817 786 l 646 786 l 646 640 l 646 215 q 647 -21 646 99 l 486 24 l 486 193 q 415 175 453 181 q 340 169 376 169 q 242 183 290 169 q 156 227 194 197 q 92 303 117 257 q 63 414 67 350 q 84 510 64 464 q 140 590 104 556 q 224 644 175 624 q 332 665 274 665 q 408 659 371 665 q 485 635 446 653 q 484 665 485 650 q 483 694 483 681 q 484 747 483 722 q 485 786 485 771 l 0 786 l -39 893 m 185 414 q 205 367 188 389 q 247 328 222 344 q 303 301 272 311 q 361 292 333 292 q 376 292 369 292 q 390 294 383 292 q 301 390 342 346 q 215 486 261 433 q 194 454 204 475 q 185 414 185 433 m 335 540 q 411 453 371 500 q 486 364 451 406 l 486 510 q 428 534 460 525 q 367 543 396 543 q 351 542 360 543 q 335 540 342 542 z "},"भ":{"ha":893,"x_min":58,"x_max":922,"o":"m 267 490 q 271 551 269 522 q 272 611 272 579 l 260 611 q 190 615 225 611 q 126 631 154 619 q 78 662 97 642 q 58 715 60 682 l 58 724 q 81 801 58 767 q 138 861 103 836 q 217 899 174 886 q 303 913 261 913 q 355 903 331 913 q 398 871 379 894 q 427 808 417 847 q 438 707 438 768 q 433 610 438 664 q 418 489 429 557 l 401 411 l 606 411 q 605 497 606 450 q 604 594 604 544 q 603 694 604 644 q 603 786 603 743 l 474 786 l 435 893 l 886 893 l 922 786 l 768 786 l 768 -21 l 608 24 l 608 304 l 407 304 q 389 247 401 275 q 351 200 376 219 q 274 222 311 206 q 207 262 236 239 q 160 310 178 285 q 143 357 143 335 q 168 401 143 383 q 256 419 193 418 l 267 490 m 185 756 q 208 721 185 739 q 271 692 231 703 q 265 774 268 740 q 258 813 261 807 q 236 805 249 810 q 212 792 224 800 q 192 775 200 785 q 185 756 185 765 z "},"च":{"ha":911,"x_min":-37,"x_max":936,"o":"m 21 650 l 546 650 l 579 543 l 411 543 q 358 494 382 521 q 315 442 333 468 q 288 392 297 415 q 276 350 278 368 q 303 274 276 301 q 364 246 329 246 q 439 258 399 246 q 515 288 479 269 q 581 331 551 307 q 624 382 610 356 q 622 473 622 418 q 621 586 621 528 l 621 786 l 1 786 l -37 893 l 901 893 l 936 786 l 785 786 l 785 -8 q 741 -4 768 -8 q 688 7 714 0 q 624 24 657 14 l 624 181 q 527 139 575 149 q 439 129 479 129 q 329 143 389 129 q 218 184 269 157 q 132 249 167 211 q 97 336 97 288 q 107 387 97 360 q 133 441 117 414 q 170 494 150 468 q 211 543 190 519 l 63 543 l 21 650 z "},"ँ":{"ha":0,"x_min":-444,"x_max":89,"o":"m -169 1047 q -135 1067 -153 1047 q -103 1115 -117 1086 q -80 1178 -89 1144 q -71 1240 -71 1211 l 89 1190 q 67 1119 85 1156 q 18 1051 50 1082 q -60 1000 -14 1021 q -169 978 -107 979 l -181 978 q -358 1033 -292 978 q -444 1183 -424 1088 l -286 1242 q -269 1164 -282 1200 q -241 1102 -257 1128 q -206 1062 -225 1076 q -169 1047 -187 1047 m -257 1207 q -233 1257 -257 1235 q -175 1279 -210 1279 q -119 1257 -143 1279 q -96 1207 -96 1235 q -119 1154 -96 1175 q -175 1133 -143 1133 q -233 1154 -210 1133 q -257 1207 -257 1175 z "},"ऀ":{"ha":0,"x_min":-458,"x_max":75,"o":"m -183 1213 q -220 1198 -201 1213 q -255 1156 -239 1183 q -283 1092 -271 1129 q -300 1013 -296 1056 l -458 1078 q -372 1228 -437 1172 q -194 1283 -307 1283 l -183 1283 q -74 1260 -121 1281 q 4 1208 -28 1239 q 53 1140 36 1176 q 75 1069 71 1103 l -85 1017 q -94 1080 -85 1046 q -117 1144 -103 1114 q -149 1193 -131 1174 q -183 1213 -167 1213 m -271 1053 q -247 1002 -271 1024 q -189 981 -224 981 q -133 1002 -157 981 q -110 1053 -110 1024 q -133 1106 -110 1085 q -189 1126 -157 1126 q -247 1106 -224 1126 q -271 1053 -271 1085 z "},"छ":{"ha":1013,"x_min":-40,"x_max":1040,"o":"m -40 893 l 1001 893 l 1040 786 l 888 786 l 888 713 q 971 619 940 678 q 1001 497 1001 560 q 978 388 1001 447 q 892 250 940 319 q 783 124 843 181 q 648 31 722 67 q 485 -6 574 -6 q 348 8 415 -6 q 227 54 281 22 q 140 140 174 86 q 107 276 107 194 q 138 408 107 347 q 208 521 168 469 q 105 619 146 568 q 64 724 64 671 q 69 753 64 735 q 79 786 74 772 l 0 786 l -40 893 m 585 592 q 624 693 585 653 q 725 740 663 733 l 725 786 l 242 786 q 236 769 239 781 q 233 739 233 757 q 251 658 233 688 q 300 604 269 628 q 339 631 318 618 q 381 656 360 644 q 420 676 401 667 q 451 692 439 685 l 456 694 q 482 644 469 667 q 500 609 492 625 q 508 592 508 593 q 432 542 472 574 q 358 471 392 511 q 301 382 324 431 q 278 279 278 333 q 289 208 278 242 q 319 149 300 174 q 363 108 338 124 q 417 93 389 93 q 572 147 483 93 q 754 315 661 201 q 628 454 671 379 q 585 592 585 529 m 839 519 q 814 621 839 583 q 764 674 789 658 q 762 640 763 663 q 761 590 761 618 q 773 503 761 550 q 815 413 785 457 q 833 467 828 440 q 839 519 839 494 z "},"द":{"ha":763,"x_min":-33,"x_max":819,"o":"m 603 567 q 487 580 533 576 q 408 583 440 583 q 303 573 346 583 q 234 544 261 563 q 195 502 207 526 q 183 450 183 478 l 183 444 q 201 365 185 401 q 245 303 218 329 q 306 263 272 278 q 374 246 340 247 q 422 250 394 246 q 414 281 415 268 q 413 304 413 293 q 440 353 413 339 q 507 368 467 368 q 563 359 533 368 q 619 335 592 350 q 670 299 647 319 q 706 253 693 278 q 690 234 703 244 q 659 213 678 224 q 619 192 640 203 q 578 172 597 181 q 669 61 613 114 q 819 -25 725 8 l 808 -81 q 782 -88 790 -87 q 767 -89 774 -89 q 695 -77 738 -89 q 609 -39 653 -65 q 527 31 565 -12 q 467 140 489 75 q 417 130 443 133 q 364 126 390 126 l 350 126 q 229 154 283 128 q 136 222 175 181 q 76 315 97 263 q 53 421 54 367 l 53 433 q 81 557 53 506 q 158 640 110 608 q 266 687 206 672 q 392 701 326 701 q 418 701 404 701 q 444 700 432 701 q 444 718 444 708 q 443 739 443 728 l 443 783 l 3 783 l -33 893 l 763 893 l 796 786 l 603 786 l 603 567 z "},"।":{"ha":406,"x_min":126,"x_max":282,"o":"m 282 871 l 282 482 l 282 -21 l 126 24 l 126 906 l 282 871 z "},"॥":{"ha":799,"x_min":139,"x_max":660,"o":"m 294 871 l 294 482 l 294 -21 l 139 24 l 139 906 l 294 871 m 660 871 l 660 482 l 660 -21 l 504 24 l 504 906 l 660 871 z "},"ड":{"ha":783,"x_min":-39,"x_max":804,"o":"m 215 317 q 110 420 144 368 q 75 517 76 472 l 75 522 q 162 647 75 600 q 419 694 249 694 l 468 694 l 468 783 l 4 783 l -39 893 l 772 893 l 804 786 l 626 786 l 626 653 q 628 575 626 615 l 560 578 q 454 585 506 581 q 361 590 403 590 q 278 578 310 590 q 246 533 246 567 q 276 451 246 494 q 335 456 306 454 q 392 458 364 458 q 521 444 463 458 q 621 403 579 431 q 685 336 663 376 q 708 244 708 296 q 674 113 708 164 q 589 33 639 63 q 483 -6 539 4 q 386 -17 428 -17 q 291 -8 333 -17 q 213 15 249 0 q 148 48 178 29 q 90 86 118 67 l 90 193 q 278 119 190 144 q 428 93 365 93 q 524 117 486 93 q 565 189 563 140 l 565 197 q 550 262 565 235 q 510 306 535 289 q 452 331 485 324 q 383 339 419 339 q 314 333 350 339 q 242 317 278 328 l 215 317 z "},"ड़":{"ha":751,"x_min":-51,"x_max":764,"o":"m 203 317 q 98 420 132 368 q 63 517 64 472 l 63 522 q 149 647 63 600 q 407 694 236 694 l 456 694 l 456 783 l -8 783 l -51 893 l 747 893 l 764 790 q 725 788 747 789 q 678 785 706 786 q 614 785 650 785 l 614 653 q 615 575 614 615 l 547 578 q 442 585 493 581 q 349 590 390 590 q 265 578 297 590 q 233 533 233 567 q 264 451 233 494 q 322 456 293 454 q 379 458 351 458 q 508 444 450 458 q 608 403 567 431 q 673 336 650 376 q 696 244 696 296 q 661 113 696 164 q 576 33 626 63 q 471 -6 526 4 q 374 -17 415 -17 q 278 -8 321 -17 q 201 15 236 0 q 135 48 165 29 q 78 86 106 67 l 78 193 q 265 119 178 144 q 415 93 353 93 q 512 117 474 93 q 553 189 550 140 l 553 197 q 538 262 553 235 q 497 306 522 289 q 440 331 472 324 q 371 339 407 339 q 301 333 338 339 q 229 317 265 328 l 203 317 m 282 -183 q 305 -234 282 -212 q 364 -256 328 -256 q 418 -234 396 -256 q 440 -183 440 -212 q 418 -131 440 -153 q 364 -108 396 -108 q 305 -131 328 -108 q 282 -183 282 -153 z "},"ढ":{"ha":803,"x_min":-54,"x_max":831,"o":"m 85 301 q 83 317 83 310 q 83 335 83 325 q 115 476 83 419 q 201 567 147 532 q 324 616 254 601 q 468 631 393 631 l 478 631 l 478 786 l -15 786 l -54 893 l 785 893 l 831 786 l 636 786 l 636 500 q 519 514 568 510 q 439 518 471 518 q 274 469 322 518 q 225 326 225 419 l 225 310 q 248 239 232 272 q 286 179 264 206 q 335 135 308 153 q 392 114 363 118 q 364 213 364 174 q 378 272 364 246 q 417 317 393 299 q 470 344 440 335 q 532 354 500 354 q 606 338 571 354 q 665 296 640 321 q 705 242 690 271 q 719 186 719 213 q 683 94 719 132 q 593 34 646 57 q 483 1 540 11 q 382 -8 425 -8 q 262 21 315 -8 q 170 95 208 50 q 110 195 132 140 q 85 301 88 250 m 506 114 q 577 169 549 139 q 606 232 606 199 q 596 265 606 250 q 569 281 586 281 q 538 272 554 281 q 508 248 521 263 q 485 215 494 233 q 476 175 476 196 q 483 144 476 160 q 506 114 490 128 z "},"ध":{"ha":914,"x_min":57,"x_max":939,"o":"m 57 761 q 74 828 57 799 q 121 877 92 857 q 187 908 150 897 q 263 918 224 918 q 365 887 325 918 q 404 810 404 856 q 377 737 404 778 q 288 654 350 696 q 292 649 290 651 q 297 644 294 646 l 317 625 q 381 663 344 643 q 436 693 417 682 q 464 642 451 665 q 484 606 475 622 q 493 588 493 589 q 434 551 468 576 q 368 494 400 526 q 312 423 336 461 q 281 350 288 385 q 308 275 283 304 q 367 246 333 246 q 441 257 401 246 q 517 287 481 268 q 583 330 554 306 q 625 379 613 354 q 624 473 625 418 q 624 586 624 528 l 624 786 l 518 786 l 476 893 l 904 893 l 939 786 l 785 786 q 784 728 785 761 q 783 656 783 694 q 783 578 783 618 q 783 501 783 539 l 783 151 q 785 -21 783 63 l 626 24 l 626 181 q 531 140 581 151 q 442 129 482 129 q 332 143 392 129 q 221 184 272 157 q 135 249 169 211 q 100 336 100 288 q 110 388 100 361 q 135 440 119 414 q 172 492 151 467 q 215 540 193 518 q 156 597 185 567 q 106 656 128 626 q 70 713 83 686 q 57 761 57 740 m 214 856 q 188 800 188 839 q 197 756 188 781 q 221 711 206 732 q 260 741 249 718 q 272 792 272 764 q 261 840 272 818 q 231 861 250 861 q 214 856 221 861 z "},"ऍ":{"ha":729,"x_min":-43,"x_max":744,"o":"m 668 479 q 652 428 665 454 q 620 379 639 403 q 582 335 601 356 q 549 300 563 314 l 443 383 q 490 454 471 414 q 508 522 508 494 l 508 783 l 265 783 l 265 438 q 303 332 272 376 q 377 253 335 288 q 467 190 419 218 q 555 133 514 161 q 623 76 596 106 q 651 7 650 46 l 651 0 q 618 -99 651 -47 q 518 -196 585 -151 l 422 -117 q 444 -92 432 -111 q 466 -51 456 -74 q 483 -3 476 -28 q 490 42 490 22 q 484 67 490 57 q 468 85 478 78 q 446 99 458 93 q 419 114 433 106 q 319 176 374 140 q 216 251 264 211 q 134 335 168 292 q 97 421 100 379 l 97 783 q 38 786 64 785 q 0 790 11 788 l -43 893 l 729 893 l 744 790 q 726 788 738 789 q 703 785 717 786 q 668 785 689 785 l 668 479 m 400 1047 q 435 1067 417 1047 q 467 1115 453 1086 q 490 1178 481 1144 q 499 1240 499 1211 l 657 1189 q 635 1119 653 1156 q 587 1051 618 1082 q 509 1000 556 1021 q 400 978 463 979 l 389 978 q 212 1033 278 978 q 125 1183 146 1088 l 282 1242 q 299 1164 286 1200 q 328 1102 311 1128 q 363 1062 344 1076 q 400 1047 382 1047 z "},"ॕ":{"ha":0,"x_min":-64,"x_max":478,"o":"m 214 1078 q 248 1098 231 1078 q 279 1148 265 1118 q 302 1213 293 1178 q 311 1276 311 1247 l 471 1217 q 449 1147 467 1183 q 399 1081 431 1111 q 321 1030 367 1050 q 214 1008 275 1010 l 203 1008 q 24 1063 90 1008 q -61 1214 -42 1118 l 96 1272 q 113 1194 100 1229 q 142 1133 125 1158 q 177 1092 158 1107 q 214 1078 196 1078 m -64 988 l 451 988 l 478 908 l -35 908 l -64 988 z "},"ए":{"ha":728,"x_min":-44,"x_max":743,"o":"m 667 479 q 651 428 664 454 q 619 379 638 403 q 581 335 600 356 q 547 300 561 314 l 442 383 q 488 454 469 414 q 507 522 507 494 l 507 783 l 264 783 l 264 438 q 302 332 271 376 q 376 253 333 288 q 465 190 418 218 q 553 133 513 161 q 622 76 594 106 q 650 7 649 46 l 650 0 q 617 -99 650 -47 q 517 -196 583 -151 l 421 -117 q 442 -92 431 -111 q 465 -51 454 -74 q 482 -3 475 -28 q 489 42 489 22 q 483 67 489 57 q 467 85 476 78 q 444 99 457 93 q 418 114 432 106 q 317 176 372 140 q 215 251 263 211 q 133 335 167 292 q 96 421 99 379 l 96 783 q 36 786 63 785 q -1 790 10 788 l -44 893 l 728 893 l 743 790 q 725 788 736 789 q 701 785 715 786 q 667 785 688 785 l 667 479 z "},"८":{"ha":729,"x_min":49,"x_max":640,"o":"m 49 171 q 88 316 49 236 q 187 477 128 396 q 315 635 246 558 q 445 772 385 713 q 548 867 506 832 q 593 903 590 903 l 640 819 q 562 742 607 792 q 469 630 517 692 q 374 499 421 568 q 289 365 326 431 q 228 240 251 299 q 206 142 206 182 q 213 115 206 125 q 233 101 221 106 q 258 96 244 97 q 285 94 272 94 q 413 165 354 94 q 535 379 471 235 l 636 264 q 599 158 624 208 q 536 68 574 107 q 448 6 499 29 q 332 -17 397 -17 q 210 -1 263 -17 q 121 40 157 14 q 67 100 85 67 q 49 171 49 133 z "},"ऎ":{"ha":729,"x_min":-43,"x_max":744,"o":"m 668 479 q 652 428 665 454 q 620 379 639 403 q 582 335 601 356 q 549 300 563 314 l 443 383 q 490 454 471 414 q 508 522 508 494 l 508 783 l 265 783 l 265 438 q 303 332 272 376 q 377 253 335 288 q 467 190 419 218 q 555 133 514 161 q 623 76 596 106 q 651 7 650 46 l 651 0 q 618 -99 651 -47 q 518 -196 585 -151 l 422 -117 q 444 -92 432 -111 q 466 -51 456 -74 q 483 -3 476 -28 q 490 42 490 22 l 490 47 q 483 70 490 60 q 439 103 476 81 l 419 114 q 319 176 374 140 q 216 251 264 211 q 134 335 168 292 q 97 421 100 379 l 97 783 q 38 786 64 785 q 0 790 11 788 l -43 893 l 544 893 q 501 948 531 931 q 433 974 472 965 q 349 990 394 983 q 260 1013 304 997 q 174 1061 215 1029 q 103 1153 133 1093 l 233 1257 q 282 1159 256 1194 q 337 1105 308 1124 q 394 1078 365 1086 q 451 1067 424 1071 q 456 1066 454 1067 q 461 1065 458 1065 q 535 1049 500 1058 q 599 1022 571 1040 q 647 972 628 1003 q 672 893 665 942 l 729 893 l 744 790 q 726 788 738 789 q 703 785 717 786 q 668 785 689 785 l 668 479 z "},"ॆ":{"ha":0,"x_min":-697,"x_max":-128,"o":"m -569 1258 q -516 1156 -544 1193 q -458 1101 -487 1119 q -398 1076 -428 1082 q -340 1065 -368 1069 q -267 1051 -303 1060 q -201 1024 -231 1043 q -152 971 -172 1006 q -128 879 -132 936 l -257 879 q -294 945 -267 925 q -358 974 -321 965 q -440 989 -396 983 q -531 1009 -485 994 q -619 1056 -576 1024 q -697 1153 -662 1089 l -569 1258 z "},"े":{"ha":0,"x_min":-642,"x_max":-126,"o":"m -642 1207 q -589 1222 -615 1215 q -537 1234 -565 1229 q -485 1239 -510 1239 l -467 1239 q -324 1194 -385 1231 q -221 1105 -262 1157 q -156 993 -179 1053 q -126 879 -133 933 l -253 879 q -283 965 -262 921 q -332 1044 -303 1008 q -398 1103 -361 1081 q -478 1126 -435 1126 q -515 1123 -481 1126 q -612 1096 -550 1119 l -642 1207 z "},"फ़":{"ha":1189,"x_min":-75,"x_max":1197,"o":"m 999 413 q 914 476 971 476 q 820 456 874 476 q 706 397 767 436 q 707 247 707 321 q 708 113 707 172 q 710 -21 708 43 l 547 24 l 547 267 q 474 251 513 256 q 399 246 435 246 q 299 271 353 246 q 200 341 246 296 q 124 449 154 386 q 94 590 94 513 l 94 783 q 13 785 49 783 q -36 789 -24 786 l -75 893 l 1183 893 l 1197 790 q 1053 786 1131 788 q 897 784 986 785 q 708 783 808 783 l 708 547 q 794 576 750 567 q 878 585 838 585 q 981 566 932 585 q 1069 510 1031 547 q 1133 420 1108 474 q 1161 297 1157 367 l 1161 282 q 1149 211 1161 249 q 1106 143 1138 174 q 1017 92 1074 113 q 874 72 961 72 l 818 72 l 811 176 l 857 176 q 927 190 897 176 q 976 224 957 203 q 1005 274 996 246 q 1014 333 1014 303 q 1010 376 1014 356 q 999 413 1007 396 m 260 783 l 260 594 q 272 478 260 524 q 307 404 283 432 q 364 365 331 376 q 442 354 397 354 q 503 363 474 354 q 549 385 532 372 l 549 783 l 260 783 m 215 74 q 239 22 215 42 q 294 1 263 1 q 353 22 329 1 q 376 74 376 42 q 353 124 376 104 q 294 144 329 144 q 239 124 263 144 q 215 74 215 104 z "},"फ":{"ha":1185,"x_min":-82,"x_max":1211,"o":"m 992 413 q 907 476 964 476 q 814 457 867 476 q 701 399 761 438 l 701 -21 l 540 24 l 540 267 q 467 251 506 256 q 393 246 428 246 q 292 271 346 246 q 193 341 239 296 q 117 449 147 386 q 88 590 88 513 l 88 786 l -42 786 l -82 893 l 1176 893 l 1211 786 l 701 786 l 701 547 q 787 576 743 567 q 871 585 831 585 q 974 566 925 585 q 1063 510 1024 547 q 1126 420 1101 474 q 1154 297 1150 367 l 1154 282 q 1142 211 1154 249 q 1099 143 1131 174 q 1010 92 1067 113 q 867 72 954 72 l 813 72 l 804 176 l 850 176 q 920 190 890 176 q 969 224 950 203 q 998 274 989 246 q 1007 333 1007 303 q 1003 376 1007 356 q 992 413 1000 396 m 254 786 l 254 594 q 266 478 254 524 q 301 404 278 432 q 357 365 324 376 q 435 354 390 354 q 495 363 465 354 q 540 385 525 372 l 540 786 l 254 786 z "},"५":{"ha":815,"x_min":125,"x_max":717,"o":"m 293 314 q 225 340 256 314 q 172 407 194 365 q 138 502 150 449 q 125 613 125 556 q 135 699 125 656 q 163 783 144 743 q 209 858 182 824 q 269 914 236 892 l 378 831 q 332 781 350 813 q 303 712 314 750 q 287 632 292 674 q 282 551 282 590 q 294 450 282 492 q 329 408 306 408 q 403 426 374 408 q 451 471 432 444 q 395 530 411 507 q 379 572 379 553 q 396 607 379 593 q 435 628 413 621 q 480 638 457 635 q 517 640 503 640 q 600 626 557 640 q 679 588 643 613 q 658 543 679 572 q 614 486 638 514 l 600 469 q 690 340 663 400 q 717 232 717 281 q 690 132 717 176 q 622 56 664 88 q 527 8 579 25 q 425 -10 475 -10 q 385 -6 407 -10 q 339 4 363 -3 l 339 108 q 375 105 358 106 q 403 104 392 104 q 464 113 435 104 q 516 139 493 121 q 553 183 539 157 q 567 246 567 210 q 556 316 567 281 q 521 393 546 351 q 465 359 494 374 q 404 335 435 344 q 345 319 374 325 q 293 314 317 314 z "},"ग":{"ha":781,"x_min":-42,"x_max":821,"o":"m -42 893 l 782 893 l 821 786 l 665 786 l 665 640 l 665 215 q 667 -21 665 99 l 507 24 l 507 786 l 342 786 q 344 758 344 772 q 344 726 344 743 q 342 671 344 704 q 334 599 339 638 q 324 521 329 561 q 313 446 318 481 l 308 404 q 306 368 308 388 q 298 328 304 349 q 280 289 292 308 q 249 254 268 269 q 179 275 214 258 q 117 314 144 292 q 73 361 90 336 q 56 408 56 386 q 81 453 56 435 q 168 475 107 472 q 179 558 175 511 q 183 651 183 604 q 179 728 183 692 q 168 786 175 764 l 1 786 l -42 893 z "},"ॻ":{"ha":786,"x_min":-46,"x_max":813,"o":"m -46 893 l 778 893 l 813 786 l 661 786 l 661 638 l 661 214 q 663 -21 661 97 l 503 24 l 503 783 l 338 783 q 340 755 340 769 q 340 725 340 740 q 338 671 340 704 q 330 599 335 638 q 319 521 325 561 q 308 446 314 481 l 300 369 q 288 312 297 342 q 246 254 279 282 q 175 275 210 258 q 113 314 140 292 q 69 361 86 336 q 51 408 51 386 q 77 453 51 435 q 164 475 103 472 q 174 558 171 511 q 178 650 178 604 q 175 725 178 690 q 165 783 172 760 q 79 785 125 783 q -3 786 33 786 l -46 893 m 82 -89 l 651 -89 l 685 -196 l 121 -196 l 82 -89 z "},"घ":{"ha":935,"x_min":-39,"x_max":960,"o":"m -39 893 l 924 893 l 960 786 l 804 786 q 803 728 804 761 q 803 656 803 694 q 803 578 803 618 q 803 501 803 539 l 803 151 q 804 -21 803 63 l 644 24 l 644 181 q 549 140 599 151 q 461 129 500 129 q 351 143 411 129 q 240 184 292 157 q 154 249 189 211 q 119 336 119 288 q 144 426 119 381 q 208 517 169 472 q 105 616 147 564 q 63 721 63 668 q 67 752 63 733 q 78 786 72 771 l 1 786 l -39 893 m 456 689 q 483 640 471 663 q 503 605 494 621 q 511 588 511 589 q 456 554 489 576 q 390 501 422 532 q 333 431 358 469 q 299 349 307 392 q 327 274 301 303 q 386 246 353 246 q 460 257 421 246 q 537 287 500 268 q 602 330 574 306 q 643 379 631 354 q 642 473 643 418 q 642 586 642 528 l 642 786 l 243 786 q 235 768 238 782 q 232 736 232 754 q 251 653 232 683 q 300 599 269 622 q 369 644 333 624 q 425 676 406 665 l 456 689 z "},"ग़":{"ha":781,"x_min":-51,"x_max":792,"o":"m -51 893 l 774 893 l 792 790 q 757 788 776 789 q 715 785 740 786 q 657 785 690 785 l 657 638 l 657 214 q 658 -21 657 97 l 499 24 l 499 783 l 333 783 q 336 755 336 769 q 336 725 336 740 l 336 719 q 333 665 336 697 q 324 594 329 632 q 314 519 319 557 q 304 446 308 481 l 299 404 q 297 368 299 388 q 290 328 296 349 q 272 289 283 308 q 240 254 261 269 q 171 275 206 258 q 109 314 136 292 q 65 361 82 336 q 47 408 47 386 q 73 453 47 435 q 158 475 99 472 q 169 558 165 511 q 174 650 174 604 q 171 725 174 690 q 161 783 168 760 l -7 783 l -51 893 m 167 74 q 189 22 167 42 q 244 1 211 1 q 302 22 281 1 q 324 74 324 42 q 302 124 324 104 q 244 144 281 144 q 189 124 211 144 q 167 74 167 104 z "},"ॽ":{"ha":799,"x_min":82,"x_max":697,"o":"m 331 451 l 358 451 q 427 465 390 451 q 495 503 464 478 q 547 566 526 529 q 568 650 568 603 q 565 681 568 665 q 558 711 563 696 q 499 783 540 758 q 403 807 458 807 q 269 784 347 807 q 94 713 190 761 l 82 815 q 139 855 108 836 q 205 889 169 874 q 283 913 240 904 q 379 922 326 922 q 476 911 421 922 q 580 871 531 900 q 663 790 629 842 q 697 657 697 738 q 683 559 697 607 q 640 471 668 511 q 574 401 613 431 q 486 357 535 371 l 486 281 l 486 114 q 488 29 486 71 l 331 68 l 331 451 z "},"ह":{"ha":744,"x_min":-58,"x_max":776,"o":"m 485 164 l 485 183 q 487 199 486 192 q 488 213 488 206 q 477 291 488 258 q 449 344 467 324 q 407 374 431 365 q 357 383 383 383 q 271 349 301 383 q 240 250 240 314 q 262 142 240 186 q 319 69 283 99 q 401 19 354 39 q 496 -14 447 0 l 540 -25 l 478 -100 q 326 -84 397 -100 q 202 -34 256 -68 q 118 54 149 0 q 88 186 88 108 q 99 276 88 232 q 139 361 111 319 q 110 392 125 375 q 82 430 94 410 q 62 472 69 450 q 54 517 54 494 q 141 647 54 599 q 400 694 228 694 l 449 694 l 449 786 l -15 786 l -58 893 l 740 893 l 776 786 l 608 786 l 608 572 l 525 579 q 426 588 474 583 q 339 592 379 592 q 258 579 290 592 q 226 532 226 567 q 249 458 226 497 q 308 481 274 471 q 386 490 343 490 q 489 472 440 490 q 575 419 538 453 q 634 340 613 386 q 656 242 656 294 q 646 164 656 203 l 485 164 z "},"इ":{"ha":751,"x_min":-53,"x_max":782,"o":"m 517 -256 l 482 -256 q 409 -241 453 -256 q 322 -195 365 -226 q 240 -115 278 -164 q 185 4 203 -65 q 106 8 143 4 q 49 33 69 13 q 65 91 50 63 q 103 142 81 119 q 153 179 126 165 q 206 193 181 193 l 217 193 q 267 166 246 186 q 293 106 289 146 q 435 93 378 93 q 526 118 501 93 q 553 189 550 143 l 553 196 q 538 262 553 235 q 497 306 522 289 q 439 331 472 324 q 369 339 406 339 q 210 311 306 339 q 99 419 135 365 q 61 517 63 472 l 61 522 q 148 647 61 600 q 406 694 235 694 l 442 694 l 447 694 l 454 694 l 454 786 l -10 786 l -53 893 l 746 893 l 782 786 l 613 786 l 613 653 q 614 575 613 615 l 546 578 q 440 585 492 581 q 347 590 389 590 q 264 578 296 590 q 232 533 232 567 q 263 451 232 494 q 321 456 292 454 q 378 458 350 458 q 605 403 521 458 q 693 244 689 349 l 693 235 q 662 113 693 161 q 583 37 631 65 q 476 -3 535 8 q 363 -15 418 -15 q 342 -15 351 -15 q 322 -14 332 -15 q 403 -115 354 -67 q 532 -193 453 -164 l 517 -256 z "},"ई":{"ha":751,"x_min":-53,"x_max":763,"o":"m 517 -256 l 482 -256 q 409 -241 453 -256 q 322 -195 365 -226 q 240 -115 278 -164 q 185 4 203 -65 q 106 8 143 4 q 49 33 69 13 q 65 91 50 63 q 103 142 81 119 q 153 179 126 165 q 206 193 181 193 l 217 193 q 267 166 246 186 q 293 106 289 146 q 435 93 378 93 q 526 118 501 93 q 553 189 550 143 l 553 196 q 538 262 553 235 q 497 306 522 289 q 439 331 472 324 q 369 339 406 339 q 210 311 306 339 q 99 419 135 365 q 61 517 63 472 l 61 522 q 148 647 61 600 q 406 694 235 694 l 442 694 l 447 694 l 454 694 l 454 783 l -10 783 l -53 893 l 440 893 q 408 946 424 918 q 381 1000 393 974 q 361 1051 368 1026 q 354 1092 354 1075 q 372 1156 354 1129 q 418 1199 390 1182 q 479 1224 446 1215 q 542 1232 513 1232 q 606 1223 575 1232 q 658 1199 636 1214 q 694 1163 681 1183 q 707 1121 707 1143 q 707 1110 707 1115 q 704 1094 707 1106 l 544 1094 q 547 1114 546 1101 q 549 1140 549 1126 q 547 1161 549 1153 q 538 1169 544 1169 q 524 1161 529 1169 q 517 1142 519 1153 q 515 1119 515 1131 q 515 1103 515 1108 q 522 1052 515 1079 q 539 997 528 1025 q 565 942 550 968 q 594 893 579 915 l 746 893 l 763 790 q 724 788 746 789 q 676 785 704 786 q 613 785 649 785 l 613 653 q 614 575 613 615 l 546 578 q 440 585 492 581 q 347 590 389 590 q 264 578 296 590 q 232 533 232 567 q 263 451 232 494 q 321 456 292 454 q 378 458 350 458 q 605 403 521 458 q 693 244 689 349 l 693 235 q 662 113 693 161 q 583 37 631 65 q 476 -3 535 8 q 363 -15 418 -15 q 342 -15 351 -15 q 322 -14 332 -15 q 403 -115 354 -67 q 532 -193 453 -164 l 517 -256 z "},"ज":{"ha":1032,"x_min":-50,"x_max":1054,"o":"m 301 596 l 738 596 l 738 786 l -11 786 l -50 893 l 1019 893 l 1054 786 l 903 786 l 903 -8 q 858 -5 888 -8 q 810 4 829 -1 l 740 24 l 740 489 l 632 489 q 663 426 650 460 q 676 364 675 392 l 676 356 q 648 241 676 293 q 571 152 619 189 q 459 95 522 115 q 326 75 396 75 q 210 98 261 75 q 122 159 160 121 q 60 247 85 197 q 24 353 36 297 l 124 469 l 151 406 q 194 331 171 369 q 243 259 217 292 q 301 206 269 226 q 369 183 332 185 l 379 183 q 485 219 446 183 q 524 313 524 254 q 503 399 524 353 q 443 489 483 444 l 346 489 l 301 596 z "},"झ":{"ha":1057,"x_min":-50,"x_max":1079,"o":"m 519 -256 l 485 -256 q 413 -241 456 -256 q 326 -195 369 -226 q 244 -115 282 -164 q 188 4 206 -65 q 109 8 146 4 q 51 33 72 13 q 68 91 53 63 q 106 142 83 119 q 156 179 129 165 q 208 193 183 193 l 219 193 q 270 166 249 186 q 296 106 292 146 q 438 93 381 93 q 528 118 504 93 q 556 189 553 143 l 556 196 q 540 262 556 235 q 500 306 525 289 q 442 331 475 324 q 374 339 408 339 q 213 311 308 339 q 101 419 138 365 q 64 517 65 472 l 64 522 q 151 647 64 600 q 408 694 238 694 l 446 694 l 451 694 l 457 694 l 457 786 l -7 786 l -50 893 l 1046 893 l 1079 786 l 926 786 l 926 -21 l 767 24 l 767 324 q 728 302 747 313 q 686 282 708 292 q 695 260 694 267 q 697 244 696 253 l 697 236 q 666 114 697 163 q 587 37 635 65 q 480 -3 539 8 q 365 -15 421 -15 q 344 -15 354 -15 q 325 -14 335 -15 q 406 -115 357 -67 q 535 -193 456 -164 l 519 -256 m 581 575 l 529 579 q 433 587 481 583 q 350 590 386 590 q 267 578 299 590 q 236 533 236 567 q 243 494 236 515 q 265 451 250 474 q 323 456 294 454 q 379 458 351 458 q 522 441 460 458 q 622 389 583 424 q 710 433 671 408 q 767 483 749 457 l 767 510 q 765 648 765 581 q 764 786 764 715 l 615 786 l 615 653 q 617 575 615 615 l 581 575 z "},"ॼ":{"ha":1038,"x_min":-49,"x_max":1056,"o":"m 303 596 l 739 596 l 739 786 l -10 786 l -49 893 l 1021 893 l 1056 786 l 904 786 l 904 -8 q 859 -4 886 -8 q 806 7 832 0 q 742 24 775 14 l 742 489 l 632 489 q 663 424 650 458 q 678 364 676 390 l 678 356 q 649 242 678 293 q 572 153 621 190 q 460 95 524 115 q 328 75 397 75 q 212 98 263 75 q 124 159 161 121 q 62 247 86 197 q 25 353 38 297 l 122 467 l 153 406 q 193 329 171 368 q 242 258 215 290 q 300 206 268 226 q 371 183 332 185 l 381 183 q 486 219 447 183 q 525 313 525 254 q 505 399 525 353 q 444 489 485 444 l 347 489 l 303 596 m 61 -89 l 894 -89 l 929 -196 l 100 -196 l 61 -89 z "},"क":{"ha":1111,"x_min":-67,"x_max":1128,"o":"m 908 496 q 826 557 881 557 q 731 537 786 557 q 618 481 676 517 l 618 143 q 619 -21 618 58 l 458 24 l 458 193 q 313 168 392 168 q 215 183 263 168 q 128 227 167 197 q 65 303 90 257 q 36 413 40 349 q 58 508 38 463 q 113 588 78 554 q 197 643 149 622 q 304 664 246 664 q 379 658 342 664 q 457 633 417 651 q 456 726 456 693 q 456 786 456 758 l -26 786 l -67 893 l 1093 893 l 1128 786 l 618 786 l 618 631 q 702 656 658 647 q 786 665 746 665 q 890 649 840 665 q 977 597 939 632 q 1040 509 1015 563 q 1071 381 1065 456 l 1071 365 q 1059 294 1071 332 q 1015 226 1047 257 q 927 176 983 196 q 783 156 871 156 l 729 156 l 721 260 l 767 260 q 838 273 808 260 q 886 308 867 286 q 915 358 906 329 q 924 417 924 386 q 920 459 924 439 q 908 496 917 479 m 158 413 q 172 377 158 397 q 208 338 185 357 q 264 305 232 318 q 333 292 296 292 q 395 302 363 292 q 458 333 428 313 l 458 511 q 402 535 435 526 q 339 543 369 543 q 269 531 301 543 q 211 501 236 519 q 172 458 186 482 q 158 413 158 435 z "},"ख":{"ha":1057,"x_min":-72,"x_max":1076,"o":"m 497 3 l 461 3 q 349 32 414 3 q 226 120 285 61 q 125 267 167 179 q 83 474 83 356 l 83 488 l 183 508 q 232 489 226 489 q 246 512 242 489 q 250 571 250 535 q 242 656 247 607 q 224 761 236 704 l 218 786 l -33 786 l -72 893 l 1042 893 l 1076 786 l 924 786 q 923 728 924 761 q 922 656 922 694 q 922 578 922 618 q 922 501 922 539 l 922 151 q 924 -21 922 63 l 764 24 l 764 246 q 705 233 736 239 q 646 228 674 228 q 556 239 600 228 q 478 276 513 250 q 423 342 444 301 q 399 443 401 383 l 399 451 q 417 535 399 496 q 467 603 435 574 q 544 649 500 632 q 643 665 589 665 q 701 660 672 665 q 761 643 731 656 l 761 786 l 394 786 q 407 705 401 746 q 413 625 413 664 q 405 548 413 585 q 376 481 397 511 q 318 431 356 451 q 221 403 281 411 q 262 297 235 349 q 325 204 289 244 q 403 140 361 164 q 490 115 446 115 l 532 115 l 497 3 m 517 443 q 528 413 517 431 q 559 378 539 394 q 607 349 579 361 q 667 338 635 338 q 716 346 690 338 q 765 369 742 354 q 763 447 765 404 q 761 531 761 490 q 719 549 743 542 q 671 556 694 556 q 611 545 639 556 q 563 519 583 535 q 529 483 542 503 q 517 443 517 463 z "},"ख़":{"ha":1072,"x_min":-53,"x_max":1096,"o":"m 517 3 l 481 3 q 369 32 433 3 q 245 120 304 61 q 144 267 186 179 q 103 474 103 356 l 103 488 l 203 508 q 251 489 246 489 q 265 512 261 489 q 269 571 269 535 q 263 654 269 607 q 246 750 256 701 l 239 786 l -14 786 l -53 893 l 1061 893 l 1096 786 l 943 786 q 942 728 943 761 q 942 656 942 694 q 942 578 942 618 q 942 501 942 539 l 942 151 q 943 -21 942 63 l 783 24 l 783 246 q 724 233 756 239 q 665 228 693 228 q 576 239 619 228 q 498 276 532 250 q 442 342 464 301 q 419 443 421 383 l 419 451 q 438 535 419 496 q 488 603 456 574 q 564 649 519 632 q 661 665 608 665 q 721 660 692 665 q 781 643 750 656 l 781 786 l 414 786 q 426 705 421 746 q 432 625 432 664 q 424 550 432 586 q 394 484 415 514 q 335 433 372 454 q 240 403 297 413 q 283 297 256 349 q 346 204 310 244 q 424 140 382 164 q 510 115 465 115 l 551 115 l 517 3 m 536 443 q 547 413 536 431 q 578 378 558 394 q 626 349 599 361 q 686 338 654 338 q 735 346 710 338 q 785 369 761 354 q 781 531 781 449 q 738 549 763 542 q 690 556 714 556 q 631 545 658 556 q 582 519 603 535 q 549 483 561 503 q 536 443 536 463 m 58 74 q 82 22 58 42 q 139 1 106 1 q 195 22 172 1 q 218 74 218 42 q 195 124 218 104 q 139 144 172 144 q 82 124 106 144 q 58 74 58 104 z "},"ल":{"ha":1072,"x_min":-49,"x_max":1099,"o":"m -49 893 l 1067 893 l 1099 786 l 950 786 l 950 -8 q 906 -4 933 -8 q 851 7 878 0 q 788 24 821 14 l 788 485 q 765 510 776 510 q 712 492 736 510 q 665 442 688 474 q 618 369 642 411 q 569 276 594 326 l 436 353 q 538 503 479 431 q 449 567 489 547 q 382 586 410 586 q 307 540 335 586 q 279 404 279 493 q 291 300 279 350 q 320 206 303 250 q 360 126 338 163 q 403 63 382 90 l 324 -35 l 271 33 q 219 103 246 65 q 170 184 193 142 q 133 272 147 226 q 118 364 118 318 q 142 486 118 428 q 207 589 165 544 q 306 659 249 633 q 433 685 364 685 q 549 658 496 685 q 642 599 601 631 q 692 619 667 614 q 749 625 717 625 q 768 625 760 625 q 786 624 776 625 l 786 786 l -10 786 l -49 893 z "},"ळ":{"ha":1142,"x_min":-43,"x_max":1161,"o":"m -43 893 l 1126 893 l 1161 786 l 856 786 l 856 671 q 952 631 907 657 q 1031 570 997 606 q 1083 490 1064 535 q 1101 396 1101 446 q 1076 278 1101 336 q 1007 175 1050 221 q 908 101 964 129 q 790 72 851 72 q 656 92 710 72 q 565 140 601 111 q 493 88 539 107 q 374 69 447 69 q 242 96 303 69 q 135 166 181 122 q 65 265 90 210 q 39 378 39 321 q 67 503 39 446 q 144 600 96 560 q 257 663 193 640 q 390 685 321 685 q 486 669 439 685 q 578 610 533 653 q 625 653 597 635 q 697 679 653 671 q 697 704 697 690 q 696 733 696 718 l 696 786 l -4 786 l -43 893 m 343 575 q 226 539 264 575 q 188 447 188 503 q 203 377 188 422 q 246 289 218 332 q 313 214 274 246 q 399 182 351 182 q 443 195 426 182 q 471 234 460 208 q 490 297 482 260 q 510 382 499 333 q 512 396 510 383 q 521 439 514 408 q 488 490 506 465 q 448 533 469 514 q 400 563 426 551 q 343 575 374 575 m 750 182 q 833 215 796 182 q 895 292 869 247 q 935 383 921 338 q 949 453 949 428 q 913 541 949 507 q 811 575 878 575 q 749 556 775 575 q 704 508 722 538 q 674 440 686 478 q 652 365 661 403 q 635 293 643 328 q 617 235 626 258 q 674 197 640 211 q 750 182 707 182 z "},"ऴ":{"ha":1142,"x_min":-43,"x_max":1161,"o":"m -43 893 l 1126 893 l 1161 786 l 856 786 l 856 671 q 952 631 907 657 q 1031 570 997 606 q 1083 490 1064 535 q 1101 396 1101 446 q 1076 278 1101 336 q 1007 175 1050 221 q 908 101 964 129 q 790 72 851 72 q 656 92 710 72 q 565 140 601 111 q 493 88 539 107 q 374 69 447 69 q 242 96 303 69 q 135 166 181 122 q 65 265 90 210 q 39 378 39 321 q 67 503 39 446 q 144 600 96 560 q 257 663 193 640 q 390 685 321 685 q 486 669 439 685 q 578 610 533 653 q 625 653 597 635 q 697 679 653 671 q 697 704 697 690 q 696 733 696 718 l 696 786 l -4 786 l -43 893 m 343 575 q 226 539 264 575 q 188 447 188 503 q 203 377 188 422 q 246 289 218 332 q 313 214 274 246 q 399 182 351 182 q 456 213 433 182 q 490 286 478 244 q 509 371 503 328 q 521 439 515 414 q 488 490 506 465 q 448 533 469 514 q 400 563 426 551 q 343 575 374 575 m 750 182 q 833 215 796 182 q 895 292 869 247 q 935 383 921 338 q 949 453 949 428 q 913 541 949 507 q 811 575 878 575 q 749 556 775 575 q 704 508 722 538 q 674 440 686 478 q 652 365 661 403 q 635 293 643 328 q 617 235 626 258 q 674 197 640 211 q 750 182 707 182 m 471 -49 q 494 -100 471 -81 q 550 -119 518 -119 q 608 -100 585 -119 q 632 -49 632 -81 q 608 3 632 -17 q 550 24 585 24 q 494 3 518 24 q 471 -49 471 -17 z "},"ॡ":{"ha":1056,"x_min":-78,"x_max":1074,"o":"m -78 893 l 1038 893 l 1074 786 l 918 786 l 918 618 q 918 473 918 549 q 919 334 918 397 q 920 228 919 271 q 922 181 921 185 q 865 167 882 178 q 847 143 847 156 q 863 110 847 117 q 891 114 872 111 q 938 124 910 117 l 914 35 q 863 18 878 29 q 847 -7 847 7 q 865 -35 847 -22 q 915 -47 883 -47 l 951 -47 l 935 -126 q 867 -119 906 -126 q 796 -93 829 -111 q 740 -45 763 -75 q 717 29 717 -15 q 754 82 717 60 q 727 125 738 101 q 717 178 717 149 q 732 213 717 196 q 763 236 747 229 q 758 360 760 299 q 757 485 757 422 q 747 502 753 494 q 736 510 740 510 q 685 494 708 510 q 639 449 661 478 q 594 379 617 419 q 547 292 572 339 l 539 276 l 407 353 q 508 503 450 431 q 420 567 460 547 q 353 586 381 586 q 278 540 306 586 q 251 404 251 493 q 263 300 251 350 q 291 206 274 250 q 331 126 308 163 q 375 63 353 90 l 294 -35 l 243 32 q 192 102 218 64 q 142 183 165 140 q 105 271 119 225 q 90 364 90 317 q 113 486 90 428 q 178 589 136 544 q 278 659 219 633 q 406 685 336 685 q 520 658 468 685 q 613 599 572 631 q 663 619 638 614 q 721 625 689 625 q 740 625 732 625 q 757 624 747 625 l 757 786 l -39 786 l -78 893 z "},"ॣ":{"ha":0,"x_min":-486,"x_max":50,"o":"m 4 -299 q -14 -290 -7 -294 q -21 -283 -21 -285 q -34 -293 -28 -283 q -40 -314 -40 -303 q -28 -336 -40 -326 q 7 -346 -15 -346 l 49 -346 l 35 -415 q -25 -409 8 -415 q -88 -387 -58 -403 q -138 -347 -118 -372 q -158 -285 -158 -322 q -143 -251 -158 -265 q -104 -228 -128 -237 q -151 -146 -151 -179 q -138 -112 -151 -131 q -118 -81 -125 -93 l -110 -65 q -100 -40 -104 -54 q -93 -11 -96 -25 q -87 13 -90 3 q -83 24 -85 22 q -99 8 -90 19 q -119 -22 -108 -4 q -140 -60 -129 -40 q -158 -101 -150 -81 l -283 -53 l -262 -24 q -328 22 -308 22 q -346 -51 -346 22 q -340 -95 -346 -78 q -325 -124 -335 -112 q -303 -142 -315 -135 q -279 -154 -292 -149 l -243 -171 l -297 -219 q -370 -197 -336 -211 q -430 -165 -404 -183 q -471 -122 -456 -146 q -486 -68 -486 -97 q -473 -6 -486 -36 q -437 47 -460 24 q -381 83 -414 69 q -310 96 -349 96 q -244 82 -274 96 q -193 51 -214 68 q -141 79 -169 68 q -74 90 -112 90 q -27 81 -47 90 q 7 56 -7 71 q 28 25 21 42 q 36 -6 36 8 q 24 -55 36 -29 q 1 -101 13 -81 q -6 -124 -1 -114 q -11 -149 -11 -135 q 3 -185 -11 -168 q 50 -225 18 -201 l 4 -299 z "},"ॢ":{"ha":0,"x_min":-486,"x_max":50,"o":"m -1 -307 q -110 -219 -68 -262 q -151 -146 -151 -175 q -140 -115 -151 -131 q -118 -81 -129 -100 q -102 -44 -108 -62 q -92 -12 -96 -26 q -87 13 -89 3 q -83 24 -85 22 q -99 8 -90 19 q -119 -22 -108 -4 q -140 -60 -129 -40 q -158 -101 -150 -81 l -283 -53 l -262 -24 q -328 22 -308 22 q -346 -51 -346 22 q -340 -95 -346 -78 q -325 -124 -335 -112 q -303 -142 -315 -135 q -279 -154 -292 -149 l -243 -171 l -297 -219 q -370 -197 -336 -211 q -430 -165 -404 -183 q -471 -122 -456 -146 q -486 -68 -486 -97 q -473 -6 -486 -36 q -437 47 -460 24 q -381 83 -414 69 q -310 96 -349 96 q -244 82 -274 96 q -193 51 -214 68 q -141 79 -169 68 q -74 90 -112 90 q -27 81 -47 90 q 7 56 -7 71 q 28 25 21 42 q 36 -6 36 8 q 24 -55 36 -29 q 1 -101 13 -81 q -6 -124 -1 -114 q -11 -149 -11 -135 q 3 -185 -11 -168 q 50 -225 18 -201 l -1 -307 z "},"म":{"ha":810,"x_min":-32,"x_max":840,"o":"m 190 524 q 192 570 192 546 q 193 618 193 594 q 190 713 193 667 q 181 786 188 758 l 11 786 l -32 893 l 807 893 l 840 786 l 690 786 l 690 -8 q 647 -4 674 -8 q 593 7 619 0 q 529 24 563 14 l 529 304 l 326 304 q 312 247 322 275 q 269 200 301 219 q 194 222 231 206 q 130 261 158 239 q 84 308 101 283 q 67 356 67 333 q 92 399 67 381 q 178 419 118 417 q 190 524 186 458 m 328 411 l 528 411 q 527 495 528 447 q 526 597 526 543 l 526 786 l 351 786 q 355 744 354 768 q 356 696 356 719 q 352 606 356 653 q 342 511 349 560 l 328 411 z "},"न":{"ha":721,"x_min":-35,"x_max":742,"o":"m 429 506 q 428 569 429 533 q 428 646 428 606 l 428 786 l 8 786 l -35 893 l 708 893 l 742 786 l 592 786 l 592 -8 q 548 -4 575 -8 q 494 7 521 0 q 431 24 464 14 l 431 397 l 282 397 q 267 340 278 368 q 231 294 257 313 q 153 317 190 300 q 86 356 115 333 q 39 403 57 378 q 21 451 21 429 q 49 497 21 479 q 146 514 78 514 q 185 511 161 514 q 229 506 210 508 l 429 506 z "},"ङ":{"ha":815,"x_min":-47,"x_max":832,"o":"m 206 317 q 101 420 135 368 q 65 517 67 472 l 65 522 q 152 647 65 600 q 410 694 239 694 l 447 694 l 453 694 l 460 694 l 460 783 l -6 783 l -47 893 l 817 893 l 832 790 q 774 788 807 789 q 706 785 746 786 q 617 783 665 783 l 617 651 q 618 575 617 614 l 550 578 q 444 585 496 581 q 351 590 393 590 q 269 578 300 590 q 238 533 238 567 q 267 451 238 494 q 326 456 297 454 q 383 458 356 458 q 513 444 454 458 q 612 403 571 431 q 676 336 653 376 q 699 244 699 296 q 664 113 699 164 q 580 33 629 63 q 475 -6 531 4 q 378 -17 419 -17 q 283 -8 325 -17 q 205 15 240 0 q 139 48 169 29 q 81 86 108 67 l 81 193 q 268 119 181 144 q 418 93 356 93 q 515 117 476 93 q 556 189 553 140 l 556 197 q 540 262 556 235 q 500 306 525 289 q 442 331 475 324 q 375 339 410 339 q 305 333 340 339 q 233 317 269 328 l 206 317 m 664 499 q 687 449 664 469 q 744 428 710 428 q 800 449 776 428 q 824 499 824 469 q 800 553 824 531 q 744 575 776 575 q 687 553 710 575 q 664 499 664 531 z "},"९":{"ha":782,"x_min":101,"x_max":688,"o":"m 688 175 q 656 75 688 126 q 558 -24 625 24 l 461 60 q 483 84 471 67 q 504 124 494 101 q 521 170 514 146 q 528 215 528 194 q 510 257 528 242 q 457 296 493 272 l 418 319 q 363 356 392 336 q 305 395 333 375 q 251 436 276 415 q 208 475 226 457 q 124 586 146 536 q 101 675 101 636 q 135 776 101 731 q 215 852 168 821 q 310 900 261 883 q 389 917 358 917 q 477 901 439 917 q 542 858 515 885 q 583 796 569 831 q 597 725 597 761 q 582 651 597 688 q 535 583 567 614 q 455 529 503 551 q 342 500 407 507 q 447 406 388 443 q 559 336 506 368 q 649 269 613 304 q 688 183 686 235 l 688 175 m 433 839 q 431 840 431 840 l 429 840 q 376 824 404 840 q 324 778 349 807 q 285 710 300 749 q 269 628 269 671 q 274 588 269 608 q 290 580 278 583 q 313 576 301 576 q 371 597 346 576 q 413 647 396 617 q 439 712 431 676 q 447 776 447 747 q 446 819 447 801 q 442 838 444 836 l 433 839 z "},"ण":{"ha":1050,"x_min":-112,"x_max":1075,"o":"m 361 164 q 262 189 315 164 q 163 258 208 214 q 87 366 117 303 q 57 507 57 429 l 57 786 l -72 786 l -112 893 l 1040 893 l 1075 786 l 922 786 l 922 -21 l 763 24 l 763 786 l 644 786 l 644 304 q 594 235 626 263 q 524 192 563 208 q 442 170 485 176 q 361 164 400 164 m 225 513 q 236 395 225 442 q 270 321 247 349 q 326 282 293 293 q 404 271 360 271 q 451 276 428 271 q 486 289 475 282 q 485 337 486 301 q 485 425 485 372 l 485 786 l 222 786 q 223 721 222 757 q 224 647 224 685 q 225 574 225 610 q 225 513 225 539 z "},"ऩ":{"ha":751,"x_min":-40,"x_max":778,"o":"m 463 506 q 462 569 463 533 q 461 646 461 606 l 461 786 l 0 786 l -40 893 l 742 893 l 778 786 l 626 786 l 626 -8 q 582 -4 610 -8 q 528 7 554 0 q 464 24 497 14 l 464 397 l 317 397 q 303 342 313 369 q 261 294 293 314 q 185 317 222 300 q 119 356 149 333 q 73 404 90 379 q 56 451 56 429 q 83 496 56 478 q 179 514 111 514 q 219 511 196 514 q 263 506 243 508 l 463 506 m 174 74 q 196 22 174 42 q 251 1 218 1 q 309 22 288 1 q 331 74 331 42 q 309 124 331 104 q 251 144 288 144 q 196 124 218 144 q 174 74 174 104 z "},"ञ":{"ha":1029,"x_min":-43,"x_max":1056,"o":"m 269 617 q 347 645 310 636 q 421 654 385 654 q 567 620 504 654 q 663 526 631 586 q 708 556 688 540 q 740 592 728 572 l 740 786 l -4 786 l -43 893 l 1021 893 l 1056 786 l 904 786 l 904 -8 q 860 -4 888 -8 q 807 7 833 0 q 743 24 776 14 l 743 440 q 713 420 728 429 q 690 406 697 411 q 662 293 690 344 q 586 205 633 242 q 476 147 539 168 q 346 126 414 126 q 228 149 279 126 q 140 210 176 172 q 79 299 103 249 q 43 406 56 350 l 136 522 l 167 460 q 207 382 185 421 q 256 312 229 343 q 315 260 282 281 q 388 238 347 239 l 401 238 q 507 274 474 238 q 540 361 540 310 q 533 427 540 396 q 511 482 526 458 q 472 520 496 506 q 413 535 447 535 q 369 528 397 535 q 292 507 340 522 l 269 617 z "},"ऑ":{"ha":1471,"x_min":44,"x_max":1476,"o":"m 458 796 q 452 831 458 817 q 433 849 446 846 q 376 824 410 844 q 306 777 342 804 q 239 719 271 750 q 188 661 207 688 l 89 783 q 167 850 121 821 q 267 897 207 875 q 410 918 326 918 q 492 912 453 918 q 561 890 531 906 q 610 848 592 875 q 628 779 628 821 q 606 688 628 739 q 538 582 583 638 q 576 542 553 567 q 621 489 600 517 q 672 507 646 496 q 722 531 697 518 q 765 560 746 544 q 796 592 785 575 q 794 687 796 639 q 793 786 793 735 l 663 786 l 624 893 l 1442 893 l 1476 786 l 1324 786 l 1324 -21 l 1167 24 l 1167 786 l 958 786 l 958 -21 l 799 24 l 799 435 q 742 401 771 414 q 685 381 713 388 q 696 321 696 343 q 668 206 696 258 q 592 116 640 154 q 481 56 544 78 q 347 35 418 35 q 229 58 281 35 q 140 119 178 81 q 79 208 103 158 q 44 313 56 258 l 138 431 q 191 326 164 378 q 249 233 218 274 q 313 168 279 193 q 388 143 347 143 q 502 177 463 143 q 542 269 542 211 q 513 372 542 315 q 426 485 485 429 q 377 456 407 472 q 307 419 347 440 l 249 522 q 331 579 293 544 q 398 652 369 614 q 442 728 426 690 q 458 796 458 767 m 975 1047 q 1010 1067 992 1047 q 1042 1115 1028 1086 q 1065 1178 1056 1144 q 1074 1240 1074 1211 l 1233 1190 q 1213 1120 1231 1157 q 1164 1053 1196 1083 q 1085 1001 1132 1022 q 975 978 1038 981 l 964 978 q 785 1033 851 978 q 700 1183 719 1088 l 857 1242 q 875 1164 863 1200 q 903 1102 888 1128 q 938 1062 919 1076 q 975 1047 957 1047 z "},"ॉ":{"ha":456,"x_min":-221,"x_max":460,"o":"m -28 893 l 424 893 l 460 786 l 306 786 l 306 644 l 306 219 q 307 -21 306 100 l 147 24 l 147 786 l 13 786 l -28 893 m 51 1047 q 86 1067 68 1047 q 119 1115 104 1086 q 142 1178 133 1144 q 153 1240 151 1211 l 313 1189 q 291 1119 308 1156 q 242 1051 274 1082 q 163 1000 210 1021 q 51 978 115 979 l 42 978 q -133 1033 -67 978 q -221 1183 -200 1088 l -64 1242 q -47 1164 -58 1200 q -19 1102 -35 1128 q 16 1062 -3 1076 q 51 1047 35 1047 z "},"ओ":{"ha":1469,"x_min":57,"x_max":1489,"o":"m 471 796 q 465 831 471 817 q 446 849 458 846 q 388 824 422 844 q 319 777 354 804 q 251 719 283 750 q 200 661 219 688 l 101 783 q 179 850 133 821 q 279 897 219 875 q 422 918 339 918 q 504 912 465 918 q 574 890 543 906 q 622 848 604 875 q 640 779 640 821 q 618 688 640 739 q 550 582 596 638 q 589 542 565 567 q 633 489 613 517 q 684 507 658 496 q 734 531 710 518 q 778 560 758 544 q 808 592 797 575 q 807 687 808 639 q 806 786 806 735 l 675 786 l 636 893 l 1207 893 q 1174 976 1196 935 q 1124 1051 1153 1018 q 1060 1106 1094 1085 q 989 1126 1025 1126 q 953 1123 986 1126 q 853 1096 919 1119 l 826 1207 q 881 1222 854 1215 q 931 1234 904 1229 q 982 1239 958 1239 l 1001 1239 q 1132 1195 1074 1229 q 1232 1113 1190 1161 q 1299 1006 1274 1064 q 1335 893 1325 949 l 1454 893 l 1489 786 l 1336 786 l 1336 -21 l 1179 24 l 1179 786 l 971 786 l 971 -21 l 811 24 l 811 435 q 754 401 783 414 q 697 381 725 388 q 708 321 708 343 q 681 206 708 258 q 605 116 653 154 q 494 56 557 78 q 360 35 431 35 q 242 58 293 35 q 153 119 190 81 q 92 208 115 158 q 57 313 68 258 l 150 431 q 203 326 176 378 q 261 233 231 274 q 326 168 292 193 q 400 143 360 143 q 515 177 475 143 q 554 269 554 211 q 526 372 554 315 q 439 485 497 429 q 390 456 419 472 q 319 419 360 440 l 261 522 q 344 579 306 544 q 410 652 382 614 q 455 728 439 690 q 471 796 471 767 z "},"ॳ":{"ha":1108,"x_min":56,"x_max":1122,"o":"m 469 796 q 463 831 469 817 q 444 849 457 846 q 387 824 421 844 q 317 777 353 804 q 250 719 282 750 q 199 661 218 688 l 100 783 q 178 850 132 821 q 277 897 218 875 q 419 918 336 918 q 502 912 463 918 q 572 890 542 906 q 621 848 603 875 q 639 779 639 821 q 617 688 639 739 q 549 582 594 638 q 588 542 564 567 q 631 489 611 517 q 681 507 656 496 q 731 531 707 518 q 775 560 756 544 q 807 592 794 575 q 806 687 807 639 q 804 786 804 735 l 674 786 l 633 893 l 807 893 l 807 1149 l 969 1117 l 969 893 l 1088 893 l 1122 786 l 969 786 l 969 -21 l 810 24 l 810 435 q 751 401 781 414 q 694 381 722 388 q 706 321 706 343 q 678 206 706 258 q 602 116 650 154 q 491 56 554 78 q 357 35 428 35 q 240 58 290 35 q 151 119 189 81 q 90 208 114 158 q 56 313 67 258 l 147 431 q 201 326 174 378 q 260 233 229 274 q 324 168 290 193 q 399 143 358 143 q 513 177 474 143 q 553 269 553 211 q 524 372 553 315 q 438 485 496 429 q 388 456 418 472 q 318 419 358 440 l 260 522 q 342 579 304 544 q 409 652 381 614 q 453 728 438 690 q 469 796 469 767 z "},"ऺ":{"ha":0,"x_min":-278,"x_max":-115,"o":"m -115 1115 l -115 878 l -278 878 l -278 1151 l -115 1115 z "},"ॐ":{"ha":1200,"x_min":56,"x_max":1156,"o":"m 996 375 q 910 439 967 439 q 817 419 871 439 q 697 363 763 399 q 706 321 706 339 q 678 206 706 258 q 602 116 650 154 q 491 56 554 78 q 357 35 428 35 q 240 58 290 35 q 151 119 189 81 q 90 208 114 158 q 56 313 67 258 l 153 436 l 176 376 q 219 295 196 336 q 269 220 242 254 q 328 165 296 186 q 399 143 361 143 q 513 177 474 143 q 553 269 553 211 q 527 373 553 318 q 439 485 501 428 q 388 456 419 472 q 318 419 357 439 l 260 522 q 342 579 304 544 q 409 651 381 614 q 453 726 438 689 q 469 794 469 764 q 464 831 469 815 q 446 849 458 846 q 388 823 422 843 q 317 776 353 803 q 250 718 282 749 q 199 661 218 688 l 100 783 q 176 850 131 821 q 276 897 215 875 q 419 918 336 918 l 425 918 q 591 882 543 914 q 639 779 639 850 q 617 689 639 739 q 549 583 594 639 q 592 535 565 565 q 640 476 619 506 q 756 527 696 508 q 872 546 815 546 q 973 529 924 546 q 1062 478 1022 513 q 1127 389 1101 443 q 1156 261 1153 335 l 1156 249 q 1144 176 1156 214 q 1101 107 1133 139 q 1013 54 1069 75 q 865 33 956 33 l 815 33 l 804 138 l 847 138 q 921 151 890 138 q 971 188 951 165 q 999 239 990 210 q 1008 299 1008 268 q 1005 338 1008 318 q 996 375 1001 357 m 839 926 q 873 946 856 926 q 905 994 890 965 q 928 1058 919 1024 q 938 1124 938 1093 l 1099 1068 q 1077 997 1094 1033 q 1027 929 1060 960 q 948 878 994 899 q 839 856 901 857 l 828 856 q 649 910 715 856 q 565 1061 583 965 l 719 1129 q 767 983 732 1039 q 839 926 803 926 m 754 1085 q 776 1135 754 1114 q 835 1157 799 1157 q 888 1135 867 1157 q 910 1085 910 1114 q 888 1031 910 1053 q 835 1010 867 1010 q 776 1031 799 1010 q 754 1085 754 1053 z "},"१":{"ha":626,"x_min":110,"x_max":596,"o":"m 563 4 l 526 4 q 415 35 478 4 q 293 125 351 65 q 194 274 235 185 q 149 481 153 364 l 246 500 q 293 481 285 481 q 313 492 304 481 q 328 522 322 503 q 337 565 333 540 q 340 615 340 589 q 234 638 278 621 q 163 676 190 654 q 122 726 135 699 q 110 781 110 753 q 124 832 110 807 q 164 876 138 857 q 228 907 190 896 q 315 918 267 918 l 333 918 q 400 897 368 915 q 455 851 432 879 q 492 788 478 822 q 506 721 506 754 q 449 487 506 564 q 292 394 392 410 q 338 293 310 343 q 399 203 365 243 q 474 140 433 164 q 556 115 514 115 l 596 115 l 563 4 m 271 842 q 269 841 269 842 q 267 840 268 840 q 260 801 260 836 q 279 742 260 774 q 333 694 299 710 q 321 749 328 722 q 306 796 314 775 q 288 829 297 817 q 271 842 279 842 z "},"ॴ":{"ha":1468,"x_min":56,"x_max":1488,"o":"m 469 796 q 463 831 469 817 q 444 849 457 846 q 387 824 421 844 q 317 777 353 804 q 250 719 282 750 q 199 661 218 688 l 100 783 q 178 850 132 821 q 278 897 218 875 q 421 918 338 918 q 503 912 464 918 q 572 890 542 906 q 621 848 603 875 q 639 779 639 821 q 617 688 639 739 q 549 582 594 638 q 588 542 564 567 q 632 489 611 517 q 683 507 657 496 q 733 531 708 518 q 776 560 757 544 q 807 592 796 575 q 806 687 807 639 q 804 786 804 735 l 674 786 l 635 893 l 1175 893 l 1175 1149 l 1336 1117 l 1336 893 l 1453 893 l 1488 786 l 1335 786 l 1335 -21 l 1178 24 l 1178 786 l 969 786 l 969 -21 l 810 24 l 810 435 q 753 401 782 414 q 696 381 724 388 q 707 321 707 343 q 679 206 707 258 q 603 116 651 154 q 492 56 556 78 q 358 35 429 35 q 240 58 292 35 q 151 119 189 81 q 90 208 114 158 q 56 313 67 258 l 149 431 q 202 326 175 378 q 260 233 229 274 q 324 168 290 193 q 399 143 358 143 q 513 177 474 143 q 553 269 553 211 q 524 372 553 315 q 438 485 496 429 q 388 456 418 472 q 318 419 358 440 l 260 522 q 342 579 304 544 q 409 652 381 614 q 453 728 438 690 q 469 796 469 767 z "},"ऻ":{"ha":406,"x_min":-46,"x_max":442,"o":"m -46 893 l 125 893 q 124 948 125 917 q 124 1011 124 979 l 124 1149 l 278 1117 q 282 1088 281 1113 q 285 1029 283 1063 q 286 959 286 996 q 286 893 286 922 l 406 893 l 442 786 l 286 786 l 286 278 q 288 -21 286 131 l 129 24 l 129 786 l -6 786 l -46 893 z "},"ऒ":{"ha":1465,"x_min":50,"x_max":1482,"o":"m 464 796 q 458 831 464 817 q 439 849 451 846 q 381 824 415 844 q 312 777 347 804 q 244 719 276 750 q 193 661 213 688 l 94 783 q 172 850 126 821 q 272 897 213 875 q 415 918 332 918 q 497 912 458 918 q 567 890 536 906 q 615 848 597 875 q 633 779 633 821 q 611 688 633 739 q 543 582 589 638 q 582 542 558 567 q 626 489 606 517 q 677 507 651 496 q 727 531 703 518 q 771 560 751 544 q 801 592 790 575 q 800 687 801 639 q 799 786 799 735 l 668 786 l 629 893 l 1200 893 q 1160 948 1189 931 q 1093 974 1132 965 q 1008 990 1054 983 q 917 1013 963 997 q 831 1061 872 1029 q 760 1153 790 1093 l 890 1257 q 940 1158 914 1194 q 995 1103 967 1122 q 1053 1077 1024 1085 q 1110 1065 1082 1069 q 1113 1065 1113 1065 q 1117 1064 1114 1064 q 1190 1049 1154 1058 q 1255 1022 1226 1040 q 1303 972 1283 1003 q 1329 893 1322 942 l 1447 893 l 1482 786 l 1329 786 l 1329 -21 l 1172 24 l 1172 786 l 964 786 l 964 -21 l 804 24 l 804 435 q 747 401 776 414 q 690 381 718 388 q 701 321 701 343 q 674 206 701 258 q 598 116 646 154 q 487 56 550 78 q 353 35 424 35 q 235 58 286 35 q 146 119 183 81 q 85 208 108 158 q 50 313 61 258 l 143 431 q 197 326 169 378 q 254 233 224 274 q 319 168 285 193 q 393 143 353 143 q 508 177 468 143 q 547 269 547 211 q 519 372 547 315 q 432 485 490 429 q 383 456 413 472 q 313 419 353 440 l 254 522 q 337 579 299 544 q 403 652 375 614 q 448 728 432 690 q 464 796 464 767 z "},"ॊ":{"ha":413,"x_min":-276,"x_max":444,"o":"m -43 893 l 163 893 q 123 948 151 931 q 56 974 94 965 q -28 990 17 983 q -119 1013 -74 996 q -205 1061 -164 1029 q -276 1153 -246 1093 l -146 1257 q -96 1159 -122 1194 q -41 1105 -69 1124 q 17 1078 -12 1086 q 74 1067 46 1071 q 78 1066 76 1067 q 82 1065 79 1065 q 155 1049 119 1058 q 219 1022 190 1040 q 267 972 247 1003 q 293 893 286 942 l 408 893 l 444 786 l 290 786 l 290 644 l 290 219 q 292 -21 290 100 l 132 24 l 132 786 l -3 786 l -43 893 z "},"प":{"ha":842,"x_min":-75,"x_max":864,"o":"m 399 246 q 299 271 353 246 q 200 341 246 296 q 124 449 154 386 q 94 590 94 513 l 94 786 l -35 786 l -75 893 l 829 893 l 864 786 l 708 786 l 708 640 l 708 215 q 710 -21 708 99 l 546 24 l 546 267 q 474 251 513 256 q 399 246 435 246 m 260 786 l 260 594 q 272 478 260 524 q 306 404 283 432 q 363 365 329 376 q 442 354 397 354 q 503 363 474 354 q 550 385 533 372 q 547 510 549 449 q 545 624 546 571 q 544 718 544 676 q 544 786 544 760 l 260 786 z "},"क़":{"ha":1117,"x_min":-149,"x_max":1124,"o":"m 924 496 q 843 557 899 557 q 747 537 801 557 q 632 481 692 517 q 633 304 633 393 q 635 143 633 215 q 636 -21 635 58 l 472 25 l 472 190 q 403 174 440 179 q 328 168 367 168 q 230 183 278 168 q 144 227 182 197 q 81 303 106 257 q 51 413 56 349 q 73 508 53 463 q 128 588 93 554 q 213 643 164 622 q 319 664 261 664 q 394 658 357 664 q 471 633 432 651 q 470 663 471 649 q 469 692 469 678 q 470 742 469 719 q 471 783 471 765 q 322 783 393 783 q 182 783 251 783 q 41 784 113 783 q -110 786 -31 785 l -149 893 l 1110 893 l 1124 790 q 979 786 1057 788 q 824 784 913 785 q 635 783 735 783 l 635 631 q 718 656 675 647 q 801 665 761 665 q 905 649 856 665 q 992 597 954 632 q 1056 509 1031 563 q 1086 381 1081 456 l 1086 365 q 1074 294 1086 332 q 1031 226 1063 257 q 943 176 999 196 q 799 156 888 156 l 744 156 l 736 260 l 782 260 q 853 273 824 260 q 901 308 882 286 q 930 358 921 329 q 939 417 939 386 q 935 459 939 439 q 924 496 932 479 m 174 413 q 187 377 174 397 q 224 338 200 357 q 280 305 247 318 q 350 292 313 292 q 472 332 410 292 l 472 513 q 417 535 449 526 q 356 543 385 543 q 285 531 318 543 q 226 501 251 519 q 188 458 201 482 q 174 413 174 435 m 106 -49 q 129 -100 106 -81 q 185 -119 153 -119 q 242 -100 218 -119 q 267 -49 267 -81 q 242 3 267 -17 q 185 24 218 24 q 129 3 153 24 q 106 -49 106 -17 z "},"ढ़":{"ha":782,"x_min":-71,"x_max":814,"o":"m 67 335 q 99 475 67 418 q 184 567 131 532 q 307 616 238 601 q 451 631 376 631 l 461 631 l 461 786 l -32 786 l -71 893 l 781 893 l 814 786 l 618 786 q 617 760 617 774 q 617 735 617 747 q 617 619 617 682 q 619 500 618 556 q 503 514 551 510 q 422 518 454 518 q 257 469 306 518 q 208 326 208 419 q 270 181 222 239 q 375 114 318 124 q 347 213 347 174 q 362 272 347 246 q 400 317 376 299 q 453 344 424 335 q 515 354 483 354 q 589 338 554 354 q 649 296 624 321 q 688 242 674 271 q 703 186 703 213 q 666 94 703 132 q 576 34 629 57 q 466 1 524 11 q 365 -8 408 -8 q 240 24 296 -8 q 146 105 185 56 q 87 215 107 154 q 67 335 67 276 m 488 175 q 496 132 488 150 q 543 178 524 153 q 563 232 563 203 q 560 260 563 249 q 551 272 558 271 q 523 261 535 272 q 503 235 511 250 q 492 203 496 219 q 488 175 488 186 m 382 -183 q 405 -234 382 -212 q 461 -256 428 -256 q 518 -234 496 -256 q 540 -183 540 -212 q 518 -131 540 -153 q 461 -108 496 -108 q 405 -131 428 -108 q 382 -183 382 -153 z "},"र":{"ha":517,"x_min":-96,"x_max":553,"o":"m 474 3 l 438 3 q 326 32 390 3 q 202 120 261 61 q 101 267 143 179 q 60 474 60 356 l 60 488 l 160 508 q 208 489 203 489 q 224 512 219 489 q 228 571 228 535 q 220 654 228 607 q 203 750 213 701 l 196 786 l -56 786 l -96 893 l 518 893 l 553 786 l 371 786 q 383 705 378 746 q 389 625 389 664 q 381 550 389 586 q 351 484 372 514 q 292 433 329 454 q 197 403 254 413 q 240 297 213 349 q 303 204 267 244 q 381 140 339 164 q 467 115 422 115 l 508 115 l 474 3 z "},"ऱ":{"ha":607,"x_min":-21,"x_max":626,"o":"m 549 3 l 513 3 q 441 16 481 3 q 359 56 401 29 q 276 121 317 82 q 204 212 236 160 q 153 330 172 264 q 133 474 133 396 l 133 488 l 235 508 q 258 497 246 506 q 282 489 271 489 q 297 512 293 489 q 301 571 301 535 q 292 654 301 607 q 276 750 283 701 l 271 786 l 18 786 l -21 893 l 593 893 l 626 786 l 446 786 q 458 705 453 746 q 464 625 464 664 q 455 550 464 586 q 424 484 446 514 q 365 433 403 454 q 271 403 328 413 q 314 297 286 349 q 377 204 342 244 q 455 140 413 164 q 542 115 497 115 l 583 115 l 549 3 m 90 74 q 114 22 90 42 q 172 1 138 1 q 227 22 204 1 q 250 74 250 42 q 227 124 250 104 q 172 144 204 144 q 114 124 138 144 q 90 74 90 104 z "},"ॠ":{"ha":1142,"x_min":-146,"x_max":1160,"o":"m 744 29 q 756 57 744 43 q 786 83 767 71 q 768 115 772 103 q 764 136 764 128 q 790 186 764 167 q 849 224 817 206 q 907 264 881 242 q 933 324 933 286 q 924 371 933 347 q 889 426 915 394 q 774 364 840 386 q 642 340 708 342 q 640 296 640 335 q 640 190 640 263 q 639 -19 639 117 l 474 24 l 474 253 q 406 223 446 240 q 322 188 367 206 q 230 153 276 169 q 142 125 183 136 q 117 140 131 128 q 93 166 104 151 q 73 194 82 181 q 60 215 64 208 q 57 219 57 218 q 250 285 163 253 q 324 313 288 299 q 392 341 361 328 q 447 367 424 354 q 478 389 469 379 q 477 402 478 396 q 476 415 476 408 q 433 476 461 449 q 370 522 404 503 q 301 551 336 540 q 238 561 267 561 q 178 544 217 561 q 79 490 140 526 l 39 586 q 134 647 79 628 q 251 665 189 665 q 369 647 311 665 q 475 592 428 628 q 474 617 475 604 q 474 642 474 629 l 474 786 l -107 786 l -146 893 l 1126 893 l 1160 786 l 639 786 l 639 442 q 651 438 640 439 q 674 436 663 436 q 735 453 703 436 q 799 499 768 471 q 733 578 733 543 l 733 583 q 803 638 753 615 q 913 661 854 661 q 939 660 921 661 q 976 655 957 658 q 1010 644 996 651 q 1025 628 1025 638 q 1007 564 1025 603 q 972 494 989 525 q 1011 453 993 475 q 1042 408 1029 431 q 1062 367 1054 386 q 1069 333 1069 347 q 1044 271 1069 300 q 990 217 1019 242 q 936 172 961 192 q 911 135 911 151 q 924 120 911 126 q 969 110 938 114 l 1024 100 l 1013 35 l 979 35 q 897 22 921 35 q 874 -6 874 10 q 890 -33 874 -21 q 935 -46 907 -46 q 978 -36 947 -46 q 1068 1 1010 -26 l 1049 -108 q 946 -126 994 -126 q 869 -117 906 -126 q 806 -87 833 -107 q 761 -39 778 -68 q 744 29 744 -10 z "},"ऋ":{"ha":1147,"x_min":-144,"x_max":1161,"o":"m 82 492 q 60 541 74 511 q 40 586 46 571 q 89 625 63 610 q 143 649 115 640 q 199 662 171 658 q 253 665 228 665 q 371 647 313 665 q 476 592 429 628 q 476 617 476 604 q 475 642 475 629 l 475 786 l -106 786 l -144 893 l 1128 893 l 1161 786 l 640 786 l 640 443 q 675 436 665 436 q 737 453 704 436 q 800 499 769 471 q 735 578 735 543 l 735 583 q 805 638 754 615 q 914 661 856 661 q 940 660 922 661 q 978 655 958 658 q 1012 644 997 651 q 1026 628 1026 638 q 1008 564 1026 603 q 974 494 990 525 q 1028 435 1004 467 q 1070 373 1053 404 q 1097 313 1088 342 q 1107 261 1107 283 q 1080 171 1107 211 q 1010 102 1053 131 q 915 58 967 74 q 811 42 863 42 q 781 43 797 42 q 749 47 765 44 l 740 151 l 774 151 q 841 158 808 151 q 899 180 874 165 q 939 218 924 194 q 954 274 954 242 q 939 345 954 306 q 890 426 924 385 q 776 364 842 386 q 643 340 710 342 q 642 296 642 335 q 641 189 642 263 q 640 -21 640 115 l 476 24 l 476 254 q 407 223 446 240 q 324 188 368 206 q 235 155 281 171 q 147 129 190 139 q 108 181 124 153 q 76 225 92 208 q 109 235 81 226 q 179 259 138 244 q 269 291 221 274 q 360 326 317 308 q 435 360 403 344 q 479 389 468 376 q 478 402 479 396 q 478 415 478 408 q 434 476 463 449 q 372 522 406 503 q 303 551 338 540 q 239 561 268 561 q 180 544 214 561 q 82 492 146 528 z "},"७":{"ha":836,"x_min":90,"x_max":778,"o":"m 583 832 q 661 815 629 832 q 715 772 693 799 q 749 712 738 746 q 768 642 761 678 q 776 573 775 607 q 778 513 778 539 q 759 297 778 385 q 708 151 740 208 q 635 60 676 93 q 550 13 594 28 q 461 -6 506 -3 q 379 -8 417 -8 q 256 31 310 -8 q 167 141 203 71 q 111 309 131 211 q 90 524 92 407 l 90 531 q 100 649 90 590 q 130 758 110 707 q 180 849 150 808 q 250 914 210 889 l 357 831 q 303 769 324 806 q 272 690 283 733 q 258 597 261 646 q 254 496 254 547 q 267 307 254 385 q 299 180 279 229 q 343 108 319 131 q 389 85 367 85 q 457 108 422 85 q 523 174 492 131 q 578 279 554 218 q 613 418 601 340 q 501 447 547 425 q 427 499 456 468 q 385 568 399 531 q 372 643 372 606 q 386 713 372 679 q 427 774 400 747 q 494 816 454 800 q 583 832 533 832 m 531 754 q 523 738 525 753 q 521 696 521 722 q 527 639 521 669 q 546 580 533 608 q 576 529 558 551 q 619 499 594 507 q 616 581 619 536 q 604 665 613 626 q 581 730 596 704 q 544 756 567 756 q 531 754 538 756 z "},"स":{"ha":836,"x_min":-110,"x_max":857,"o":"m 460 3 l 426 3 q 356 17 396 3 q 273 60 315 32 q 190 130 231 88 q 117 226 149 172 q 65 348 85 281 q 46 494 46 415 l 46 510 l 146 526 q 197 508 182 508 q 210 528 207 508 q 214 582 214 547 q 203 676 214 619 q 182 786 193 733 l -69 786 l -110 893 l 822 893 l 857 786 l 704 786 q 703 728 704 761 q 703 656 703 694 q 703 578 703 618 q 703 501 703 539 l 703 151 q 704 -21 703 63 l 544 24 l 544 394 q 463 381 504 385 q 382 376 422 376 q 273 385 324 376 q 186 408 222 393 q 231 302 203 354 q 294 208 258 250 q 371 141 329 167 q 456 115 413 115 l 496 115 l 460 3 m 375 633 q 364 556 375 594 q 321 485 353 518 q 376 469 349 475 q 432 464 404 464 q 490 472 460 464 q 547 496 521 481 q 543 640 544 569 q 542 786 542 711 l 358 786 q 359 781 358 783 q 360 775 360 778 q 371 704 367 739 q 375 633 375 669 z "},"श":{"ha":946,"x_min":44,"x_max":972,"o":"m 289 917 q 397 894 347 917 q 483 833 447 871 q 538 749 518 796 q 558 654 558 701 q 541 556 558 604 q 492 464 524 507 q 416 387 461 421 q 315 335 371 353 q 353 260 331 299 q 404 189 375 221 q 469 136 433 157 q 547 115 506 115 l 592 115 l 560 3 l 524 3 q 447 20 493 3 q 351 74 400 38 q 260 166 303 111 q 197 296 218 221 q 110 302 154 296 q 44 328 65 308 q 63 393 46 361 q 104 451 79 425 q 159 492 129 476 q 217 508 189 508 q 273 492 249 508 q 307 438 297 475 q 344 472 326 451 q 375 517 363 492 q 262 560 314 533 q 172 622 210 588 q 113 694 135 657 q 92 769 92 732 q 109 831 92 804 q 155 876 126 858 q 218 905 183 894 q 289 917 253 915 m 510 893 l 938 893 l 972 786 l 818 786 q 817 728 818 761 q 817 656 817 694 q 817 578 817 618 q 817 501 817 539 l 817 151 q 818 -21 817 63 l 658 24 l 658 786 l 553 786 l 510 893 m 393 638 q 378 733 393 694 q 340 794 363 771 q 292 828 318 818 q 246 840 267 839 q 255 813 251 839 q 271 752 258 788 q 310 677 283 717 q 392 608 338 638 q 393 624 393 617 q 393 638 393 631 z "},"६":{"ha":907,"x_min":122,"x_max":918,"o":"m 906 -87 l 899 -87 q 788 -72 840 -87 q 692 -26 735 -56 q 616 46 649 4 q 565 140 583 88 q 533 133 550 136 q 500 129 515 129 q 392 143 450 129 q 284 184 333 157 q 201 249 235 211 q 168 336 168 288 q 178 388 168 361 q 203 440 188 414 q 240 492 219 467 q 282 540 260 518 q 222 597 250 567 q 171 656 193 626 q 135 713 149 686 q 122 761 122 740 q 140 828 122 799 q 186 877 157 857 q 252 908 215 897 q 328 918 289 918 q 438 906 381 918 q 563 858 494 894 l 485 754 q 440 783 465 767 q 390 813 415 799 q 344 838 365 828 q 310 849 322 847 q 288 794 288 831 q 315 707 288 753 q 383 625 343 661 q 434 655 407 642 q 478 678 461 668 l 510 692 q 533 644 522 665 q 551 610 543 626 q 558 592 558 594 q 494 550 531 575 q 425 493 457 525 q 371 425 393 461 q 349 350 349 389 q 374 274 349 301 q 433 246 400 246 q 480 249 457 246 q 524 260 503 253 q 514 285 517 275 q 511 303 511 296 q 538 352 511 336 q 604 368 564 368 q 660 359 631 368 q 717 335 689 350 q 768 299 744 319 q 804 253 792 278 q 789 234 801 244 q 758 213 776 224 q 717 192 739 203 q 675 172 696 181 q 767 61 711 114 q 918 -25 824 8 l 906 -87 z "},"ष":{"ha":813,"x_min":-78,"x_max":831,"o":"m 367 246 q 266 271 319 246 q 167 341 213 296 q 91 449 121 386 q 61 590 61 513 l 61 786 l -37 786 l -78 893 l 797 893 l 831 786 l 675 786 l 675 640 l 675 215 q 676 -21 675 99 l 514 24 l 514 267 q 439 251 478 256 q 367 246 400 246 m 228 585 q 240 472 228 517 q 276 401 253 428 q 332 365 299 375 q 408 354 365 354 q 510 378 460 354 l 225 697 q 227 622 226 643 q 228 585 228 600 m 318 786 q 370 724 347 750 q 415 672 393 697 q 460 618 436 646 q 514 553 483 590 q 513 583 514 576 q 513 610 513 590 l 513 786 l 318 786 z "},"त":{"ha":836,"x_min":-74,"x_max":844,"o":"m -74 893 l 828 893 l 844 790 q 811 788 831 789 q 769 785 794 786 q 710 785 744 785 l 710 638 l 710 214 q 711 -21 710 97 l 551 24 l 551 478 q 382 490 453 490 q 274 469 314 490 q 235 393 235 449 q 246 317 235 356 q 274 240 257 278 q 309 169 290 203 q 344 111 328 136 q 369 73 360 86 q 376 61 379 60 l 297 -32 q 268 5 289 -22 q 220 71 247 32 q 164 156 193 110 q 111 251 135 203 q 72 344 88 299 q 56 428 56 390 q 92 519 56 486 q 187 569 129 553 q 315 588 244 585 q 454 592 386 592 q 514 591 497 592 q 547 590 531 590 q 547 613 547 600 q 547 647 547 625 q 546 701 546 668 q 546 783 546 733 l -35 783 l -74 893 z "},"थ":{"ha":879,"x_min":39,"x_max":903,"o":"m 163 453 q 231 510 207 464 q 261 617 254 557 q 163 642 204 625 q 94 681 121 658 q 53 728 67 703 q 39 779 39 754 q 53 831 39 806 q 94 876 67 857 q 159 906 121 894 q 247 918 197 918 l 265 918 q 331 897 300 915 q 385 851 363 879 q 422 788 408 822 q 436 721 436 754 q 424 606 436 657 q 397 518 413 556 q 363 456 381 481 q 336 418 346 431 l 340 419 q 337 415 339 417 q 333 411 335 414 q 392 368 361 381 q 460 353 424 356 l 469 353 q 538 372 503 353 q 597 424 574 392 l 592 419 q 590 605 592 515 q 588 786 588 694 l 457 786 l 418 893 l 869 893 l 903 786 l 753 786 l 753 -8 q 708 -4 735 -8 q 656 7 682 0 q 593 24 625 14 l 593 281 q 512 255 556 264 q 428 246 468 246 l 418 246 q 346 256 386 246 q 266 290 306 265 q 192 353 226 314 q 136 453 157 393 l 163 453 m 200 842 q 190 803 190 842 q 209 745 190 775 q 263 699 228 715 q 253 752 258 726 q 239 798 247 778 q 221 830 231 818 q 200 842 211 842 z "},"३":{"ha":742,"x_min":35,"x_max":689,"o":"m 451 794 q 428 849 451 842 q 369 824 404 844 q 299 777 335 804 q 232 719 264 750 q 181 661 200 688 l 83 783 q 158 850 113 821 q 258 897 197 875 q 401 918 318 918 l 408 918 q 574 882 526 914 q 622 779 622 850 q 599 688 622 739 q 531 582 576 638 q 572 540 544 568 q 624 475 599 511 q 669 399 650 439 q 689 321 689 358 q 659 213 689 256 q 578 143 629 169 q 461 106 528 117 q 321 96 394 96 q 308 97 315 96 q 389 -2 339 44 q 518 -83 439 -49 l 503 -146 l 468 -146 q 396 -131 439 -146 q 309 -84 353 -115 q 227 -3 265 -53 q 171 114 189 46 l 165 114 q 90 119 126 114 q 35 147 54 125 q 51 203 36 175 q 88 254 65 232 q 137 290 110 276 q 189 304 164 304 l 200 304 q 253 280 232 301 q 279 219 275 258 q 348 207 310 213 q 422 201 386 201 q 465 206 444 201 q 501 220 485 210 q 526 249 517 231 q 535 294 535 267 q 509 381 535 333 q 422 485 483 429 q 372 456 403 472 q 300 419 340 439 l 242 522 q 324 579 286 544 q 391 651 363 614 q 435 726 419 689 q 451 794 451 764 z "},"ट":{"ha":772,"x_min":-81,"x_max":785,"o":"m 60 276 q 58 293 58 285 q 58 311 58 301 q 90 450 58 394 q 174 539 121 506 q 297 587 228 572 q 442 601 367 601 l 453 601 l 453 783 l -39 783 l -81 893 l 772 893 l 785 790 q 739 788 764 789 q 685 785 717 786 q 611 785 653 785 q 610 742 610 765 q 610 693 610 719 l 610 471 q 490 486 538 482 q 413 490 442 490 q 249 442 297 490 q 200 303 200 394 l 200 285 q 225 223 207 253 q 268 169 243 193 q 322 129 293 144 q 382 113 351 114 l 394 113 q 514 133 438 113 q 700 206 590 153 l 682 97 q 592 42 638 63 q 503 10 546 21 q 422 -5 460 -1 q 357 -8 385 -8 q 237 20 290 -8 q 145 92 183 49 q 85 185 107 135 q 60 278 63 235 l 60 276 z "},"ठ":{"ha":965,"x_min":-42,"x_max":1032,"o":"m 904 278 q 864 150 900 204 q 772 59 828 96 q 645 4 715 22 q 500 -14 575 -14 q 349 8 422 -14 q 220 73 276 31 q 130 176 164 115 q 96 317 96 238 q 179 518 96 450 q 421 597 263 586 q 420 644 421 621 q 419 692 419 668 l 419 783 l -3 783 l -42 893 l 1000 893 l 1032 786 l 579 786 l 579 599 q 729 567 667 592 q 831 503 792 542 q 888 413 869 464 q 906 303 906 363 q 905 297 906 300 q 904 290 904 293 l 904 278 m 478 488 q 385 481 429 488 q 308 456 342 475 q 256 403 275 438 q 236 313 236 368 q 259 226 236 264 q 319 164 282 189 q 404 126 357 139 q 500 113 451 113 q 588 125 544 113 q 668 160 632 138 q 729 215 704 183 q 763 285 754 246 q 741 388 761 349 q 686 449 721 428 q 603 478 651 471 q 500 488 556 486 l 478 488 z "},"२":{"ha":706,"x_min":90,"x_max":650,"o":"m 347 917 q 456 894 407 917 q 541 833 506 871 q 597 749 576 796 q 617 654 617 701 q 599 555 617 604 q 551 463 582 506 q 474 385 519 419 q 375 332 429 350 q 413 259 390 297 q 464 189 435 221 q 528 136 493 157 q 606 115 564 115 l 650 115 l 617 3 l 582 3 q 505 20 551 3 q 410 74 458 38 q 319 166 361 111 q 256 296 276 221 l 254 296 q 168 302 213 296 q 103 328 124 308 q 121 393 104 361 q 163 451 138 425 q 217 492 188 476 q 275 508 247 508 q 331 492 307 508 q 367 438 356 476 q 429 516 407 465 q 451 638 451 567 l 451 649 q 428 778 451 739 q 369 818 406 818 q 286 780 336 818 q 183 676 236 742 l 90 796 q 142 849 113 826 q 206 885 172 871 q 275 907 239 900 q 346 917 311 914 l 347 917 z "},"उ":{"ha":760,"x_min":-76,"x_max":785,"o":"m -76 893 l 749 893 l 785 786 l 597 786 q 609 753 604 771 q 614 724 614 735 q 589 650 614 690 q 528 572 564 610 q 572 524 546 553 q 622 461 599 496 q 663 390 646 426 q 679 321 679 354 q 651 206 679 258 q 574 116 622 154 q 463 56 526 78 q 331 35 400 35 q 213 58 264 35 q 124 119 161 81 q 63 208 86 158 q 28 313 39 258 l 126 436 l 150 376 q 192 295 169 336 q 242 220 215 254 q 301 165 269 186 q 371 143 333 143 q 485 177 446 143 q 525 269 525 211 q 498 374 525 318 q 413 485 471 429 q 380 466 399 476 q 339 444 361 456 l 292 419 l 233 522 q 316 566 278 544 q 382 613 354 588 q 426 667 410 638 q 442 739 442 697 q 431 786 442 775 l -33 786 l -76 893 z "},"ु":{"ha":0,"x_min":-637,"x_max":10,"o":"m -412 33 q -336 62 -374 53 q -262 71 -299 71 q -158 52 -207 71 q -71 2 -108 33 q -12 -72 -33 -29 q 10 -160 10 -114 q -23 -257 10 -212 q -107 -334 -56 -301 q -219 -385 -158 -367 q -337 -404 -281 -404 q -454 -381 -403 -404 q -542 -320 -506 -358 q -603 -231 -579 -282 q -637 -126 -626 -181 l -540 -8 q -487 -125 -515 -69 q -428 -222 -460 -181 q -361 -288 -397 -264 q -283 -312 -325 -312 q -176 -282 -210 -312 q -143 -196 -143 -251 q -151 -142 -143 -171 q -174 -90 -158 -114 q -213 -51 -189 -67 q -271 -35 -237 -35 q -317 -41 -286 -35 q -389 -60 -347 -47 l -412 33 z "},"ऊ":{"ha":971,"x_min":-90,"x_max":988,"o":"m 700 438 q 626 425 669 438 q 665 321 665 365 q 637 206 665 258 q 560 116 608 154 q 449 56 513 78 q 317 35 386 35 q 199 58 250 35 q 110 119 147 81 q 49 208 72 158 q 14 313 25 258 l 107 431 q 161 326 133 378 q 219 233 189 274 q 283 168 250 193 q 357 143 317 143 q 472 177 432 143 q 511 269 511 211 q 484 374 511 318 q 399 485 457 429 q 366 466 385 476 q 325 444 347 456 l 278 419 l 219 522 q 302 566 264 544 q 368 613 340 588 q 412 667 396 638 q 428 739 428 697 q 417 786 428 775 l -47 786 l -90 893 l 953 893 l 988 786 l 583 786 q 595 753 590 771 q 600 724 600 735 q 575 650 600 690 q 514 572 550 610 q 554 532 538 551 q 608 544 582 540 q 664 547 633 547 q 785 522 732 547 q 874 455 838 496 q 928 363 910 414 q 947 261 947 311 q 935 183 947 224 q 885 110 922 143 q 781 55 849 76 q 606 33 714 33 l 594 138 q 689 151 650 138 q 753 186 728 164 q 789 238 778 208 q 800 297 800 267 q 774 399 800 360 q 700 438 747 438 z "},"ॷ":{"ha":1114,"x_min":67,"x_max":1133,"o":"m 481 796 q 474 831 481 817 q 456 849 468 846 q 398 824 432 844 q 328 777 364 804 q 261 719 293 750 q 210 661 229 688 l 111 783 q 189 850 143 821 q 288 897 229 875 q 431 918 347 918 q 513 912 474 918 q 583 890 553 906 q 632 848 614 875 q 650 779 650 821 q 628 688 650 739 q 560 582 606 638 q 599 542 575 567 q 642 489 622 517 q 692 507 667 496 q 742 531 718 518 q 786 560 767 544 q 818 592 806 575 q 819 687 818 639 q 819 786 819 735 l 685 786 l 644 893 l 1099 893 l 1133 786 l 981 786 l 981 -21 l 821 24 l 821 438 q 761 400 789 414 q 706 379 733 386 q 717 321 717 346 q 689 206 717 258 q 613 116 661 154 q 502 56 565 78 q 368 35 439 35 q 251 58 301 35 q 163 119 200 81 q 101 208 125 158 q 67 313 78 258 l 158 431 q 213 326 185 378 q 271 233 240 274 q 335 168 301 193 q 410 143 369 143 q 524 177 485 143 q 564 269 564 211 q 535 372 564 315 q 449 485 507 429 q 399 456 429 472 q 329 419 369 440 l 271 522 q 353 579 315 544 q 420 652 392 614 q 465 728 449 690 q 481 796 481 767 m 968 -182 q 926 -260 958 -225 q 844 -318 893 -294 q 731 -355 794 -342 q 596 -368 668 -368 q 472 -358 531 -368 q 365 -325 413 -347 q 287 -269 318 -303 q 246 -189 256 -235 l 347 -147 q 394 -215 363 -187 q 462 -258 425 -242 q 536 -281 499 -274 q 603 -287 574 -287 q 673 -281 635 -287 q 747 -258 711 -274 q 814 -217 783 -243 q 861 -151 844 -190 l 968 -182 m 611 -179 q 652 -166 628 -179 q 699 -131 676 -153 q 738 -82 722 -110 q 754 -25 754 -54 l 872 -64 q 851 -130 868 -97 q 801 -188 833 -162 q 721 -231 768 -214 q 611 -249 674 -247 l 596 -249 q 424 -207 489 -249 q 340 -69 358 -165 l 454 -21 q 477 -95 458 -65 q 519 -144 496 -125 q 568 -171 543 -162 q 611 -179 593 -179 z "},"ू":{"ha":0,"x_min":-458,"x_max":189,"o":"m -36 -367 q -112 -395 -75 -386 q -186 -404 -150 -404 q -291 -385 -242 -404 q -378 -335 -340 -367 q -437 -262 -415 -304 q -458 -174 -458 -219 q -426 -76 -458 -121 q -342 1 -393 -32 q -229 52 -290 33 q -111 71 -168 71 q 6 48 -46 71 q 94 -13 57 25 q 154 -102 131 -51 q 189 -207 178 -153 l 92 -325 q 39 -208 67 -264 q -20 -111 11 -153 q -87 -45 -51 -69 q -165 -21 -124 -21 q -272 -51 -239 -21 q -306 -137 -306 -82 q -298 -191 -306 -162 q -275 -243 -290 -219 q -235 -283 -260 -267 q -178 -299 -211 -299 q -132 -292 -162 -299 q -60 -274 -101 -286 l -36 -367 z "},"व":{"ha":760,"x_min":-72,"x_max":782,"o":"m -72 893 l 749 893 l 782 786 l 613 786 l 613 -21 l 449 25 l 449 192 q 306 168 385 168 q 208 183 256 168 q 121 227 160 197 q 57 303 82 257 q 28 414 32 350 q 49 510 29 464 q 106 590 69 556 q 190 644 142 624 q 297 665 239 665 q 374 659 336 665 q 449 635 411 653 l 449 786 l -33 786 l -72 893 m 151 414 q 165 378 151 399 q 201 338 178 357 q 256 306 224 319 q 326 292 289 292 q 387 302 354 292 q 449 332 419 313 l 449 513 q 393 534 425 525 q 332 543 361 543 q 261 531 294 543 q 203 501 228 519 q 165 460 179 483 q 151 414 151 436 z "},"ः":{"ha":296,"x_min":86,"x_max":247,"o":"m 86 149 q 110 201 86 179 q 168 222 135 222 q 224 201 200 222 q 247 149 247 179 q 224 97 247 118 q 168 76 200 76 q 110 97 135 76 q 86 149 86 118 m 86 597 q 110 649 86 629 q 168 669 135 669 q 224 649 200 669 q 247 597 247 629 q 224 545 247 567 q 168 524 200 524 q 110 545 135 524 q 86 597 86 567 z "},"य":{"ha":824,"x_min":-43,"x_max":844,"o":"m -43 893 l 810 893 l 844 786 l 694 786 q 692 603 693 694 q 692 429 692 511 q 692 281 692 347 q 692 174 692 214 l 692 -21 l 535 24 l 535 279 q 453 254 497 263 q 368 246 408 246 q 250 269 301 246 q 159 328 199 292 q 90 410 119 365 q 42 501 61 456 q 97 542 71 518 q 144 597 124 567 q 176 663 164 626 q 189 739 189 699 q 186 769 189 758 q 179 786 183 781 l 0 786 l -43 893 m 360 724 q 322 594 360 661 q 206 463 283 528 q 288 378 239 404 q 390 351 338 351 q 471 369 432 351 q 533 421 510 388 q 534 606 533 517 q 535 786 535 694 l 344 786 q 356 753 351 769 q 360 724 360 738 z "},"ॹ":{"ha":1032,"x_min":-46,"x_max":1058,"o":"m 306 596 l 742 596 l 742 786 l -7 786 l -46 893 l 1024 893 l 1058 786 l 907 786 l 907 -8 q 862 -4 889 -8 q 808 7 835 0 q 744 24 778 14 l 744 489 l 635 489 q 666 424 653 458 q 681 364 679 390 l 681 356 q 652 242 681 293 q 575 153 624 190 q 463 95 526 115 q 331 75 400 75 q 215 98 265 75 q 126 159 164 121 q 65 247 89 197 q 28 353 40 297 l 125 467 l 156 406 q 196 329 174 368 q 244 258 218 290 q 303 206 271 226 q 374 183 335 185 l 383 183 q 489 219 450 183 q 528 313 528 254 q 508 399 528 353 q 447 489 488 444 l 350 489 l 306 596 m 272 -143 q 295 -195 272 -174 q 354 -217 318 -217 q 409 -195 386 -217 q 432 -143 432 -174 q 409 -92 432 -114 q 354 -71 386 -71 q 295 -92 318 -71 q 272 -143 272 -114 m 399 -10 q 422 -63 399 -42 q 478 -85 444 -85 q 534 -63 511 -85 q 557 -10 557 -42 q 534 41 557 19 q 478 63 511 63 q 422 41 444 63 q 399 -10 399 19 m 147 -10 q 171 -63 147 -42 q 226 -85 194 -85 q 284 -63 261 -85 q 307 -10 307 -42 q 284 41 307 19 q 226 63 261 63 q 171 41 194 63 q 147 -10 147 19 z "},"ज़":{"ha":1032,"x_min":-50,"x_max":1054,"o":"m 301 596 l 738 596 l 738 786 l -11 786 l -50 893 l 1019 893 l 1054 786 l 903 786 l 903 -8 q 858 -4 885 -8 q 804 7 831 0 q 740 24 774 14 l 740 489 l 631 489 q 663 420 649 456 q 676 356 676 385 q 648 242 676 293 q 571 153 619 190 q 459 95 522 115 q 326 75 396 75 q 210 98 261 75 q 122 159 160 121 q 60 247 85 197 q 24 353 36 297 l 121 467 l 151 406 q 196 324 172 364 q 247 253 219 283 q 308 203 275 222 q 383 185 342 185 q 487 220 450 185 q 524 313 524 256 q 503 399 524 353 q 443 489 483 444 l 346 489 l 301 596 m 221 -49 q 244 -100 221 -81 q 301 -119 268 -119 q 358 -100 335 -119 q 381 -49 381 -81 q 358 3 381 -17 q 301 24 335 24 q 244 3 268 24 q 221 -49 221 -17 z "},"य़":{"ha":824,"x_min":-143,"x_max":840,"o":"m -143 893 l 806 893 l 840 786 l 690 786 q 688 603 689 694 q 688 429 688 511 q 688 281 688 347 q 688 174 688 214 l 688 -21 l 531 24 l 531 279 q 449 254 493 263 q 363 246 404 246 q 245 269 297 246 q 153 328 193 292 q 85 410 114 365 q 38 501 57 456 q 93 542 67 518 q 140 597 119 567 q 172 663 160 626 q 185 739 185 699 q 174 786 185 775 l -100 786 l -143 893 m 356 724 q 317 594 356 661 q 201 463 278 528 q 283 378 233 404 q 385 351 333 351 q 466 369 426 351 q 529 419 506 386 q 530 605 529 515 q 531 786 531 694 l 340 786 q 351 753 347 769 q 356 724 356 738 m 146 74 q 169 22 146 42 q 224 1 192 1 q 283 22 260 1 q 306 74 306 42 q 283 124 306 104 q 224 144 260 144 q 169 124 192 144 q 146 74 146 104 z "},"ॺ":{"ha":836,"x_min":-128,"x_max":856,"o":"m -128 893 l 821 893 l 856 786 l 706 786 q 703 603 704 694 q 703 429 703 511 q 703 281 703 347 q 703 174 703 214 l 703 -21 l 546 24 l 546 279 q 464 254 508 263 q 378 246 419 246 q 260 269 313 246 q 169 328 208 292 q 101 410 129 365 q 53 501 72 456 q 108 542 82 518 q 155 597 135 567 q 188 663 175 626 q 200 739 200 699 q 189 786 200 775 l -85 786 l -128 893 m 344 613 q 294 538 326 578 q 219 463 261 499 q 301 378 251 404 q 400 351 350 351 q 467 364 433 351 q 529 400 501 376 q 480 456 501 431 q 437 506 458 482 q 393 556 415 531 q 344 613 371 582 m 540 786 l 364 786 q 408 732 388 757 q 451 681 429 707 q 494 628 472 656 q 542 569 517 601 l 540 786 z "},"०":{"ha":706,"x_min":60,"x_max":656,"o":"m 382 842 q 501 810 450 842 q 587 731 553 779 q 638 625 621 683 q 656 513 656 567 q 632 376 656 444 q 565 251 608 307 q 462 161 522 196 q 329 126 401 126 q 203 159 254 126 q 119 242 151 192 q 74 353 88 293 q 60 471 60 414 q 84 603 60 538 q 151 722 108 669 q 253 808 194 775 q 382 842 313 842 m 421 249 q 442 293 432 265 q 458 353 451 321 q 469 422 465 386 q 472 490 472 457 q 463 582 472 538 q 435 662 453 626 q 393 719 417 697 q 340 740 369 740 q 318 733 336 740 q 289 715 300 726 q 268 667 278 696 q 251 606 258 639 q 240 540 244 574 q 236 476 236 506 q 246 383 236 428 q 274 303 256 338 q 318 247 293 268 q 375 226 343 226 q 397 233 381 226 q 421 249 413 240 z "},"ॾ":{"ha":778,"x_min":-46,"x_max":810,"o":"m 207 317 q 102 420 136 368 q 67 517 68 472 l 67 522 q 153 647 67 600 q 411 694 240 694 l 449 694 l 454 694 l 460 694 l 460 783 l -4 783 l -46 893 l 778 893 l 810 786 l 618 786 l 618 653 q 619 575 618 615 l 551 578 q 446 585 497 581 q 353 590 394 590 q 270 578 301 590 q 239 533 239 567 q 246 494 239 515 q 268 451 253 474 q 327 456 299 454 q 383 458 356 458 q 513 444 454 458 q 613 403 571 431 q 677 336 654 376 q 700 244 700 296 q 665 113 700 164 q 581 33 631 63 q 476 -6 532 4 q 379 -17 421 -17 q 284 -8 326 -17 q 206 15 242 0 q 140 48 171 29 q 82 86 110 67 l 82 193 q 269 119 182 144 q 419 93 357 93 q 516 117 478 93 q 557 189 554 140 l 557 197 q 542 262 557 235 q 501 306 526 289 q 444 331 476 324 q 376 339 411 339 q 306 333 342 339 q 235 317 271 328 l 207 317 m 78 -89 l 660 -89 l 697 -196 l 117 -196 l 78 -89 z "},"ऌ":{"ha":1083,"x_min":-43,"x_max":1107,"o":"m -43 893 l 1072 893 l 1107 786 l 954 786 q 953 578 954 675 q 953 405 953 481 q 953 280 953 329 q 953 217 953 231 l 953 133 q 906 145 928 140 q 879 150 885 150 q 837 142 858 150 q 798 122 815 135 q 769 92 781 108 q 758 57 758 75 q 769 28 758 43 q 797 -1 779 13 q 837 -22 815 -14 q 882 -31 858 -31 q 889 -30 885 -31 q 901 -27 893 -29 q 923 -20 910 -25 q 960 -7 936 -15 l 965 -104 l 926 -114 q 890 -122 907 -118 q 843 -126 874 -126 q 693 -74 749 -126 q 638 63 638 -22 q 678 178 638 126 q 793 243 718 229 q 792 301 793 272 q 792 363 792 331 l 792 486 q 775 506 783 506 q 722 488 746 506 q 674 440 697 471 q 627 366 650 408 q 578 274 604 324 l 446 350 q 492 427 469 390 q 546 500 514 464 q 456 565 496 544 q 388 586 415 586 q 313 540 340 586 q 286 404 286 493 q 297 301 286 350 q 326 208 308 251 q 365 127 343 164 q 408 63 388 90 l 329 -35 l 278 32 q 226 102 253 64 q 177 183 200 140 q 140 271 154 225 q 125 364 125 317 q 148 486 125 428 q 213 589 171 544 q 313 659 254 633 q 440 685 371 685 q 557 657 503 685 q 651 596 611 629 q 700 617 675 611 q 757 622 725 622 q 776 622 767 622 q 792 621 785 622 l 792 786 l -4 786 l -43 893 z "},"ॿ":{"ha":814,"x_min":-117,"x_max":831,"o":"m -117 893 l 803 893 l 831 790 q 785 788 810 789 q 733 785 763 786 q 665 785 703 785 l 665 638 l 665 214 q 667 -21 665 97 l 507 24 l 507 193 q 435 175 472 181 q 361 169 397 169 q 263 183 311 169 q 176 227 215 197 q 113 303 138 257 q 83 414 88 350 q 105 510 85 464 q 160 590 125 556 q 245 644 196 624 q 353 665 294 665 q 427 659 390 665 q 503 635 464 653 l 503 783 l -78 783 l -117 893 m 83 -89 l 682 -89 l 717 -194 l 122 -194 l 83 -89 m 206 414 q 219 378 206 399 q 256 338 232 357 q 311 306 279 319 q 381 292 343 292 q 396 292 388 292 q 411 294 404 293 q 322 390 363 346 q 236 486 282 433 q 206 414 206 453 m 507 364 l 507 511 q 448 535 479 526 q 386 543 417 543 q 371 542 379 543 q 356 540 363 542 l 507 364 z "},"ॱ":{"ha":265,"x_min":50,"x_max":210,"o":"m 50 854 q 73 906 50 883 q 128 928 96 928 q 186 906 163 928 q 210 854 210 883 q 186 802 210 824 q 128 781 163 781 q 73 802 96 781 q 50 854 50 824 z "},"़":{"ha":0,"x_min":-882,"x_max":-721,"o":"m -882 -62 q -858 -10 -882 -31 q -803 10 -835 10 q -745 -10 -769 10 q -721 -62 -721 -31 q -745 -115 -721 -94 q -803 -135 -769 -135 q -858 -115 -835 -135 q -882 -62 -882 -94 z "},"॰":{"ha":638,"x_min":22,"x_max":604,"o":"m 139 844 q 231 886 176 869 q 333 903 286 903 q 448 883 399 903 q 531 835 497 864 q 583 770 565 806 q 604 704 601 735 q 579 601 604 651 q 512 512 554 551 q 411 449 469 472 q 286 425 353 425 q 192 440 239 425 q 107 483 144 454 q 46 555 69 513 q 22 651 22 597 q 51 752 22 706 q 139 844 81 799 m 375 510 q 395 540 386 521 q 410 583 404 560 q 418 630 415 606 q 421 675 421 654 q 407 732 417 704 q 382 782 397 760 q 346 818 367 804 q 300 832 325 832 q 253 817 272 832 q 221 779 233 803 q 202 725 208 756 q 196 661 196 694 q 205 601 196 631 q 231 548 214 571 q 271 511 247 525 q 322 497 294 497 q 375 510 347 497 z "},"्":{"ha":0,"x_min":-319,"x_max":14,"o":"m -211 58 q -42 -169 -97 -81 q 14 -271 14 -257 q 13 -272 14 -272 l -124 -272 q -155 -217 -129 -251 q -212 -146 -181 -182 q -274 -78 -243 -110 q -319 -32 -304 -47 l -211 58 z "},"ॎ":{"ha":414,"x_min":139,"x_max":453,"o":"m 415 894 l 453 786 l 297 786 l 297 278 q 299 -21 297 131 l 139 24 l 139 894 l 415 894 z "},"ॄ":{"ha":0,"x_min":-353,"x_max":-82,"o":"m -353 -239 q -335 -203 -353 -219 q -297 -174 -318 -187 q -334 -123 -315 -153 q -353 -57 -353 -93 q -333 -7 -353 -33 q -282 33 -314 19 q -240 44 -262 42 q -197 46 -217 46 l -142 42 q -127 17 -133 38 q -121 -51 -121 -4 q -189 -71 -168 -56 q -210 -101 -210 -86 q -203 -126 -210 -114 q -186 -142 -196 -137 l -179 -142 q -153 -137 -171 -142 q -96 -117 -136 -132 l -129 -231 q -189 -251 -169 -237 q -208 -282 -208 -265 q -187 -317 -208 -301 q -129 -332 -165 -332 l -82 -332 l -100 -425 q -178 -416 -135 -425 q -261 -385 -222 -407 q -326 -328 -300 -364 q -353 -239 -353 -293 z "},"ृ":{"ha":0,"x_min":-504,"x_max":-12,"o":"m -344 -181 q -312 -271 -344 -231 q -217 -311 -279 -311 q -149 -298 -192 -311 q -39 -253 -106 -285 l -12 -354 q -115 -402 -61 -386 q -221 -418 -168 -418 q -328 -402 -278 -418 q -419 -355 -379 -386 q -481 -279 -458 -324 q -504 -178 -504 -235 q -483 -90 -504 -129 q -424 -24 -461 -51 q -336 17 -386 3 q -231 32 -286 32 q -157 23 -194 32 q -79 -8 -119 14 l -101 -103 q -173 -81 -147 -87 q -212 -75 -199 -75 q -274 -87 -249 -75 q -314 -117 -299 -100 q -337 -153 -329 -135 q -344 -181 -344 -171 z "},"॓":{"ha":0,"x_min":-356,"x_max":-107,"o":"m -219 1244 q -164 1135 -186 1181 q -129 1060 -142 1090 q -112 1015 -117 1031 q -107 992 -107 999 q -144 976 -107 976 l -271 1004 q -281 1050 -272 1026 q -303 1097 -290 1074 q -329 1143 -315 1121 q -356 1182 -343 1165 l -219 1244 z "},"॑":{"ha":0,"x_min":-256,"x_max":-86,"o":"m -86 1226 q -98 1085 -89 1139 q -118 1002 -107 1032 q -142 962 -129 972 q -168 951 -156 951 l -256 1029 q -246 1069 -249 1044 q -243 1124 -243 1093 q -245 1176 -243 1147 q -250 1231 -247 1206 l -86 1226 z "},"ो":{"ha":410,"x_min":-218,"x_max":449,"o":"m -39 893 l 167 893 q 134 978 156 936 q 83 1053 113 1019 q 19 1106 54 1086 q -54 1126 -17 1126 q -91 1123 -57 1126 q -190 1096 -125 1119 l -218 1207 q -165 1222 -192 1215 q -114 1234 -142 1229 q -61 1239 -86 1239 l -43 1239 q 89 1197 31 1231 q 190 1115 147 1164 q 259 1007 233 1065 q 294 893 285 949 l 411 893 l 449 786 l 294 786 l 294 -21 l 135 24 l 135 786 l 0 786 l -39 893 z "},"ी":{"ha":419,"x_min":-242,"x_max":449,"o":"m -39 893 l 126 893 q 102 990 118 943 q 65 1074 86 1038 q 17 1134 43 1111 q -36 1157 -8 1157 q -65 1141 -57 1157 q -72 1096 -72 1125 q -58 1008 -72 1054 q -37 919 -44 961 l -199 893 q -230 984 -218 939 q -242 1071 -242 1029 q -231 1134 -242 1104 q -197 1185 -221 1164 q -135 1219 -174 1207 q -37 1232 -96 1232 l -31 1232 q 80 1206 29 1231 q 171 1135 131 1181 q 240 1028 211 1090 q 285 893 269 967 l 411 893 l 449 786 l 294 786 l 294 -21 l 135 24 l 135 786 l 0 786 l -39 893 z "},"ि":{"ha":413,"x_min":-39,"x_max":1072,"o":"m -39 893 l 132 893 q 120 935 125 914 q 115 974 115 957 q 150 1081 115 1036 q 238 1154 185 1125 q 354 1197 292 1183 q 474 1211 417 1211 q 547 1208 503 1211 q 645 1196 592 1206 q 757 1169 699 1186 q 872 1124 815 1153 q 981 1056 929 1096 q 1072 960 1033 1015 l 988 903 q 870 1007 942 967 q 725 1070 799 1047 q 588 1101 651 1093 q 496 1110 525 1110 q 417 1097 456 1110 q 348 1062 378 1085 q 300 1007 318 1039 q 282 935 282 975 q 286 893 282 910 l 413 893 l 449 786 l 294 786 l 294 -21 l 136 24 l 136 786 l 0 786 l -39 893 z "},"४":{"ha":982,"x_min":107,"x_max":879,"o":"m 207 936 l 292 851 q 385 758 332 810 q 488 649 438 707 q 619 781 550 717 q 747 901 689 844 l 783 936 l 879 822 q 728 691 810 764 q 578 535 647 618 q 678 366 636 451 q 719 208 719 281 q 706 121 719 161 q 665 51 692 81 q 597 6 638 22 q 501 -11 556 -11 q 399 9 444 -11 q 320 63 353 29 q 269 139 288 96 q 251 228 251 182 q 290 373 251 293 q 386 528 329 453 q 286 635 338 583 q 194 731 235 688 l 107 822 l 207 936 m 422 178 q 440 91 422 118 q 482 64 458 64 q 511 74 496 64 q 539 101 526 83 q 559 146 551 119 q 567 206 567 172 q 542 301 567 249 q 485 403 518 353 q 438 294 454 350 q 422 178 422 239 z "},"ऄ":{"ha":1111,"x_min":65,"x_max":1132,"o":"m 479 796 q 473 831 479 817 q 454 849 467 846 q 397 824 431 844 q 327 777 363 804 q 260 719 292 750 q 208 661 228 688 l 110 783 q 188 850 142 821 q 287 897 228 875 q 429 918 346 918 q 512 912 472 918 q 582 890 551 906 q 631 848 613 875 q 649 779 649 821 q 626 688 649 739 q 558 582 604 638 q 597 542 574 567 q 640 489 621 517 q 742 531 689 504 q 822 594 794 558 l 822 786 l 683 786 l 643 893 l 863 893 q 822 948 851 931 q 753 974 793 965 q 666 988 713 982 q 573 1010 619 994 q 483 1059 526 1026 q 410 1153 440 1092 l 540 1257 q 589 1159 563 1194 q 644 1105 615 1124 q 701 1078 672 1086 q 758 1067 731 1071 q 763 1066 761 1067 q 768 1065 765 1065 q 841 1049 806 1058 q 905 1022 876 1040 q 953 972 933 1003 q 979 893 972 942 l 1097 893 l 1132 786 l 979 786 l 979 -21 l 819 24 l 819 435 q 761 401 790 414 q 704 381 732 388 q 715 321 715 343 q 688 206 715 258 q 612 116 660 154 q 501 56 564 78 q 367 35 438 35 q 249 58 300 35 q 161 119 199 81 q 100 208 124 158 q 65 313 76 258 l 157 431 q 211 326 183 378 q 269 233 239 274 q 334 168 300 193 q 408 143 368 143 q 523 177 483 143 q 563 269 563 211 q 534 372 563 315 q 447 485 506 429 q 398 456 428 472 q 328 419 368 440 l 269 522 q 352 579 314 544 q 419 652 390 614 q 463 728 447 690 q 479 796 479 767 z "},"ौ":{"ha":408,"x_min":-215,"x_max":447,"o":"m -40 893 l 135 893 q 69 951 103 932 q 8 971 36 971 q -143 896 -40 971 l -203 1008 q -19 1072 -114 1072 q 83 1053 33 1072 q 17 1107 51 1088 q -53 1126 -17 1126 q -90 1123 -56 1126 q -189 1096 -124 1119 l -215 1207 q -161 1222 -187 1215 q -110 1234 -137 1229 q -60 1239 -83 1239 l -40 1239 q 90 1196 32 1231 q 190 1113 149 1161 q 258 1006 232 1064 q 293 893 285 949 l 410 893 l 447 786 l 293 786 l 293 -21 l 133 24 l 133 786 l -1 786 l -40 893 z "},"꣪":{"ha":0,"x_min":-383,"x_max":46,"o":"m -157 1208 q -164 1175 -157 1197 q -189 1133 -171 1153 q -178 1123 -183 1129 q -168 1113 -172 1117 q -153 1119 -162 1115 q -133 1128 -143 1124 q -116 1138 -124 1132 q -106 1147 -108 1143 l -106 1208 l -157 1208 m -312 1117 q -286 1133 -300 1122 q -261 1156 -272 1143 q -242 1181 -250 1168 q -235 1207 -235 1194 q -242 1226 -235 1217 q -282 1197 -258 1217 q -321 1158 -306 1176 l -365 1213 q -340 1239 -357 1226 q -301 1257 -325 1249 q -239 1265 -278 1265 q -208 1263 -218 1265 q -187 1257 -199 1261 l 32 1257 l 46 1208 l -37 1208 l -37 906 l -111 938 l -111 1071 l -140 1063 q -136 1033 -136 1046 q -147 990 -136 1008 q -176 958 -158 971 q -216 940 -193 946 q -262 935 -239 935 q -310 944 -289 935 q -345 968 -331 953 q -369 1003 -360 983 q -383 1043 -379 1022 l -335 1100 q -294 1017 -319 1051 q -247 982 -269 982 q -217 994 -233 982 q -201 1026 -201 1007 q -210 1061 -201 1043 q -231 1093 -219 1079 q -257 1081 -244 1086 q -285 1076 -269 1076 l -312 1117 z "},"ॏ":{"ha":408,"x_min":-275,"x_max":447,"o":"m -40 893 l 119 893 q 82 906 101 903 q 39 908 63 908 q -44 913 -1 908 q -128 933 -86 917 q -208 984 -169 950 q -275 1078 -246 1018 l -146 1181 q -95 1084 -122 1119 q -39 1029 -68 1049 q 19 1003 -10 1010 q 74 992 47 996 q 90 990 85 990 q 99 989 96 989 q 108 988 103 989 q 122 983 113 986 q 98 1003 110 994 q 72 1022 86 1013 q -1 1078 36 1047 q -60 1153 -39 1110 l 67 1256 q 106 1180 88 1210 q 139 1131 124 1150 q 166 1102 154 1113 q 189 1083 178 1092 q 226 1052 208 1068 q 258 1015 244 1036 q 279 964 271 993 q 289 893 288 935 l 411 893 l 447 786 l 293 786 l 293 644 l 293 219 q 294 -21 293 100 l 135 24 l 135 786 l 0 786 l -40 893 z "},"ꣷ":{"ha":690,"x_min":89,"x_max":624,"o":"m 357 78 q 389 79 372 78 q 419 85 406 81 q 442 97 433 89 q 451 117 451 104 q 427 156 451 135 q 367 199 403 176 q 288 244 331 221 q 210 294 246 268 q 149 348 174 319 q 125 407 125 376 q 155 475 125 450 q 226 511 185 500 q 314 525 268 522 q 392 528 360 528 l 407 528 q 438 527 421 528 q 469 526 454 526 q 503 525 486 525 l 538 436 l 269 436 q 265 434 268 436 q 261 425 261 432 q 293 376 261 403 q 369 322 325 350 l 389 310 q 456 262 422 286 q 515 214 489 238 q 558 166 542 190 q 575 118 575 142 q 551 62 575 86 q 492 21 528 38 q 415 -5 457 4 q 339 -14 374 -14 q 238 1 279 -14 q 170 40 197 15 q 127 97 143 65 q 101 165 111 129 l 179 247 l 203 204 q 233 158 218 181 q 267 118 249 136 q 306 90 285 100 q 357 78 328 79 m 364 661 q 399 681 382 661 q 431 728 417 700 q 453 791 444 757 q 463 854 463 825 l 624 803 q 601 733 619 769 q 551 665 583 696 q 473 614 519 635 q 364 592 426 593 l 354 592 q 176 647 242 592 q 89 799 110 701 l 247 856 q 264 777 251 813 q 292 716 276 742 q 327 676 308 690 q 364 661 346 661 m 278 819 q 301 870 278 849 q 360 892 324 892 q 415 870 392 892 q 438 819 438 849 q 415 767 438 789 q 360 744 392 744 q 301 767 324 744 q 278 819 278 789 z "},"ꣶ":{"ha":718,"x_min":108,"x_max":643,"o":"m 401 442 q 396 460 401 458 q 362 444 382 457 q 319 413 342 432 q 277 374 297 394 q 243 338 257 354 l 167 435 q 221 485 189 463 q 288 519 249 504 q 382 535 328 535 l 388 535 q 500 509 467 532 q 533 432 533 486 q 483 308 533 382 q 513 275 496 294 q 543 233 529 256 q 567 188 557 211 q 576 144 576 165 q 558 72 576 101 q 510 23 540 42 q 439 -4 479 4 q 353 -12 399 -12 q 402 -59 372 -36 q 472 -100 432 -82 l 457 -165 l 426 -165 q 381 -156 408 -165 q 324 -125 353 -146 q 270 -73 296 -104 q 231 1 244 -42 q 179 6 203 1 q 140 29 156 11 q 151 72 140 50 q 180 110 163 93 q 217 139 197 128 q 257 150 238 150 q 318 94 310 140 q 363 89 342 92 q 407 86 385 86 q 454 126 454 86 q 442 172 454 147 q 394 228 429 196 q 363 210 382 219 q 314 189 343 201 l 264 278 q 318 314 293 293 q 362 358 343 335 q 391 403 381 381 q 401 442 401 425 m 383 661 q 419 681 401 661 q 450 728 436 700 q 473 791 464 757 q 482 854 482 825 l 643 803 q 621 733 639 769 q 571 665 603 696 q 492 614 539 635 q 383 592 446 593 l 374 592 q 195 647 261 592 q 108 799 129 701 l 267 856 q 283 777 271 813 q 312 716 296 742 q 347 676 328 690 q 383 661 365 661 m 297 819 q 320 870 297 849 q 379 892 343 892 q 434 870 411 892 q 457 819 457 849 q 434 767 457 789 q 379 744 411 744 q 320 767 343 744 q 297 819 297 789 z "},"ꣵ":{"ha":706,"x_min":86,"x_max":621,"o":"m 356 531 q 435 515 399 531 q 499 472 472 499 q 540 412 525 446 q 554 343 554 378 q 510 213 554 275 q 386 121 465 150 q 416 79 400 100 q 451 42 432 58 q 493 16 471 26 q 540 6 515 6 l 582 6 l 550 -100 l 518 -100 q 465 -88 497 -100 q 398 -53 432 -76 q 333 8 364 -29 q 285 96 303 46 q 267 94 278 94 q 213 102 238 96 q 174 122 189 108 q 187 172 174 147 q 219 218 200 197 q 260 251 238 239 q 304 264 283 264 q 348 254 331 264 q 374 221 365 244 q 406 265 394 238 q 418 332 418 292 q 405 412 418 388 q 371 436 392 436 q 313 410 347 436 q 238 339 278 383 l 160 436 q 201 479 178 461 q 251 508 225 497 q 303 525 276 519 q 356 531 331 531 m 361 661 q 397 681 379 661 q 428 728 414 700 q 451 791 442 757 q 460 854 460 825 l 621 803 q 599 733 617 769 q 549 665 581 696 q 470 614 517 635 q 361 592 424 593 l 351 592 q 173 647 239 592 q 86 799 107 701 l 244 856 q 261 777 249 813 q 290 716 274 742 q 324 676 306 690 q 361 661 343 661 m 275 819 q 298 870 275 849 q 357 892 321 892 q 412 870 389 892 q 435 819 435 849 q 412 767 435 789 q 357 744 389 744 q 298 767 321 744 q 275 819 275 789 z "},"ꣳ":{"ha":718,"x_min":108,"x_max":643,"o":"m 383 661 q 419 681 401 661 q 450 728 436 700 q 473 791 464 757 q 482 854 482 825 l 643 803 q 621 733 639 769 q 571 665 603 696 q 492 614 539 635 q 383 592 446 593 l 374 592 q 195 647 261 592 q 108 799 129 701 l 267 856 q 283 777 271 813 q 312 716 296 742 q 347 676 328 690 q 383 661 365 661 m 389 493 q 560 266 504 354 q 615 164 615 178 q 614 163 615 163 l 478 163 q 445 218 471 183 q 388 289 419 253 q 327 356 357 325 q 282 403 297 388 l 389 493 m 297 819 q 320 870 297 849 q 379 892 343 892 q 434 870 411 892 q 457 819 457 849 q 434 767 457 789 q 379 744 411 744 q 320 767 343 744 q 297 819 297 789 z "},"◌":{"ha":903,"x_min":69,"x_max":850,"o":"m 140 483 q 106 496 121 483 q 92 525 92 508 q 106 553 92 540 q 140 565 121 565 q 174 553 160 565 q 188 525 188 540 q 174 496 188 508 q 140 483 160 483 m 329 32 q 294 44 308 32 q 279 74 279 56 q 294 101 279 89 q 329 113 308 113 q 361 101 347 113 q 375 74 375 89 q 361 44 375 56 q 329 32 347 32 m 211 106 q 177 118 192 106 q 163 149 163 131 q 177 176 163 164 q 211 188 192 188 q 244 176 231 188 q 258 149 258 164 q 244 118 258 131 q 211 106 231 106 m 140 228 q 106 240 121 228 q 92 269 92 251 q 106 297 92 285 q 140 310 121 310 q 174 297 160 310 q 188 269 188 285 q 174 240 188 251 q 140 228 160 228 m 756 408 q 770 439 756 426 q 804 451 785 451 q 837 439 824 451 q 850 408 850 426 q 837 381 850 393 q 804 369 824 369 q 770 381 785 369 q 756 408 756 393 m 735 272 q 749 302 735 290 q 782 314 763 314 q 815 302 801 314 q 829 272 829 290 q 815 245 829 257 q 782 233 801 233 q 749 245 763 233 q 735 272 735 257 m 663 151 q 677 181 663 168 q 711 193 692 193 q 744 181 731 193 q 758 151 758 168 q 744 124 758 136 q 711 111 731 111 q 677 124 692 111 q 663 151 663 136 m 546 76 q 560 106 546 94 q 594 118 574 118 q 628 106 614 118 q 642 76 642 94 q 628 49 642 61 q 594 36 614 36 q 560 49 574 36 q 546 76 546 61 m 596 688 q 561 700 575 689 q 547 731 547 711 q 561 758 547 746 q 596 769 575 769 q 628 758 615 769 q 642 731 642 746 q 628 700 642 713 q 596 688 615 688 m 328 699 q 292 711 307 699 q 278 739 278 724 q 292 767 278 754 q 328 779 307 779 q 360 767 346 779 q 374 739 374 754 q 360 711 374 724 q 328 699 346 699 m 719 606 q 685 618 699 606 q 671 649 671 631 q 685 676 671 664 q 719 688 699 688 q 752 676 739 688 q 765 649 765 664 q 752 618 765 631 q 719 606 739 606 m 210 615 q 176 628 190 615 q 161 658 161 640 q 176 686 161 674 q 210 699 190 699 q 243 686 229 699 q 257 658 257 674 q 243 628 257 640 q 210 615 229 615 m 781 483 q 747 496 761 483 q 732 525 732 508 q 747 553 732 540 q 781 565 761 565 q 814 553 800 565 q 828 525 828 540 q 814 496 828 508 q 781 483 800 483 m 119 354 q 84 367 99 354 q 69 396 69 379 q 84 424 69 411 q 119 436 99 436 q 151 424 138 436 q 165 396 165 411 q 151 367 165 379 q 119 354 138 354 m 411 36 q 425 67 411 54 q 460 79 439 79 q 492 67 478 79 q 506 36 506 54 q 492 9 506 21 q 460 -3 478 -3 q 425 9 439 -3 q 411 36 411 21 m 411 757 q 425 788 411 775 q 460 800 439 800 q 492 788 478 800 q 506 757 506 775 q 492 730 506 742 q 460 718 478 718 q 425 730 439 718 q 411 757 411 742 z "},"ꣴ":{"ha":732,"x_min":111,"x_max":646,"o":"m 386 661 q 422 681 404 661 q 453 728 439 700 q 476 791 467 757 q 485 854 485 825 l 646 803 q 624 733 642 769 q 574 665 606 696 q 495 614 542 635 q 386 592 449 593 l 376 592 q 198 647 264 592 q 111 799 132 701 l 269 856 q 286 777 274 813 q 315 716 299 742 q 349 676 331 690 q 386 661 368 661 m 386 293 q 422 313 404 293 q 453 360 439 332 q 476 423 467 389 q 485 486 485 457 l 646 436 q 624 365 642 401 q 574 297 606 328 q 495 246 542 267 q 386 224 449 225 l 376 224 q 199 278 265 224 q 111 429 132 333 l 269 488 q 286 410 274 446 q 315 348 299 374 q 349 308 331 322 q 386 293 368 293 m 390 131 q 561 -97 506 -8 q 617 -199 617 -185 q 615 -199 617 -199 q 599 -200 613 -200 q 558 -200 586 -200 q 479 -200 531 -200 q 447 -144 472 -179 q 390 -74 421 -110 q 328 -6 358 -37 q 283 40 299 25 l 390 131 m 300 453 q 323 502 300 481 q 382 524 346 524 q 437 502 414 524 q 460 453 460 481 q 437 399 460 421 q 382 378 414 378 q 323 399 346 378 q 300 453 300 421 m 300 819 q 323 870 300 849 q 382 892 346 892 q 437 870 414 892 q 460 819 460 849 q 437 767 460 789 q 382 744 414 744 q 323 767 346 744 q 300 819 300 789 z "},"꣨":{"ha":0,"x_min":-322,"x_max":-67,"o":"m -322 999 q -306 1047 -322 1019 q -264 1103 -289 1075 q -210 1160 -239 1132 q -155 1211 -181 1189 q -111 1247 -129 1233 q -90 1263 -93 1261 l -68 1221 q -109 1177 -85 1207 q -156 1113 -133 1147 q -195 1044 -179 1078 q -211 988 -211 1010 q -212 978 -211 978 q -184 1011 -201 981 q -140 1108 -167 1042 l -67 1026 q -106 960 -75 989 q -197 931 -137 931 q -291 951 -260 931 q -322 999 -322 971 z "},"꣥":{"ha":0,"x_min":-312,"x_max":-75,"o":"m -239 1060 q -292 1092 -271 1060 q -312 1165 -312 1125 q -295 1226 -312 1193 q -246 1278 -278 1258 l -200 1242 q -222 1201 -217 1231 q -228 1143 -228 1171 q -227 1107 -228 1122 q -225 1092 -226 1092 q -196 1115 -210 1092 q -222 1150 -222 1143 q -215 1163 -222 1158 q -197 1171 -207 1168 q -177 1174 -187 1174 q -160 1175 -167 1175 q -123 1169 -143 1175 q -89 1153 -103 1164 q -103 1133 -92 1143 q -121 1115 -114 1122 q -86 1067 -97 1089 q -75 1031 -75 1046 q -85 995 -75 1011 q -112 968 -96 979 q -150 951 -129 957 q -192 944 -171 944 q -236 953 -211 944 l -236 989 q -210 985 -217 986 q -200 985 -203 985 q -169 997 -182 985 q -156 1035 -156 1010 q -165 1078 -156 1057 q -203 1064 -183 1068 q -239 1060 -222 1060 z "},"꣤":{"ha":0,"x_min":-319,"x_max":-10,"o":"m -10 1225 q -63 1177 -37 1200 q -110 1126 -89 1154 q -72 1066 -87 1096 q -57 1015 -57 1036 q -84 960 -57 982 q -161 939 -111 939 q -243 965 -212 939 q -274 1022 -274 990 q -260 1069 -274 1042 q -225 1125 -247 1097 l -268 1171 q -298 1200 -285 1188 q -319 1225 -311 1213 l -265 1289 l -167 1190 q -153 1203 -161 1196 q -135 1221 -146 1210 q -109 1249 -125 1232 q -69 1294 -93 1267 l -10 1225 m -186 1019 q -168 979 -186 979 q -150 992 -160 979 q -140 1029 -140 1006 q -147 1061 -140 1044 q -165 1093 -154 1078 q -186 1019 -186 1061 z "},"ꣻ":{"ha":938,"x_min":65,"x_max":872,"o":"m 65 1111 l 835 1111 l 872 1004 l 108 1004 l 65 1111 z "},"꣬":{"ha":0,"x_min":-454,"x_max":49,"o":"m -111 976 l -124 1024 q -92 1041 -103 1025 q -82 1078 -82 1057 q -88 1110 -82 1101 q -94 1125 -94 1119 q -108 1119 -101 1122 q -123 1113 -115 1117 q -140 1103 -131 1110 l -140 899 l -246 935 l -246 983 q -252 983 -249 983 q -258 982 -256 982 q -315 985 -287 982 q -365 999 -343 989 q -400 1028 -386 1010 q -414 1079 -414 1047 q -378 1147 -414 1119 q -286 1174 -342 1174 q -267 1174 -276 1174 q -246 1171 -257 1174 l -246 1210 l -432 1210 l -454 1263 l 31 1263 l 49 1210 l -140 1210 l -140 1171 q -122 1174 -131 1174 q -106 1174 -114 1174 q -14 1142 -47 1174 q 26 1065 19 1111 l 26 1060 q 2 1008 26 1032 q -92 978 -22 983 l -111 976 m -311 1078 q -301 1051 -311 1067 q -275 1036 -290 1036 q -246 1053 -265 1036 l -246 1108 q -260 1117 -251 1113 q -272 1121 -268 1121 q -299 1107 -287 1121 q -311 1078 -311 1093 z "},"꣩":{"ha":0,"x_min":-329,"x_max":-65,"o":"m -65 1003 q -83 965 -65 988 q -142 919 -101 943 l -196 960 q -190 969 -193 961 q -183 986 -186 976 q -178 1006 -181 996 q -176 1019 -176 1015 q -192 1038 -176 1025 q -233 1069 -207 1051 q -284 1105 -265 1088 q -312 1136 -303 1122 q -326 1160 -322 1150 q -329 1176 -329 1171 q -314 1214 -329 1197 q -277 1242 -299 1231 q -234 1260 -256 1254 q -200 1267 -212 1267 q -123 1244 -150 1267 q -96 1194 -96 1222 q -119 1146 -96 1168 q -187 1114 -143 1124 q -139 1070 -161 1085 q -100 1046 -117 1056 q -74 1027 -83 1036 q -65 1003 -65 1018 m -193 1211 q -190 1228 -193 1219 q -215 1203 -206 1222 q -225 1151 -225 1183 q -224 1149 -225 1150 q -224 1147 -224 1149 q -201 1169 -208 1147 q -193 1211 -193 1192 z "},"अ":{"ha":1111,"x_min":65,"x_max":1132,"o":"m 479 796 q 473 831 479 817 q 454 849 467 846 q 397 824 431 844 q 327 777 363 804 q 260 719 292 750 q 208 661 228 688 l 110 783 q 188 850 142 821 q 287 897 228 875 q 429 918 346 918 q 512 912 472 918 q 582 890 551 906 q 631 848 613 875 q 649 779 649 821 q 626 688 649 739 q 558 582 604 638 q 597 542 574 567 q 640 489 621 517 q 691 507 665 496 q 741 531 717 518 q 785 560 765 544 q 817 592 804 575 q 815 687 817 639 q 814 786 814 735 l 683 786 l 643 893 l 1097 893 l 1132 786 l 979 786 l 979 -21 l 819 24 l 819 435 q 761 401 790 414 q 704 381 732 388 q 715 321 715 343 q 688 206 715 258 q 612 116 660 154 q 501 56 564 78 q 367 35 438 35 q 249 58 300 35 q 161 119 199 81 q 100 208 124 158 q 65 313 76 258 l 157 431 q 211 326 183 378 q 269 233 239 274 q 334 168 300 193 q 408 143 368 143 q 523 177 483 143 q 563 269 563 211 q 534 372 563 315 q 447 485 506 429 q 398 456 428 472 q 328 419 368 440 l 269 522 q 352 579 314 544 q 419 652 390 614 q 463 728 447 690 q 479 796 479 767 z "},"꣡":{"ha":0,"x_min":-296,"x_max":-65,"o":"m -79 935 q -151 946 -115 935 q -215 978 -186 957 q -261 1031 -243 999 q -281 1104 -279 1063 l -208 1115 q -191 1136 -193 1126 q -187 1156 -189 1146 q -271 1178 -246 1161 q -296 1214 -296 1194 q -269 1249 -296 1233 q -194 1264 -243 1264 l -185 1264 q -124 1239 -149 1261 q -99 1193 -99 1217 q -124 1111 -99 1139 q -199 1075 -150 1083 q -149 1003 -183 1031 q -65 975 -114 975 l -79 935 m -208 1233 q -218 1218 -218 1231 q -208 1193 -218 1206 q -176 1178 -199 1181 q -187 1217 -179 1200 q -208 1233 -196 1233 z "},"꣮":{"ha":0,"x_min":-422,"x_max":-22,"o":"m -222 1018 q -267 1027 -243 1018 q -312 1053 -292 1036 q -347 1093 -333 1069 q -361 1146 -361 1117 l -361 1210 l -407 1210 l -422 1257 l -36 1257 l -22 1210 l -79 1210 l -79 910 l -194 942 l -194 1019 q -208 1018 -201 1018 q -222 1018 -215 1018 m -244 1210 l -244 1147 q -235 1076 -244 1094 q -206 1058 -225 1058 q -196 1062 -201 1058 q -193 1069 -190 1065 l -193 1086 q -195 1160 -194 1128 q -196 1210 -196 1193 l -244 1210 z "},"꣸":{"ha":1026,"x_min":67,"x_max":1006,"o":"m 299 796 q 238 739 238 792 q 255 658 238 688 q 304 604 272 628 q 386 657 342 633 q 457 693 431 681 l 494 579 q 428 538 465 567 q 358 470 390 510 q 303 381 325 431 q 281 279 281 332 q 290 210 281 243 q 318 151 300 176 q 362 109 336 125 q 419 93 388 93 q 576 147 488 93 q 757 315 664 201 q 631 454 674 379 q 589 592 589 529 q 602 653 589 625 q 638 701 615 682 q 693 732 661 721 q 761 743 725 743 q 868 719 822 743 q 944 658 914 694 q 990 579 975 622 q 1006 497 1006 536 q 981 388 1006 446 q 894 250 943 319 q 785 124 846 181 q 651 31 725 67 q 488 -6 578 -6 q 339 11 408 -6 q 219 62 269 28 q 139 149 168 96 q 110 276 110 203 q 140 408 110 347 q 211 521 171 469 q 108 619 149 568 q 67 724 67 671 q 80 790 67 758 q 123 846 93 821 q 201 886 153 871 q 317 906 249 901 l 299 796 m 842 519 q 817 621 842 583 q 767 674 793 658 q 765 640 765 663 q 764 590 764 618 q 776 503 764 550 q 818 413 788 457 q 836 467 831 440 q 842 519 842 494 z "},"꣯":{"ha":0,"x_min":-333,"x_max":-67,"o":"m -94 925 l -121 925 q -167 938 -140 925 q -219 974 -194 951 q -260 1029 -243 997 q -276 1100 -276 1061 l -208 1115 l -226 1217 l -318 1217 l -333 1257 l -79 1257 l -67 1217 l -132 1217 q -131 1210 -132 1214 q -131 1204 -131 1207 q -126 1180 -128 1193 q -125 1156 -125 1167 q -141 1105 -125 1128 q -199 1074 -157 1082 q -158 1000 -186 1033 q -82 967 -131 967 l -94 925 z "},"꣧":{"ha":0,"x_min":-307,"x_max":-36,"o":"m -117 1238 q -73 1225 -89 1238 q -49 1194 -57 1213 q -38 1155 -40 1175 q -36 1121 -36 1135 q -52 1017 -36 1054 q -91 963 -68 981 q -142 942 -114 946 q -192 939 -169 939 q -275 991 -244 939 q -307 1128 -306 1043 q -288 1210 -307 1171 q -233 1268 -269 1249 l -192 1238 q -222 1187 -211 1222 q -233 1117 -233 1151 q -228 1049 -233 1076 q -216 1004 -224 1021 q -201 981 -208 988 q -187 974 -193 974 q -148 1003 -169 974 q -111 1090 -126 1033 q -185 1120 -164 1097 q -207 1168 -207 1143 q -184 1217 -207 1196 q -117 1238 -161 1238 m -126 1210 q -136 1190 -136 1206 q -126 1153 -136 1175 q -99 1121 -115 1131 q -99 1132 -99 1126 q -100 1146 -99 1138 q -108 1190 -103 1169 q -126 1210 -114 1210 z "},"꣦":{"ha":0,"x_min":-285,"x_max":4,"o":"m -3 932 q -89 951 -53 932 q -137 1004 -125 969 q -158 1001 -149 1001 q -194 1006 -175 1001 q -231 1019 -214 1011 q -258 1040 -247 1028 q -269 1069 -269 1053 q -258 1103 -269 1085 q -228 1138 -246 1121 q -267 1178 -250 1157 q -285 1210 -285 1199 q -259 1248 -285 1235 q -204 1261 -233 1261 q -162 1258 -183 1261 q -117 1242 -140 1254 l -146 1200 q -177 1221 -158 1208 q -203 1235 -196 1233 q -196 1196 -203 1211 q -182 1171 -189 1181 q -171 1177 -176 1174 q -161 1183 -165 1181 l -136 1196 q -126 1178 -132 1185 q -114 1158 -117 1161 q -135 1144 -124 1153 q -158 1125 -147 1136 q -175 1101 -168 1114 q -182 1075 -182 1089 q -168 1040 -182 1040 q -151 1046 -156 1040 q -157 1060 -157 1056 q -144 1076 -157 1071 q -112 1081 -131 1081 q -65 1069 -89 1081 q -33 1042 -42 1058 q -49 1035 -33 1043 q -79 1019 -64 1028 q -45 978 -64 996 q 4 950 -26 961 l -3 932 z "},"ꣲ":{"ha":711,"x_min":108,"x_max":643,"o":"m 383 661 q 419 681 401 661 q 450 728 436 700 q 473 791 464 757 q 482 854 482 825 l 643 803 q 621 733 639 769 q 571 665 603 696 q 492 614 539 635 q 383 592 446 593 l 374 592 q 195 647 261 592 q 108 799 129 701 l 267 856 q 283 777 271 813 q 312 716 296 742 q 347 676 328 690 q 383 661 365 661 m 297 819 q 320 870 297 849 q 379 892 343 892 q 434 870 411 892 q 457 819 457 849 q 434 767 457 789 q 379 744 411 744 q 320 767 343 744 q 297 819 297 789 z "},"꣣":{"ha":0,"x_min":-310,"x_max":-49,"o":"m -243 1133 q -194 1172 -212 1147 q -172 1217 -175 1197 q -203 1185 -186 1204 q -235 1147 -219 1167 l -292 1218 q -265 1240 -282 1231 q -228 1256 -250 1249 q -169 1264 -206 1264 q -135 1262 -153 1264 q -103 1255 -118 1260 q -79 1240 -89 1250 q -69 1217 -69 1231 q -78 1191 -69 1208 q -103 1154 -87 1174 q -68 1115 -87 1139 q -49 1078 -49 1092 q -83 1022 -49 1039 q -165 1003 -117 1006 q -100 950 -144 971 l -107 929 l -136 929 q -169 934 -150 929 q -208 948 -189 939 q -242 972 -226 957 q -265 1008 -258 988 q -290 1014 -278 1010 q -310 1025 -303 1018 q -301 1044 -310 1035 q -278 1060 -292 1053 q -249 1073 -265 1068 q -221 1078 -233 1078 q -191 1067 -203 1074 q -175 1049 -179 1061 q -157 1068 -157 1050 q -169 1108 -157 1090 q -189 1103 -178 1106 q -218 1094 -200 1100 l -243 1133 z "},"꣢":{"ha":0,"x_min":-293,"x_max":-40,"o":"m -178 1267 q -127 1258 -150 1267 q -87 1236 -104 1250 q -61 1205 -71 1222 q -51 1169 -51 1188 q -78 1106 -51 1138 q -140 1056 -104 1075 q -113 1008 -129 1031 q -75 985 -97 985 l -40 985 l -53 935 l -85 935 q -122 940 -100 935 q -167 956 -144 944 q -210 988 -190 968 q -237 1039 -229 1008 q -267 1044 -253 1040 q -292 1058 -281 1047 q -283 1081 -292 1069 q -262 1102 -275 1093 q -233 1117 -249 1111 q -203 1122 -217 1122 q -188 1122 -194 1122 q -175 1119 -182 1121 l -171 1138 q -169 1152 -169 1144 q -168 1164 -168 1160 l -168 1169 q -168 1211 -168 1199 q -169 1224 -168 1224 q -190 1202 -172 1224 q -235 1147 -207 1181 l -293 1219 q -242 1253 -274 1243 q -179 1267 -211 1264 l -178 1267 z "},"꣫":{"ha":0,"x_min":-378,"x_max":3,"o":"m -378 1265 l -12 1265 l 3 1217 l -68 1217 q -63 1206 -64 1208 q -62 1201 -62 1204 q -77 1169 -65 1179 q -104 1143 -89 1158 q -58 1092 -79 1119 q -37 1046 -37 1065 q -51 1002 -37 1022 q -86 967 -64 982 q -137 944 -108 953 q -200 936 -167 936 q -301 966 -267 936 q -343 1036 -336 996 l -281 1106 q -247 1039 -262 1064 q -219 1000 -232 1014 q -197 981 -207 986 q -183 976 -187 976 q -160 990 -168 976 q -151 1026 -151 1004 q -176 1097 -151 1065 l -187 1093 l -221 1076 l -247 1125 q -195 1158 -208 1140 q -181 1217 -182 1176 l -356 1217 l -378 1265 z "},"ॗ":{"ha":0,"x_min":-753,"x_max":-32,"o":"m -389 -179 q -350 -166 -372 -179 q -308 -131 -328 -153 q -274 -82 -287 -110 q -258 -25 -260 -54 l -126 -64 q -149 -130 -131 -97 q -199 -188 -167 -162 q -278 -231 -231 -214 q -389 -249 -325 -247 l -403 -249 q -576 -206 -510 -249 q -661 -69 -642 -164 l -529 -21 q -509 -95 -525 -65 q -472 -144 -493 -125 q -428 -171 -451 -162 q -389 -179 -406 -179 m -32 -182 q -74 -260 -42 -225 q -155 -318 -106 -294 q -268 -355 -204 -342 q -404 -368 -332 -368 q -528 -358 -469 -368 q -635 -325 -587 -347 q -712 -269 -682 -303 q -753 -189 -743 -235 l -637 -161 q -593 -226 -622 -201 q -530 -265 -564 -251 q -460 -283 -496 -278 q -396 -287 -425 -287 q -328 -283 -364 -287 q -258 -266 -292 -279 q -196 -228 -224 -253 q -151 -165 -168 -204 l -32 -182 z "},"ॖ":{"ha":0,"x_min":-661,"x_max":-126,"o":"m -389 -179 q -354 -164 -372 -179 q -322 -125 -336 -149 q -297 -71 -307 -101 q -286 -11 -287 -40 l -126 -64 q -149 -130 -131 -97 q -199 -188 -167 -162 q -278 -231 -231 -214 q -389 -249 -325 -247 l -403 -249 q -576 -206 -510 -249 q -661 -69 -642 -164 l -501 -7 q -458 -137 -492 -96 q -389 -179 -424 -179 z "},"꣰":{"ha":0,"x_min":-440,"x_max":56,"o":"m -251 1139 q -208 1164 -233 1154 q -150 1174 -182 1174 q -134 1173 -143 1174 q -117 1171 -125 1172 l -117 1210 l -251 1210 l -251 1139 m -254 1269 q -251 1257 -254 1268 l -61 1257 q -133 1320 -97 1301 q -187 1339 -168 1339 q -234 1319 -214 1339 q -254 1269 -254 1300 m -440 1257 l -367 1260 q -369 1271 -369 1268 q -369 1278 -369 1274 q -353 1326 -369 1306 q -310 1361 -336 1347 q -254 1382 -285 1375 q -197 1389 -224 1389 q -149 1384 -176 1389 q -94 1366 -122 1379 q -36 1330 -65 1353 q 18 1271 -7 1307 l -3 1257 l 42 1257 l 56 1210 l -7 1210 l -7 907 l -117 933 l -117 985 q -133 983 -124 983 q -149 983 -143 983 q -205 990 -178 983 q -251 1011 -232 996 l -251 908 l -368 933 q -366 966 -367 936 q -365 1039 -365 996 q -366 1135 -365 1088 q -368 1210 -367 1183 l -422 1210 l -440 1257 m -176 1078 q -166 1051 -176 1067 q -140 1035 -156 1035 q -117 1047 -132 1035 l -117 1110 q -126 1117 -119 1114 q -137 1119 -133 1119 q -165 1106 -153 1119 q -176 1078 -176 1092 z "},"꣺":{"ha":700,"x_min":56,"x_max":647,"o":"m 311 890 q 251 949 288 913 q 172 1033 219 981 q 56 1165 125 1085 l 160 1260 q 197 1208 172 1242 q 250 1138 222 1175 q 306 1067 278 1101 q 351 1014 333 1032 q 397 1065 369 1032 q 451 1136 424 1099 q 504 1208 479 1174 q 542 1260 529 1242 l 647 1165 q 522 1028 574 1082 q 436 942 469 974 q 385 899 403 911 q 360 888 367 888 l 338 888 q 326 889 332 888 l 311 890 z "},"꣠":{"ha":0,"x_min":-337,"x_max":-17,"o":"m -168 1239 q -103 1229 -131 1239 q -58 1204 -76 1219 q -28 1171 -39 1189 q -17 1136 -18 1153 l -17 1131 q -34 1075 -18 1100 q -74 1033 -50 1050 q -130 1006 -99 1015 q -192 996 -161 996 q -245 1003 -219 996 q -291 1024 -271 1010 q -324 1057 -311 1038 q -337 1101 -336 1076 l -337 1111 q -321 1164 -336 1140 q -281 1204 -306 1188 q -227 1230 -257 1221 q -168 1239 -197 1239 m -158 1044 q -147 1074 -151 1051 q -142 1121 -142 1097 q -155 1173 -142 1150 q -186 1196 -168 1196 q -194 1193 -187 1196 q -207 1188 -200 1190 q -214 1157 -210 1179 q -218 1108 -218 1135 q -203 1060 -215 1083 q -171 1038 -192 1038 q -158 1044 -168 1038 z "},"‌":{"ha":0,"x_min":-60,"x_max":69,"o":"m 43 1656 l 38 1656 q 53 1592 47 1656 q 63 1421 60 1528 q 68 1176 67 1314 q 69 888 69 1038 q 69 651 69 769 q 67 424 68 533 q 66 221 67 315 q 65 58 65 126 q 65 -45 65 -8 q 68 -83 65 -82 l -60 -44 l -60 1685 l 43 1656 z "},"‍":{"ha":0,"x_min":-199,"x_max":193,"o":"m 108 1828 q 146 1815 125 1824 q 182 1803 167 1807 q 128 1733 153 1764 q 88 1685 107 1707 q 67 1660 69 1663 l 193 1518 q 178 1514 193 1518 q 147 1505 164 1510 q 117 1497 131 1500 q 103 1493 103 1493 l 67 1510 l 67 1294 l 67 421 q 68 -83 67 171 l -60 -44 l -60 1508 l -108 1489 q -122 1493 -108 1489 q -151 1502 -135 1497 q -180 1511 -167 1507 q -194 1517 -193 1515 l -71 1663 l -199 1797 l -104 1829 l -1 1744 l 108 1828 z "},"꣹":{"ha":1108,"x_min":121,"x_max":1015,"o":"m 771 743 q 878 719 832 743 q 954 658 924 694 q 1000 579 985 622 q 1015 497 1015 536 q 990 388 1015 446 q 905 250 953 319 q 797 124 857 181 q 662 31 736 67 q 497 -6 588 -6 q 348 11 417 -6 q 228 63 279 28 q 149 151 178 97 q 121 278 121 204 q 144 392 121 339 q 201 489 167 444 q 278 569 236 533 q 360 630 321 604 q 428 672 399 656 q 469 693 458 688 q 496 643 483 665 q 514 608 506 624 q 522 590 522 592 q 444 540 485 571 q 369 469 403 510 q 313 381 335 429 q 290 279 290 333 q 300 210 290 243 q 328 151 310 176 q 372 109 346 125 q 429 93 397 93 q 585 147 497 93 q 767 315 674 201 q 641 454 683 379 q 599 592 599 529 q 648 702 599 661 q 771 743 697 743 m 851 519 q 827 621 851 583 q 776 674 803 658 q 774 640 775 663 q 774 590 774 618 q 785 503 774 550 q 828 413 797 457 q 846 467 840 440 q 851 519 851 494 z "},"₹":{"ha":869,"x_min":69,"x_max":853,"o":"m 679 3 l 647 3 q 478 51 550 3 q 360 171 407 100 q 289 322 313 242 q 265 465 265 401 l 265 488 l 351 506 q 409 511 378 506 q 470 526 440 517 q 527 551 500 536 q 572 582 554 565 l 163 582 l 124 689 l 579 689 q 519 746 557 725 q 449 776 481 767 l 415 786 l 108 786 l 69 893 l 765 893 l 799 786 l 644 786 q 681 738 664 763 q 704 689 697 713 l 819 689 l 853 582 l 704 582 q 663 523 692 551 q 593 470 633 494 q 503 428 553 446 q 403 403 454 411 q 442 296 417 347 q 503 204 468 244 q 578 140 538 164 q 663 115 618 115 q 676 116 667 115 q 715 122 685 117 l 679 3 z "},"a":{"ha":525,"x_min":24,"x_max":503,"o":"m 179 4 q 129 20 156 7 q 80 52 103 33 q 41 93 57 71 q 24 135 25 115 q 35 160 26 135 q 69 217 44 186 q 139 274 94 249 q 257 300 183 300 l 263 300 l 263 313 q 243 417 263 392 q 199 443 224 443 q 168 439 185 443 q 136 431 151 435 l 89 418 l 81 436 q 117 471 97 453 q 157 503 136 489 q 197 527 178 518 q 233 536 217 536 q 284 520 254 533 q 342 488 314 507 q 394 447 371 469 q 422 404 417 425 q 425 394 425 397 q 425 389 425 392 q 422 319 425 358 q 418 257 418 281 q 425 176 418 207 q 442 128 432 146 q 462 101 451 110 q 481 89 472 93 q 493 79 488 83 q 503 74 499 75 q 474 39 496 63 q 404 -14 453 15 q 338 26 368 4 q 290 69 307 49 q 232 23 261 42 q 179 4 203 4 m 288 129 q 275 151 281 138 q 267 189 269 165 q 264 228 264 207 q 263 250 264 250 q 251 252 256 251 q 240 253 246 253 q 213 249 225 253 q 193 239 201 244 q 176 226 183 233 q 184 190 178 210 q 200 155 190 171 q 222 128 210 139 q 247 118 233 118 q 259 121 250 118 q 288 129 268 124 z "},"b":{"ha":569,"x_min":64,"x_max":524,"o":"m 64 0 q 67 60 65 11 q 71 178 69 110 q 74 326 72 247 q 76 474 75 404 q 77 597 76 544 q 78 668 78 650 q 76 756 78 713 q 68 814 75 800 l 153 922 q 195 886 179 922 q 219 788 211 850 q 231 644 228 726 q 233 472 233 563 q 292 510 263 496 q 336 525 322 525 q 420 501 385 525 q 478 442 456 478 q 513 363 501 406 q 524 282 524 321 q 522 251 524 267 q 515 219 521 235 q 482 161 508 199 q 422 87 456 124 q 354 23 389 50 q 297 -4 319 -4 q 246 10 275 -4 q 192 40 217 24 l 175 4 l 64 0 m 254 393 q 243 381 249 390 q 232 358 238 371 l 232 236 q 278 147 249 185 q 340 108 308 108 q 382 128 351 108 q 387 165 385 143 q 389 213 389 186 q 381 283 389 247 q 358 345 372 318 q 326 390 344 372 q 286 407 307 407 q 254 393 279 407 z "},"c":{"ha":507,"x_min":29,"x_max":474,"o":"m 450 418 q 440 404 450 415 q 415 378 429 393 q 384 347 400 363 q 354 322 368 332 q 326 358 343 340 q 289 389 308 375 q 251 412 269 403 q 217 421 232 421 q 195 410 206 421 q 178 368 185 399 q 177 340 178 353 q 176 313 176 326 q 188 219 176 258 q 217 153 199 179 q 260 116 236 128 q 308 104 283 104 q 363 123 332 104 q 426 178 394 142 l 474 131 q 419 88 457 111 q 340 44 382 64 q 263 10 299 24 q 217 -4 228 -4 q 133 20 168 -4 q 74 81 97 44 q 40 163 51 118 q 29 247 29 207 q 38 310 29 278 q 69 367 43 329 q 128 442 94 404 q 198 507 163 479 q 258 535 233 535 l 269 535 q 315 518 286 532 q 374 486 344 504 q 425 449 403 468 q 450 418 447 431 z "},"d":{"ha":558,"x_min":38,"x_max":490,"o":"m 322 -7 q 321 -4 321 -8 q 322 19 321 3 q 325 47 324 35 q 276 13 301 28 q 224 -4 250 -1 q 140 19 175 -3 q 83 76 106 42 q 49 152 60 111 q 38 232 38 193 q 40 265 38 247 q 47 299 42 282 q 77 356 51 318 q 137 430 103 393 q 206 494 171 467 q 264 522 240 522 l 278 522 q 305 513 289 519 q 333 499 321 506 q 335 601 333 557 q 336 660 336 644 q 335 747 336 704 q 324 806 333 790 l 411 915 q 452 885 436 915 q 476 803 468 856 q 488 682 485 751 q 490 533 490 613 l 490 346 q 490 250 490 297 q 489 157 489 203 q 489 74 489 114 q 490 -4 489 33 l 322 -7 m 308 125 q 321 142 317 129 q 327 174 325 156 q 330 215 329 193 q 331 257 331 236 l 331 265 q 313 319 324 293 q 287 365 301 344 q 255 397 272 385 q 219 408 238 408 q 178 390 206 408 q 174 352 176 375 q 172 306 172 329 q 180 235 172 269 q 201 173 188 200 q 234 128 215 146 q 274 111 253 111 q 308 125 281 111 z "},"e":{"ha":515,"x_min":38,"x_max":481,"o":"m 390 268 q 351 249 376 257 q 298 235 326 240 q 240 226 269 229 q 189 224 211 224 q 238 128 204 157 q 307 100 271 100 q 366 121 332 100 q 436 181 400 142 l 481 131 q 427 88 465 111 q 348 44 389 64 q 271 10 307 24 q 224 -4 235 -4 q 140 19 175 -4 q 83 77 106 42 q 49 156 60 113 q 38 238 38 199 q 46 299 38 267 q 77 356 51 318 q 137 430 103 393 q 206 494 171 467 q 265 522 242 522 l 274 522 q 348 497 313 518 q 411 449 383 475 q 456 399 439 422 q 474 367 472 375 q 456 334 468 351 q 428 301 443 317 q 390 268 411 285 m 185 361 q 181 306 181 329 q 207 284 190 290 q 239 278 224 278 q 299 289 269 278 q 342 315 329 300 q 292 383 326 357 q 228 408 258 408 q 185 361 197 408 z "},"f":{"ha":451,"x_min":32,"x_max":510,"o":"m 306 683 q 333 703 321 692 q 354 726 346 715 q 367 746 363 738 q 374 757 372 754 q 328 790 351 776 q 285 804 304 803 q 286 778 286 792 q 286 749 286 764 q 283 638 286 696 q 281 528 281 581 l 453 528 l 442 471 l 278 471 l 278 -353 l 115 -353 l 115 467 l 32 467 l 44 528 l 117 528 q 117 569 117 546 q 118 617 118 593 q 119 665 118 642 q 119 706 119 688 q 131 735 119 715 q 160 777 142 754 q 202 825 179 800 q 249 870 225 850 q 297 903 274 890 q 336 915 319 915 q 376 905 351 915 q 425 878 400 894 q 473 840 450 861 q 510 800 496 819 q 490 771 508 792 q 447 727 472 750 q 390 683 421 704 q 332 649 358 661 l 306 683 z "},"g":{"ha":592,"x_min":25,"x_max":621,"o":"m 278 129 q 161 146 203 129 l 157 136 l 164 131 q 186 113 172 124 q 224 93 200 103 q 283 76 249 83 q 368 69 318 69 q 536 29 471 69 q 621 -85 601 -11 q 606 -123 621 -99 q 567 -176 590 -147 q 514 -235 543 -206 q 456 -290 485 -265 q 403 -333 428 -315 q 364 -354 378 -350 q 349 -357 358 -357 q 329 -357 340 -357 q 233 -337 285 -357 q 138 -285 182 -318 q 65 -208 94 -251 q 35 -119 35 -165 q 46 -94 35 -110 q 73 -62 57 -78 q 107 -31 89 -46 q 138 -8 125 -17 l 154 -3 q 106 15 129 3 q 66 44 83 28 q 38 76 49 60 q 25 106 26 92 l 25 111 q 49 148 25 128 q 108 186 74 168 q 71 247 79 217 q 63 310 63 278 l 63 342 q 94 393 63 361 q 169 455 125 425 q 258 506 213 485 q 331 528 303 528 q 438 515 396 528 q 506 481 481 503 q 541 430 531 458 q 551 369 551 401 q 549 342 551 357 q 546 313 547 326 q 512 262 543 293 q 438 201 481 231 q 350 151 394 172 q 278 129 306 129 m 201 -28 q 188 -86 188 -47 q 201 -140 188 -115 q 238 -182 215 -164 q 292 -210 261 -200 q 354 -221 322 -221 q 394 -216 374 -221 q 428 -200 414 -211 q 449 -132 449 -169 q 433 -81 449 -103 q 391 -44 417 -60 q 333 -22 365 -29 q 268 -14 300 -14 q 230 -17 249 -14 q 201 -28 211 -21 m 361 217 q 375 297 375 244 q 369 355 375 326 q 352 406 364 383 q 323 443 340 429 q 282 457 306 457 q 260 453 272 457 q 239 440 249 449 q 217 357 217 408 q 225 301 217 328 q 249 253 233 274 q 284 219 264 232 q 329 206 304 206 q 347 208 338 206 q 361 217 357 210 z "},"h":{"ha":596,"x_min":64,"x_max":546,"o":"m 64 0 q 67 60 65 11 q 71 178 69 110 q 74 326 72 247 q 76 474 75 404 q 77 597 76 544 q 78 668 78 650 q 76 756 78 713 q 68 814 75 800 l 153 922 q 194 893 178 922 q 218 813 210 864 q 229 693 226 761 q 232 547 232 625 l 232 497 q 283 520 256 511 q 339 529 310 529 q 397 516 363 529 q 465 480 432 503 q 521 427 497 457 q 546 364 544 397 q 544 307 544 336 q 543 251 543 282 q 543 189 543 219 q 544 143 543 172 q 544 84 544 114 q 545 31 544 54 q 546 0 546 7 l 376 0 q 381 44 379 15 q 385 103 383 72 q 387 163 386 135 q 388 208 388 192 q 364 351 388 290 q 289 426 340 411 l 269 426 q 244 424 256 426 q 232 414 232 421 l 232 199 q 232 97 232 146 q 233 3 232 47 l 64 0 z "},"i":{"ha":319,"x_min":75,"x_max":247,"o":"m 161 788 q 201 782 185 788 q 226 767 217 776 q 238 748 235 758 q 242 728 242 738 q 217 686 242 704 q 157 668 193 668 q 97 686 119 668 q 75 728 75 704 q 101 772 75 756 q 161 788 126 788 m 78 0 q 83 53 81 18 q 87 128 85 88 q 90 207 89 168 q 92 274 92 246 q 92 319 92 296 q 90 362 92 342 q 88 397 89 382 q 82 419 86 413 l 167 529 q 231 487 215 529 q 247 361 247 444 l 247 275 q 247 216 247 247 q 246 150 246 185 q 246 79 246 115 q 247 3 246 43 l 78 0 z "},"j":{"ha":358,"x_min":-125,"x_max":265,"o":"m -125 -243 q -115 -230 -124 -242 q -92 -203 -106 -218 q -62 -173 -78 -189 q -31 -146 -46 -157 q -5 -180 -22 -162 q 31 -212 13 -197 q 67 -235 50 -226 q 92 -244 85 -244 q 96 -243 96 -244 q 99 -162 97 -210 q 101 -63 100 -115 q 104 42 103 -11 q 106 142 106 96 q 108 224 107 189 q 108 274 108 258 q 108 319 108 296 q 107 362 108 342 q 104 397 106 382 q 99 419 103 413 q 147 482 131 460 q 172 515 164 504 l 183 529 q 224 510 208 529 q 249 456 240 490 q 262 373 258 421 q 265 268 265 325 q 265 188 265 226 q 264 112 264 150 q 263 32 264 74 q 263 -60 263 -10 q 263 -83 263 -71 q 264 -106 264 -94 l 264 -150 q 240 -199 264 -164 q 183 -269 217 -233 q 115 -331 150 -304 q 56 -358 79 -358 q 38 -357 40 -358 q 0 -340 26 -354 q -54 -309 -26 -326 q -103 -273 -82 -292 q -125 -243 -124 -254 m 178 788 q 217 782 201 788 q 242 767 233 776 q 255 748 251 758 q 258 728 258 738 q 234 686 258 704 q 174 668 210 668 q 114 686 136 668 q 92 728 92 704 q 117 772 92 756 q 178 788 143 788 z "},"k":{"ha":592,"x_min":53,"x_max":606,"o":"m 424 522 q 447 500 432 519 q 477 454 463 481 q 503 399 492 428 q 514 346 514 369 l 425 335 l 418 383 q 384 354 404 374 q 343 313 364 335 l 433 207 q 472 157 453 179 q 497 129 490 135 q 508 150 503 133 q 517 188 513 167 l 606 165 q 592 119 603 144 q 568 71 582 94 q 540 28 554 47 q 518 1 526 10 q 478 -11 499 -11 q 435 3 454 -11 q 392 44 415 17 q 338 115 368 72 q 263 214 307 157 q 240 186 251 200 q 221 158 228 172 q 221 78 221 118 q 222 3 221 38 l 53 3 q 56 63 54 14 q 60 179 58 111 q 63 326 61 247 q 65 474 64 404 q 66 597 65 544 q 67 668 67 650 q 65 756 67 713 q 57 814 64 800 l 142 922 q 184 890 168 922 q 208 803 200 858 q 219 674 217 747 q 221 518 221 601 l 221 365 q 334 479 286 436 q 410 522 382 522 l 424 522 z "},"l":{"ha":349,"x_min":92,"x_max":261,"o":"m 92 0 q 95 60 93 11 q 99 178 97 110 q 101 326 100 247 q 103 474 103 404 q 105 597 104 544 q 106 668 106 650 q 104 756 106 713 q 96 814 103 800 l 181 922 q 223 890 207 922 q 247 804 239 858 q 258 677 256 750 q 261 522 261 604 q 260 436 261 479 q 260 349 260 393 l 260 175 q 260 86 260 129 q 261 3 260 43 l 92 0 z "},"m":{"ha":933,"x_min":78,"x_max":869,"o":"m 78 0 q 83 53 81 18 q 87 128 85 88 q 90 207 89 168 q 92 274 92 246 q 92 319 92 296 q 90 362 92 342 q 88 397 89 382 q 82 419 86 413 l 167 529 q 239 483 228 529 q 289 516 263 503 q 346 529 315 529 q 386 523 364 529 q 430 506 408 517 q 472 483 451 496 q 507 458 492 471 q 576 507 536 485 q 663 529 615 529 q 721 516 686 529 q 788 480 756 503 q 844 427 821 457 q 869 364 868 397 q 868 307 868 336 q 867 251 867 282 q 867 189 867 219 q 867 143 867 172 q 868 84 868 114 q 869 31 868 54 q 869 0 869 7 l 700 0 q 705 44 703 15 q 708 103 707 72 q 710 163 710 135 q 711 208 711 192 q 688 350 711 289 q 613 426 665 411 l 593 426 q 565 422 578 426 q 547 411 551 418 q 558 349 556 388 q 560 269 560 310 l 560 189 q 560 142 560 171 q 560 83 560 113 q 560 29 560 53 q 561 0 561 6 l 390 0 q 395 44 393 15 q 399 103 397 72 q 401 163 400 135 q 401 208 401 192 q 399 288 401 250 q 385 355 396 326 q 353 401 374 383 q 294 421 332 418 q 265 414 278 421 q 246 396 251 407 l 246 169 q 246 90 246 131 q 247 3 246 49 l 78 0 z "},"n":{"ha":626,"x_min":75,"x_max":558,"o":"m 75 0 q 80 53 78 18 q 84 128 82 88 q 88 207 86 168 q 89 274 89 246 q 89 319 89 296 q 88 362 89 342 q 85 397 86 382 q 79 419 83 413 l 164 529 q 236 483 225 529 q 286 516 260 503 q 343 529 313 529 q 402 516 368 529 q 465 485 436 503 q 514 451 494 468 q 529 426 533 433 q 543 402 538 418 q 552 365 549 386 q 556 319 556 343 q 557 269 557 294 l 557 189 q 557 142 557 171 q 557 83 557 113 q 558 29 557 53 q 558 0 558 6 l 388 0 q 392 44 390 15 q 396 103 394 72 q 398 163 397 135 q 399 208 399 192 q 396 288 399 250 q 382 355 393 326 q 350 401 371 383 q 292 421 329 418 q 262 414 275 421 q 243 396 249 407 l 243 169 q 243 90 243 131 q 244 3 243 49 l 75 0 z "},"o":{"ha":561,"x_min":26,"x_max":513,"o":"m 338 96 q 350 186 350 131 q 342 270 350 228 q 321 346 335 313 q 287 401 307 379 q 240 422 267 422 q 222 417 232 422 q 200 401 211 413 q 181 303 181 367 q 190 222 181 261 q 217 150 200 182 q 258 99 235 118 q 308 79 281 79 q 324 83 315 79 q 338 96 333 88 m 247 -4 q 125 20 169 -4 q 58 84 81 44 q 31 174 36 124 q 26 275 26 224 q 56 341 26 300 q 128 422 86 382 q 214 490 169 461 q 288 518 258 518 q 398 500 354 518 q 467 451 442 482 q 502 381 492 421 q 513 299 513 342 q 511 267 513 283 q 508 238 510 251 q 476 172 506 213 q 404 92 446 131 q 319 24 363 53 q 247 -4 275 -4 z "},"p":{"ha":558,"x_min":63,"x_max":521,"o":"m 63 -354 q 66 -297 64 -343 q 69 -187 68 -251 q 72 -50 71 -124 q 73 90 72 24 q 74 206 74 156 q 75 274 75 256 q 75 319 75 296 q 74 362 75 342 q 71 397 72 382 q 65 419 69 413 l 150 529 q 218 461 203 529 q 284 507 250 489 q 333 525 318 525 q 417 501 382 525 q 476 442 453 478 q 510 363 499 406 q 521 282 521 321 q 519 251 521 267 q 513 219 518 235 q 478 161 506 199 q 417 87 451 124 q 344 23 382 50 q 281 -4 307 -4 q 254 3 267 -1 q 229 15 242 8 l 229 -215 q 229 -256 229 -239 q 229 -287 229 -272 q 230 -316 229 -301 q 231 -351 231 -331 l 63 -354 m 250 393 q 234 373 239 386 q 229 344 229 360 l 229 243 q 248 192 236 217 q 274 150 260 168 q 305 121 289 132 q 338 110 321 110 q 353 114 344 110 q 369 128 363 118 q 386 213 386 161 q 378 283 386 247 q 357 345 371 318 q 324 390 343 372 q 283 407 306 407 q 250 393 278 407 z "},"q":{"ha":540,"x_min":43,"x_max":576,"o":"m 503 518 q 499 462 501 507 q 496 354 497 417 q 493 219 494 292 q 490 83 492 147 q 488 -32 489 18 q 488 -99 488 -82 l 488 -143 q 488 -203 488 -175 q 492 -243 489 -231 l 529 -204 l 576 -251 q 537 -287 563 -269 q 483 -320 511 -306 q 429 -344 454 -335 q 392 -356 404 -354 q 357 -331 369 -356 q 339 -260 344 -306 q 333 -147 333 -214 q 332 3 332 -81 l 332 44 q 283 11 308 25 q 231 -4 257 -3 q 147 20 182 -3 q 88 78 111 43 q 54 156 65 114 q 43 238 43 199 q 51 299 43 267 q 83 356 57 318 q 142 430 108 393 q 212 494 176 467 q 272 522 247 522 l 285 522 q 328 505 304 517 q 375 478 351 493 l 392 514 l 503 518 m 317 125 q 327 140 324 128 q 333 164 331 151 l 333 218 q 334 246 333 232 q 335 275 335 260 q 316 326 328 301 q 290 368 304 350 q 260 397 276 386 q 226 408 243 408 q 210 404 219 408 q 194 390 201 400 q 183 351 186 374 q 179 306 179 329 q 187 235 179 269 q 208 173 194 200 q 241 128 222 146 q 281 111 260 111 q 317 125 286 111 z "},"r":{"ha":525,"x_min":85,"x_max":507,"o":"m 85 0 q 90 53 88 18 q 94 128 92 88 q 97 207 96 168 q 99 274 99 246 q 99 319 99 296 q 97 362 99 342 q 94 397 96 382 q 89 419 93 413 l 174 529 q 249 482 239 529 q 291 511 269 500 q 331 522 313 522 q 390 502 358 518 q 447 467 421 486 q 490 433 472 449 q 507 414 507 417 q 481 376 499 399 q 439 331 463 354 q 387 288 415 308 q 329 253 358 267 l 303 290 q 326 306 314 294 q 347 331 338 318 q 362 353 356 343 q 368 363 368 363 q 313 404 335 392 q 279 417 290 417 q 264 410 272 417 q 253 394 256 404 l 253 275 q 252 235 253 256 q 251 193 251 214 l 251 0 l 85 0 z "},"s":{"ha":528,"x_min":31,"x_max":506,"o":"m 38 74 q 33 92 35 83 q 31 111 31 100 q 38 161 31 131 q 64 228 44 192 l 143 206 q 141 196 142 201 q 140 181 140 190 q 152 139 140 156 q 182 111 164 122 q 222 95 200 100 q 263 90 243 90 q 301 103 283 90 q 325 147 318 115 q 258 211 304 186 q 165 255 213 236 q 81 288 117 274 q 44 318 44 301 q 78 375 50 339 q 142 447 106 411 q 216 508 178 482 q 282 535 254 535 q 338 522 307 531 q 394 503 368 513 q 438 485 421 493 q 456 475 456 476 l 456 460 q 445 388 456 428 q 421 321 435 347 l 342 350 q 344 374 344 358 q 335 406 344 392 q 314 431 326 421 q 288 445 301 440 q 264 450 274 450 q 235 435 249 450 q 211 385 221 421 q 233 372 211 383 q 288 344 254 361 q 358 307 321 326 q 429 267 396 288 q 484 231 463 247 q 506 204 506 214 q 468 149 500 185 q 395 79 436 114 q 313 19 354 44 q 246 -6 271 -6 l 235 -4 q 176 11 210 0 q 111 35 142 22 q 59 60 81 49 q 38 74 38 71 z "},"t":{"ha":449,"x_min":14,"x_max":435,"o":"m 26 528 l 93 528 l 93 664 l 271 664 q 270 657 271 661 q 268 646 269 653 l 254 528 l 435 528 l 422 468 l 249 468 q 242 369 244 422 q 239 269 239 315 q 242 203 239 233 q 248 149 244 172 q 255 112 251 125 q 261 99 258 99 q 275 106 265 99 q 296 124 285 114 q 318 145 307 135 q 336 163 329 156 l 364 190 l 410 144 q 348 81 383 108 q 277 34 313 53 q 213 6 242 15 q 174 -4 185 -4 q 123 13 142 -4 q 95 61 104 31 q 83 132 86 92 q 81 218 81 172 q 83 344 81 281 q 89 468 85 407 l 14 468 l 26 528 z "},"u":{"ha":563,"x_min":50,"x_max":506,"o":"m 497 521 q 492 467 494 501 q 490 392 490 432 q 488 315 489 353 q 488 251 488 276 q 489 191 488 229 q 492 113 490 153 q 498 42 494 74 q 506 1 501 10 q 440 -2 463 -1 q 406 -3 417 -3 q 392 -4 394 -4 q 390 -4 390 -4 q 355 10 367 -4 q 338 44 343 25 q 284 9 311 22 q 231 -4 257 -4 q 175 9 203 -4 q 124 39 147 22 q 85 72 100 56 q 71 97 71 89 q 56 158 60 113 q 53 254 53 204 l 53 332 q 53 377 53 351 q 53 428 53 403 q 52 472 53 453 q 50 499 51 492 l 218 508 q 212 442 214 481 q 210 368 210 404 q 210 303 210 332 q 208 267 210 275 q 208 246 208 258 q 207 225 207 233 q 210 178 207 200 q 221 139 213 156 q 244 113 229 122 q 286 101 260 103 q 308 111 293 101 q 332 133 322 121 l 332 217 q 333 280 332 246 q 333 351 333 314 q 333 420 333 385 q 332 496 333 456 l 497 521 z "},"v":{"ha":539,"x_min":-21,"x_max":517,"o":"m 250 -40 q 229 25 243 -17 q 199 112 215 67 q 167 199 183 157 q 140 265 150 242 q 103 351 119 314 q 76 399 86 388 q 64 377 71 392 q 50 346 57 363 l -21 389 q 8 432 -12 410 q 51 474 28 454 q 96 508 74 494 q 129 526 118 522 l 144 528 q 211 477 183 528 q 278 335 239 426 l 308 263 q 317 287 311 268 q 333 330 324 306 q 351 383 342 354 q 368 437 360 411 q 381 483 376 463 q 386 514 386 504 q 383 521 386 521 l 479 532 q 517 507 517 519 q 477 379 517 475 q 378 111 438 283 q 382 94 382 96 l 365 78 q 326 38 353 65 q 250 -40 299 10 z "},"w":{"ha":790,"x_min":-15,"x_max":768,"o":"m 524 -44 q 506 12 518 -24 q 481 87 494 47 q 453 165 468 126 q 428 233 439 204 q 406 174 417 206 q 382 106 394 143 q 385 101 383 103 q 388 97 386 100 l 253 -42 q 233 23 247 -19 q 203 111 219 65 q 171 200 188 157 q 144 268 154 243 q 110 345 126 308 q 82 397 93 382 q 58 344 72 385 l -15 389 q 15 434 -7 411 q 60 477 36 457 q 107 510 85 497 q 139 525 129 524 l 150 526 q 214 481 188 526 q 278 344 240 436 l 314 256 q 331 306 324 286 q 344 338 339 325 q 353 358 350 350 q 358 374 356 367 l 343 399 l 382 515 q 399 525 390 524 q 418 526 408 526 q 480 485 456 526 q 538 363 504 443 l 568 290 l 588 343 q 602 385 594 361 q 616 434 610 410 q 627 479 622 458 q 632 513 632 500 l 632 518 l 728 531 q 768 504 768 519 q 758 458 768 488 q 730 385 747 429 q 688 278 713 340 q 636 136 664 217 l 654 94 l 524 -44 z "},"x":{"ha":501,"x_min":-8,"x_max":483,"o":"m 290 4 q 268 58 285 26 q 233 122 251 89 l 215 156 q 188 115 203 138 q 161 71 174 93 q 140 30 149 49 q 131 0 132 11 l 15 0 q -3 13 1 8 q -8 19 -8 17 q 35 89 -8 35 q 161 260 79 143 q 128 308 146 282 q 92 358 110 335 q 61 399 75 382 q 40 419 47 415 l 75 522 q 92 533 85 532 q 111 535 100 535 q 181 492 143 535 q 264 372 219 449 q 290 414 276 392 q 315 456 304 436 q 332 493 325 476 q 339 519 339 510 l 457 519 q 483 497 483 500 q 469 473 483 494 q 431 419 454 451 q 379 347 408 388 q 322 267 350 307 l 458 4 l 290 4 z "},"y":{"ha":547,"x_min":-8,"x_max":557,"o":"m 68 -353 q 85 -315 75 -337 q 110 -261 96 -292 l 244 39 q 224 100 236 65 q 199 169 211 135 q 174 233 186 203 q 154 281 163 263 q 117 360 133 326 q 90 404 100 394 q 78 386 86 399 q 63 354 71 374 l -8 394 q 22 440 0 415 q 71 485 44 464 q 122 522 97 507 q 161 536 147 536 q 203 518 185 536 q 239 464 221 500 q 278 374 257 428 q 332 247 300 319 q 394 415 369 342 q 418 522 418 489 l 521 540 q 557 528 557 540 q 539 454 557 507 q 492 327 521 401 q 426 164 463 253 q 350 -16 389 75 q 275 -194 311 -107 q 213 -353 239 -282 l 68 -353 z "},"z":{"ha":535,"x_min":11,"x_max":525,"o":"m 279 446 q 256 451 267 450 q 236 453 244 453 q 191 437 208 453 q 164 399 174 421 q 150 351 154 376 q 146 307 146 325 l 146 300 l 76 300 q 38 356 58 325 q 17 417 17 388 q 40 449 17 429 q 94 488 64 469 q 156 519 125 506 q 200 532 186 532 q 253 524 228 532 q 303 508 278 517 q 356 492 329 500 q 411 485 382 485 q 457 494 438 485 q 496 511 476 504 l 501 414 l 457 414 q 383 288 438 375 q 251 67 328 200 q 394 82 321 72 q 525 92 468 92 l 485 -1 q 426 1 461 0 q 369 1 392 1 q 308 1 338 1 q 251 0 279 0 l 164 0 q 53 1 94 0 q 11 7 11 3 l 82 74 q 125 132 99 92 q 178 215 151 172 q 225 295 204 258 q 253 343 246 332 l 257 351 q 278 395 268 374 q 292 440 289 417 l 279 446 z "},"A":{"ha":810,"x_min":17,"x_max":774,"o":"m 585 -1 q 576 28 582 7 q 560 78 569 49 q 538 144 550 108 q 511 218 525 181 l 242 218 q 240 213 242 217 q 231 188 238 210 q 208 122 224 167 q 164 -8 193 76 l 17 1 q 53 97 32 39 q 101 224 75 154 q 153 369 126 293 q 207 518 181 444 q 256 658 233 592 q 297 775 279 725 q 289 788 292 786 q 285 790 286 790 l 335 903 q 344 907 339 906 q 358 911 356 910 q 420 867 388 911 q 488 753 453 824 q 557 592 522 682 q 626 407 592 501 l 696 217 q 736 104 717 158 q 774 6 756 50 l 585 -1 m 488 288 l 374 619 l 264 288 l 488 288 z "},"B":{"ha":753,"x_min":18,"x_max":696,"o":"m 18 903 q 42 902 28 903 q 72 901 57 901 q 103 900 88 900 q 129 900 118 900 q 282 901 206 900 q 411 903 358 903 l 424 903 q 533 876 490 897 q 603 824 576 854 q 640 757 629 793 q 650 686 650 721 q 644 633 650 657 q 626 588 639 610 q 592 543 613 565 q 543 496 572 521 l 533 496 q 610 460 579 482 q 660 411 642 438 q 688 356 679 385 q 696 300 696 328 q 668 191 696 244 q 594 95 640 138 q 492 27 549 53 q 376 1 435 1 l 188 1 q 158 1 175 1 q 124 1 142 1 q 88 0 106 0 q 57 0 69 0 q 60 76 58 24 q 64 195 63 129 q 67 333 65 261 q 69 469 68 406 q 72 578 71 532 q 72 642 72 625 q 71 727 72 686 q 61 781 69 768 l 83 810 q 69 809 76 810 q 58 808 61 808 l 18 903 m 247 79 q 305 72 271 74 q 367 69 339 69 q 483 110 449 69 q 518 239 518 151 q 503 349 518 306 q 463 417 489 392 q 402 451 438 442 q 324 461 367 461 q 278 459 300 461 q 247 454 256 457 l 247 79 m 474 629 q 460 728 472 689 q 427 790 449 768 q 375 822 406 813 q 306 831 344 831 q 265 828 285 831 q 233 825 244 825 q 240 773 238 808 q 244 696 243 738 q 247 613 246 654 q 247 542 247 571 l 247 503 q 374 504 328 503 q 451 506 421 506 q 463 539 453 508 q 474 629 474 569 z "},"C":{"ha":781,"x_min":54,"x_max":701,"o":"m 411 914 q 472 888 440 906 q 535 849 504 871 q 592 805 565 828 q 640 761 619 782 q 674 726 661 740 q 686 706 686 711 q 656 663 681 696 q 569 585 631 629 q 523 644 551 613 q 463 702 494 675 q 397 747 431 729 q 338 765 364 765 q 281 734 301 765 q 249 658 260 703 q 236 566 239 614 q 233 483 233 518 q 247 306 233 378 q 285 192 261 235 q 341 130 310 149 q 407 111 372 111 q 531 129 465 111 q 658 196 596 147 l 701 119 q 613 72 669 94 q 499 33 557 50 q 391 7 440 17 q 321 -4 342 -3 q 199 37 250 0 q 116 129 149 74 q 69 252 83 185 q 54 385 54 319 q 59 468 54 426 q 74 544 64 510 q 99 601 79 565 q 145 678 118 638 q 206 761 172 719 q 273 837 239 803 q 339 892 307 871 q 397 914 371 914 l 411 914 z "},"D":{"ha":868,"x_min":18,"x_max":788,"o":"m 18 901 q 217 902 135 901 q 340 903 300 903 l 440 903 q 602 877 536 903 q 708 804 668 851 q 767 690 749 757 q 788 538 786 622 l 788 532 q 761 350 786 436 q 694 194 736 264 q 597 76 651 125 q 481 7 542 28 q 383 1 463 1 l 188 1 q 158 1 175 1 q 124 1 142 1 q 88 0 106 0 q 57 0 69 0 q 60 101 58 42 q 65 226 63 160 q 68 360 67 293 q 70 485 69 428 q 72 585 71 543 q 72 642 72 626 q 71 727 72 686 q 61 781 69 768 l 83 810 q 74 808 79 808 q 67 808 69 808 l 58 808 l 18 901 m 249 356 q 248 318 249 336 q 247 282 247 300 l 247 210 q 247 143 247 172 q 249 78 247 114 q 319 71 292 74 q 363 67 346 68 q 388 65 379 65 q 399 65 396 65 q 501 99 461 65 q 562 186 540 133 q 591 303 583 239 q 599 431 599 368 q 581 628 599 550 q 527 751 563 706 q 441 814 492 796 q 325 832 390 832 q 301 832 314 832 q 274 831 288 832 q 251 829 261 831 q 238 826 240 828 q 247 694 244 775 q 249 522 249 613 l 249 356 z "},"E":{"ha":710,"x_min":18,"x_max":664,"o":"m 18 903 q 94 901 49 901 q 171 900 140 900 l 394 900 q 544 895 494 900 q 593 869 593 890 l 489 797 q 417 820 453 817 q 353 824 381 824 l 339 824 q 290 822 319 824 q 236 819 260 819 q 245 688 243 767 q 247 519 247 610 l 247 496 q 272 492 251 493 q 317 490 292 490 l 331 490 q 393 494 358 490 q 464 517 428 497 l 576 444 q 543 420 576 425 q 421 415 510 415 l 247 415 l 247 347 q 247 310 247 328 q 246 272 246 292 l 246 85 q 281 82 260 83 q 324 80 301 81 q 370 78 347 79 q 413 78 393 78 l 426 78 q 490 81 454 78 q 564 106 525 85 l 664 31 q 616 6 664 11 q 469 1 568 1 l 344 1 q 255 1 292 1 q 193 1 218 1 q 150 0 168 0 q 117 0 132 0 l 56 0 q 59 60 57 13 q 63 172 61 107 q 67 313 65 238 q 69 455 68 388 q 72 573 71 522 q 72 642 72 624 q 70 727 72 688 q 61 781 68 767 l 82 810 q 68 809 75 810 q 58 808 61 808 l 18 903 z "},"F":{"ha":607,"x_min":17,"x_max":593,"o":"m 17 903 q 53 902 33 903 q 95 901 74 901 q 136 900 117 900 q 171 900 156 900 l 394 900 q 544 895 494 900 q 593 869 593 890 l 489 797 q 417 820 453 817 q 353 824 381 824 l 339 824 q 290 822 319 824 q 236 819 260 819 q 245 688 243 767 q 247 519 247 610 l 247 496 q 272 492 251 493 q 317 490 293 490 l 331 490 q 393 494 358 490 q 464 517 428 497 l 576 444 q 543 420 576 425 q 421 415 510 415 l 247 415 l 247 347 q 247 310 247 328 q 246 272 246 292 l 246 199 q 247 97 246 147 q 249 3 247 46 l 56 3 q 59 61 57 14 q 63 174 61 108 q 67 313 65 239 q 69 455 68 388 q 72 573 71 522 q 72 642 72 624 q 70 727 72 688 q 61 781 68 767 l 82 810 l 58 808 l 17 903 z "},"G":{"ha":796,"x_min":54,"x_max":725,"o":"m 486 0 l 486 42 q 392 10 440 22 q 321 -4 344 -3 q 199 37 250 0 q 116 129 149 74 q 69 251 83 185 q 54 383 54 318 q 59 466 54 425 q 74 542 64 507 q 99 599 79 563 q 147 676 118 635 q 209 759 175 717 q 278 835 243 801 q 349 891 314 869 q 411 913 383 913 q 501 868 453 900 q 591 801 550 836 q 659 738 632 767 q 686 703 686 708 q 661 667 676 686 q 625 628 647 650 q 569 581 603 606 q 524 640 551 608 q 464 699 496 672 q 399 744 432 726 q 339 763 365 763 q 281 729 301 763 q 249 649 260 696 q 236 555 239 603 q 233 478 233 507 q 249 295 233 367 q 288 183 264 224 q 343 126 313 142 q 406 111 374 111 q 451 117 425 111 q 486 131 478 122 l 486 257 l 407 257 l 421 328 l 725 328 l 711 257 l 658 257 l 658 235 q 659 144 658 203 q 663 -3 660 86 l 486 0 z "},"H":{"ha":868,"x_min":57,"x_max":750,"o":"m 560 0 q 563 49 561 10 q 565 142 564 88 q 568 260 567 196 q 571 385 569 324 l 249 385 l 249 347 q 248 310 249 328 q 247 272 247 292 l 247 199 q 248 97 247 147 q 250 3 249 46 l 57 3 q 60 61 58 14 q 64 174 63 108 q 67 313 65 239 q 69 455 68 388 q 72 573 71 522 q 72 642 72 624 q 72 687 72 664 q 71 729 72 710 q 68 764 69 749 q 63 786 67 779 l 150 901 q 203 872 183 901 q 233 790 222 842 q 246 668 243 738 q 249 519 249 599 l 249 453 l 572 453 q 574 573 572 524 q 575 642 575 622 q 574 728 575 686 q 563 786 572 771 l 650 901 q 703 871 683 901 q 733 788 722 840 q 747 664 743 735 q 750 514 750 593 l 750 0 l 560 0 z "},"I":{"ha":406,"x_min":57,"x_max":247,"o":"m 57 0 q 60 60 58 13 q 64 172 63 107 q 67 313 65 238 q 69 455 68 388 q 70 573 69 522 q 71 642 71 624 q 71 687 71 664 q 69 729 71 710 q 67 764 68 749 q 61 786 65 779 l 149 901 q 200 872 181 901 q 230 790 219 842 q 243 668 240 738 q 246 519 246 599 l 246 199 q 246 97 246 147 q 247 3 246 46 l 57 0 z "},"J":{"ha":433,"x_min":-64,"x_max":336,"o":"m -64 122 q -54 135 -64 124 q -30 162 -44 147 q 2 192 -15 176 q 36 221 19 208 q 60 190 46 206 q 90 162 75 175 q 122 138 106 149 q 151 121 138 126 q 154 206 153 156 q 157 313 156 256 q 159 427 158 369 q 160 534 160 485 q 162 621 161 583 q 163 672 163 658 q 160 744 163 717 q 150 786 157 771 l 246 914 q 293 876 275 904 q 321 804 311 847 q 333 705 331 761 q 336 585 336 649 l 336 204 q 312 155 336 189 q 253 85 288 121 q 181 22 218 49 q 118 -6 143 -6 q 65 12 94 -3 q 10 47 36 26 q -37 88 -17 67 q -64 122 -58 108 z "},"K":{"ha":825,"x_min":57,"x_max":789,"o":"m 57 0 q 60 60 58 13 q 64 172 63 107 q 67 313 65 238 q 69 455 68 388 q 72 573 71 522 q 72 642 72 624 q 72 688 72 664 q 71 735 72 713 q 68 774 69 757 q 63 797 67 790 l 150 913 q 203 881 183 913 q 233 795 222 849 q 246 670 243 742 q 249 519 249 599 q 342 620 294 569 q 433 713 389 671 q 517 780 478 754 q 585 806 556 806 q 604 804 596 806 q 625 794 613 803 l 635 697 q 605 676 626 694 q 554 630 583 657 q 492 571 525 603 q 429 508 460 539 q 558 345 493 424 q 674 201 622 267 q 757 89 725 136 q 789 21 789 42 q 768 -1 789 15 l 614 -1 q 601 35 611 14 q 576 80 590 57 q 545 124 561 103 q 518 160 529 144 q 483 206 506 176 q 435 271 461 236 q 381 340 408 306 q 332 401 354 374 l 249 294 q 247 247 247 271 q 247 199 247 222 q 248 97 247 147 q 250 3 249 46 l 57 0 z "},"L":{"ha":681,"x_min":57,"x_max":664,"o":"m 57 0 q 60 60 58 13 q 64 172 63 107 q 67 313 65 238 q 69 455 68 388 q 72 573 71 522 q 72 642 72 624 q 72 687 72 664 q 71 729 72 710 q 68 764 69 749 q 63 786 67 779 l 150 901 q 203 872 183 901 q 233 790 222 842 q 246 668 243 738 q 249 519 249 599 l 249 347 q 248 310 249 328 q 247 272 247 292 l 247 85 q 281 82 261 83 q 324 80 301 81 q 370 78 347 79 q 413 78 393 78 l 426 78 q 490 81 454 78 q 564 106 525 85 l 664 31 q 616 6 664 11 q 469 1 568 1 l 347 1 q 322 2 335 1 q 294 3 308 3 l 272 3 q 197 1 236 3 q 117 0 157 0 l 57 0 z "},"M":{"ha":954,"x_min":82,"x_max":817,"o":"m 628 0 q 631 64 629 14 q 635 178 633 114 q 638 314 636 243 q 639 442 639 385 l 465 -1 l 421 -1 l 226 440 l 226 168 q 226 82 226 125 q 228 3 226 39 l 82 3 q 85 61 83 14 q 89 174 88 108 q 92 313 90 239 q 94 455 93 388 q 95 573 94 522 q 96 642 96 624 q 96 687 96 664 q 94 731 96 710 q 90 767 93 751 q 83 790 88 782 l 154 901 q 192 872 176 901 q 248 769 214 838 q 319 623 282 701 q 393 466 357 544 q 457 333 429 388 q 522 494 496 429 q 567 606 549 558 q 600 689 586 653 q 628 763 614 725 l 632 775 l 629 783 l 717 901 q 769 871 750 901 q 799 787 789 840 q 813 663 810 733 q 815 513 815 592 l 815 168 q 815 82 815 125 q 817 3 815 39 l 628 0 z "},"N":{"ha":868,"x_min":82,"x_max":725,"o":"m 601 0 l 571 1 q 544 52 564 17 q 494 135 524 88 q 430 237 465 182 q 358 348 394 292 q 288 458 322 404 q 226 554 254 511 l 226 168 q 226 82 226 125 q 228 3 226 39 l 82 3 q 85 61 83 14 q 89 174 88 108 q 92 313 90 239 q 94 455 93 388 q 95 573 94 522 q 96 642 96 624 q 96 687 96 664 q 94 731 96 710 q 90 767 93 751 q 83 790 88 782 l 160 910 q 263 778 207 853 q 375 624 318 704 q 486 461 432 543 q 585 307 540 379 q 587 417 586 363 q 588 517 588 471 q 589 595 589 563 q 589 642 589 628 q 589 687 589 664 q 588 730 589 710 q 584 766 586 750 q 578 789 582 782 l 628 900 q 676 883 657 900 q 706 834 696 865 q 721 760 717 803 q 725 667 725 718 q 725 501 725 574 q 724 369 725 428 q 723 263 724 310 q 722 172 722 215 q 721 88 721 129 q 721 0 721 46 l 601 0 z "},"O":{"ha":897,"x_min":25,"x_max":765,"o":"m 46 544 q 131 717 75 647 q 253 831 188 788 q 384 894 318 875 q 499 913 450 913 q 624 876 574 913 q 706 783 675 840 q 751 658 738 726 q 765 522 765 589 q 741 352 765 428 q 677 217 717 276 q 587 117 638 158 q 484 48 536 75 q 382 8 432 21 q 294 -4 332 -4 q 168 31 219 -4 q 85 123 117 67 q 39 248 53 179 q 25 383 25 317 q 30 467 25 426 q 46 544 35 508 m 340 800 q 297 789 321 799 q 252 747 274 779 q 216 653 231 715 q 201 483 201 590 l 201 458 q 222 304 201 371 q 274 193 242 238 q 344 126 306 149 q 418 104 382 104 q 489 119 458 104 q 540 175 519 135 q 573 285 561 215 q 589 465 585 356 l 589 479 q 563 649 588 585 q 504 747 539 713 q 431 791 469 781 q 364 801 393 801 q 353 801 358 801 q 340 800 349 801 z "},"P":{"ha":607,"x_min":18,"x_max":696,"o":"m 18 901 l 468 901 q 577 875 533 896 q 647 824 621 854 q 685 759 674 794 q 696 689 696 724 q 663 571 696 625 q 583 477 631 517 q 483 415 536 438 q 392 392 431 392 l 247 392 l 247 356 q 247 318 247 336 q 246 282 246 300 l 246 210 q 247 103 246 158 q 249 3 247 47 l 57 3 q 60 49 58 13 q 64 136 63 85 q 67 249 65 188 q 69 374 68 311 q 72 493 71 436 q 72 592 72 550 l 72 642 q 71 727 72 686 q 61 781 69 768 l 83 810 q 69 809 76 810 q 58 808 61 808 l 18 901 m 247 458 q 292 452 265 454 q 344 450 319 450 q 429 461 396 450 q 483 494 463 472 q 510 549 503 515 q 519 629 518 583 l 519 638 q 476 784 519 736 q 354 832 433 832 q 281 828 315 832 q 235 825 246 825 q 245 694 243 772 q 247 522 247 617 l 247 458 z "},"Q":{"ha":999,"x_min":178,"x_max":1028,"o":"m 200 544 q 287 717 231 647 q 409 831 343 788 q 540 894 475 875 q 654 913 606 913 q 780 876 729 913 q 862 783 831 840 q 907 657 893 726 q 921 521 921 588 q 889 323 921 408 q 808 176 857 238 q 701 74 760 114 q 589 15 643 35 q 606 -81 592 -42 q 643 -145 621 -121 q 693 -181 665 -169 q 753 -192 721 -192 q 870 -165 801 -192 q 1011 -94 939 -139 l 1028 -168 q 948 -208 996 -192 q 847 -235 900 -225 q 742 -249 794 -244 q 653 -253 690 -253 q 537 -231 586 -253 q 455 -174 488 -210 q 406 -94 422 -139 q 386 0 389 -49 q 293 51 332 13 q 228 144 254 90 q 190 260 203 197 q 178 385 178 324 q 183 469 178 428 q 200 544 189 510 m 496 800 q 452 789 476 799 q 407 747 428 779 q 372 651 386 714 q 357 483 357 589 l 357 458 q 377 304 357 371 q 429 193 397 238 q 499 126 461 149 q 572 104 536 104 q 642 119 611 104 q 694 175 672 135 q 727 285 715 215 q 743 465 739 356 l 743 479 q 717 649 742 585 q 659 747 693 713 q 587 791 625 781 q 519 801 549 801 q 509 801 514 801 q 496 800 504 801 z "},"R":{"ha":794,"x_min":18,"x_max":790,"o":"m 18 901 l 468 901 q 577 875 533 896 q 647 824 621 854 q 685 759 674 794 q 696 689 696 724 q 678 603 696 644 q 632 527 660 563 q 570 463 604 492 q 503 417 536 435 q 547 359 524 389 q 592 303 571 329 q 626 261 613 278 q 638 244 639 244 l 631 254 q 746 107 701 167 q 790 22 790 47 q 768 -1 790 17 l 608 -1 q 597 30 606 11 q 578 69 589 49 q 554 110 567 90 q 532 144 542 131 l 472 224 q 439 267 457 244 q 402 313 421 290 q 366 356 383 336 q 336 392 349 376 l 247 392 l 247 356 q 247 318 247 336 q 246 282 246 300 l 246 210 q 247 103 246 158 q 249 3 247 47 l 57 3 q 60 49 58 13 q 64 136 63 85 q 67 249 65 188 q 69 374 68 311 q 72 493 71 436 q 72 592 72 550 l 72 642 q 71 727 72 686 q 61 781 69 768 l 83 810 q 69 809 76 810 q 58 808 61 808 l 18 901 m 247 458 q 292 452 265 454 q 344 450 319 450 q 429 461 396 450 q 483 494 463 472 q 510 549 503 515 q 519 629 518 583 l 519 638 q 476 784 519 736 q 354 832 433 832 q 281 828 315 832 q 235 825 246 825 q 245 694 243 772 q 247 522 247 617 l 247 458 z "},"S":{"ha":897,"x_min":90,"x_max":828,"o":"m 265 324 q 260 269 260 303 q 279 188 260 218 q 327 144 299 158 q 388 125 356 129 q 444 121 419 121 q 524 141 493 122 q 572 184 554 160 q 595 231 589 208 q 601 263 601 253 q 540 336 582 303 q 447 398 497 369 q 342 450 396 426 q 242 495 288 474 q 169 535 197 517 q 140 572 140 554 q 166 629 146 594 q 214 701 186 664 q 276 777 242 739 q 344 846 310 815 q 412 895 379 876 q 471 914 444 914 l 482 914 q 565 894 519 908 q 651 863 611 879 q 719 833 692 847 q 746 815 746 819 l 746 760 q 735 675 746 725 q 696 567 724 625 l 597 599 q 601 617 600 606 q 601 642 601 628 q 585 699 601 671 q 547 750 569 728 q 501 786 525 772 q 458 801 476 800 l 453 801 q 418 789 438 801 q 381 756 399 776 q 349 708 364 735 q 328 653 335 682 q 345 642 325 653 q 400 612 365 631 q 480 568 435 593 q 572 515 525 543 q 665 458 619 488 q 747 403 711 429 q 806 353 783 376 q 828 314 828 329 q 799 261 822 293 q 742 193 776 229 q 665 121 707 157 q 581 56 624 85 q 497 10 538 28 q 426 -8 457 -8 q 406 -7 410 -8 l 411 -7 q 303 17 360 -1 q 199 58 246 36 q 121 97 151 79 q 90 117 90 114 l 90 131 q 157 358 90 246 l 265 324 z "},"T":{"ha":694,"x_min":-72,"x_max":700,"o":"m 501 900 q 651 895 601 900 q 700 869 700 890 l 610 790 q 565 798 589 794 q 515 803 540 801 q 465 806 489 806 q 421 807 440 807 l 408 807 q 411 670 411 751 q 411 497 411 589 l 411 3 l 222 3 q 226 126 224 49 q 232 293 229 203 q 236 478 235 383 q 238 653 238 574 q 237 742 238 706 q 235 807 236 779 l 181 807 q 105 803 144 807 q 22 789 65 800 l -72 869 q -24 895 -72 890 q 128 900 25 900 l 501 900 z "},":":{"ha":289,"x_min":40,"x_max":249,"o":"m 149 161 q 197 153 178 161 q 228 133 217 144 q 244 106 240 121 q 249 79 249 92 q 219 22 249 47 q 144 -3 189 -3 q 68 22 96 -3 q 40 79 40 47 q 41 88 40 83 q 44 101 42 93 q 81 145 50 129 q 149 161 113 161 m 149 411 q 197 403 178 411 q 228 383 217 396 q 244 356 240 371 q 249 326 249 340 q 219 269 249 294 q 144 244 189 244 q 68 271 96 244 q 40 328 40 297 q 72 386 40 361 q 149 411 104 411 z "},";":{"ha":317,"x_min":32,"x_max":256,"o":"m 256 63 q 239 -3 256 33 q 199 -74 222 -40 q 154 -133 176 -107 q 121 -169 132 -160 q 87 -153 106 -162 q 57 -136 68 -144 q 90 -88 71 -126 q 124 -3 108 -50 q 56 24 81 0 q 32 79 32 49 q 33 88 32 83 q 36 101 33 93 q 67 142 40 126 q 128 161 94 157 l 140 161 q 183 153 163 161 q 220 133 204 146 q 246 101 236 119 q 256 63 256 83 m 140 411 q 189 403 169 411 q 220 383 208 396 q 236 356 232 371 q 240 326 240 340 q 210 269 240 294 q 136 244 181 244 q 60 271 88 244 q 32 328 32 297 q 64 386 32 361 q 140 411 96 411 z "},",":{"ha":332,"x_min":40,"x_max":263,"o":"m 129 -169 q 95 -153 114 -162 q 65 -136 76 -144 q 98 -88 79 -126 q 132 -3 117 -50 q 65 24 89 0 q 40 79 40 49 q 49 115 40 100 q 72 139 58 129 q 103 153 86 149 q 136 161 121 158 l 149 161 q 228 133 194 161 q 263 60 263 104 q 248 -4 263 29 q 213 -68 233 -37 q 170 -124 192 -99 q 136 -162 149 -149 q 132 -166 133 -165 q 129 -169 131 -167 z "},".":{"ha":290,"x_min":53,"x_max":261,"o":"m 161 161 q 210 153 190 161 q 241 133 229 144 q 257 106 253 121 q 261 79 261 92 q 231 22 261 47 q 157 -3 201 -3 q 81 22 108 -3 q 53 79 53 47 q 53 88 53 83 q 57 101 54 93 q 94 145 63 129 q 161 161 125 161 z "},"¨":{"ha":558,"x_min":100,"x_max":458,"o":"m 186 765 q 226 759 210 765 q 251 743 242 753 q 263 723 260 733 q 267 703 267 713 q 242 663 267 681 q 182 644 218 644 q 122 663 144 644 q 100 706 100 682 q 109 732 100 721 q 131 751 118 743 q 158 762 143 758 q 186 765 174 765 m 378 765 q 417 759 401 765 q 442 743 433 753 q 455 723 451 733 q 458 703 458 713 q 433 663 458 681 q 372 644 408 644 q 315 663 336 644 q 293 706 293 682 q 293 711 293 708 q 296 721 293 714 q 324 753 299 740 q 378 765 350 765 z "},"¯":{"ha":564,"x_min":92,"x_max":438,"o":"m 436 642 q 396 642 419 642 q 347 642 372 642 q 299 644 322 643 q 258 646 275 644 q 215 642 240 646 q 165 621 190 638 l 92 710 q 207 721 92 721 q 301 719 239 721 q 438 718 364 718 l 436 642 z "},"´":{"ha":501,"x_min":157,"x_max":388,"o":"m 388 694 l 269 599 q 231 570 246 579 q 196 561 217 561 q 157 574 165 561 l 161 657 q 188 663 175 657 q 219 682 201 668 q 263 720 238 696 q 324 782 288 744 l 388 694 z "},"¸":{"ha":243,"x_min":1,"x_max":311,"o":"m 311 29 l 199 -87 q 228 -139 217 -107 q 240 -186 239 -171 q 227 -215 238 -200 q 201 -244 217 -231 q 165 -266 185 -257 q 122 -275 144 -275 q 106 -272 119 -275 q 76 -263 93 -269 q 38 -246 58 -257 q 1 -218 18 -235 l 83 -154 q 94 -191 90 -175 q 97 -215 97 -207 q 96 -224 97 -222 q 110 -197 104 -214 q 118 -162 115 -179 q 122 -131 121 -144 q 125 -117 124 -118 q 106 -117 117 -117 q 93 -118 94 -118 q 81 -95 86 -107 q 75 -78 75 -83 q 85 -76 79 -76 q 94 -76 92 -76 q 130 -40 114 -57 q 164 -3 146 -22 q 165 1 165 -1 q 165 8 165 4 q 167 13 165 13 q 185 18 168 13 q 222 30 201 24 q 262 42 242 36 q 290 50 282 47 l 311 29 z "},"ˆ":{"ha":607,"x_min":156,"x_max":486,"o":"m 332 756 l 344 750 q 414 688 376 718 q 482 653 451 658 l 486 574 q 447 561 478 561 q 408 572 426 561 q 356 611 389 583 l 319 642 q 303 628 311 635 q 286 614 294 621 q 233 574 253 586 q 193 561 214 561 q 168 564 176 561 q 156 574 160 567 l 160 657 q 221 685 183 657 q 299 756 258 714 l 332 756 z "},"ˇ":{"ha":638,"x_min":156,"x_max":486,"o":"m 299 561 q 221 631 258 601 q 160 660 183 660 l 156 743 q 168 753 160 750 q 193 756 176 756 q 233 743 214 756 q 286 703 253 731 q 303 689 294 696 q 319 675 311 682 l 356 706 q 408 744 389 733 q 447 756 426 756 q 486 743 478 756 l 482 664 q 414 628 451 658 q 344 567 376 599 l 332 561 l 299 561 z "},"˘":{"ha":500,"x_min":83,"x_max":417,"o":"m 200 760 q 183 724 183 750 q 188 701 183 711 q 204 689 193 692 q 224 686 215 686 q 239 686 232 686 q 303 705 282 686 q 324 749 324 724 q 311 793 324 782 l 364 806 q 388 775 378 794 q 403 736 397 756 q 413 701 410 717 q 417 682 417 686 q 402 645 417 661 q 365 619 388 629 q 315 605 342 610 q 263 600 288 600 q 222 604 236 600 q 186 622 210 608 q 140 650 163 635 q 100 681 117 665 q 83 707 83 697 q 94 739 85 724 q 113 766 103 754 q 135 784 124 778 q 154 790 146 790 l 200 760 z "},"˙":{"ha":349,"x_min":85,"x_max":251,"o":"m 171 765 q 210 759 194 765 q 235 743 226 753 q 248 723 244 733 q 251 703 251 713 q 227 663 251 681 q 167 644 203 644 q 107 663 129 644 q 85 706 85 682 q 94 732 85 721 q 115 751 103 743 q 143 762 128 758 q 171 765 158 765 z "},"˚":{"ha":408,"x_min":85,"x_max":336,"o":"m 228 649 q 231 660 229 654 q 232 681 232 667 q 229 710 232 694 q 222 738 226 725 q 211 758 218 750 q 196 765 204 765 q 191 763 194 765 q 188 758 188 761 q 183 724 183 751 q 197 669 183 694 q 229 643 210 643 l 228 649 m 200 615 q 135 624 158 615 q 101 647 113 633 q 87 677 89 660 q 85 711 85 694 q 100 735 85 721 q 137 765 115 750 q 181 790 158 779 q 219 800 204 800 q 278 793 256 800 q 314 774 301 786 q 331 748 326 763 q 336 718 336 733 q 336 712 336 715 q 333 700 336 708 q 318 677 333 692 q 281 649 303 663 q 236 626 258 636 q 200 615 214 615 z "},"˛":{"ha":481,"x_min":-158,"x_max":94,"o":"m 21 0 q -3 -28 10 -3 q -26 -89 -15 -53 q -28 -116 -28 -104 q -29 -139 -29 -128 q -26 -190 -29 -175 q -21 -206 -24 -206 q 1 -187 -15 -206 q 43 -139 18 -169 l 94 -183 q 31 -235 58 -217 q -17 -263 3 -254 q -51 -274 -37 -272 q -69 -275 -64 -275 q -137 -248 -115 -275 q -158 -192 -158 -221 q -153 -160 -158 -178 q -137 -126 -149 -150 q -109 -76 -125 -101 q -74 -28 -93 -50 q -36 -3 -56 -7 l 21 0 z "},"˜":{"ha":622,"x_min":99,"x_max":439,"o":"m 361 644 q 329 640 349 640 q 281 649 303 640 q 240 666 258 657 q 208 683 222 675 q 186 692 194 692 q 172 678 182 692 q 140 633 161 665 l 99 674 q 110 696 100 682 q 132 724 121 710 q 154 749 143 738 q 169 763 165 760 q 210 769 179 769 q 256 762 235 769 q 297 744 278 754 q 330 727 315 735 q 354 719 344 719 q 366 729 357 719 q 390 763 375 739 l 439 738 q 426 714 436 729 q 404 684 417 699 q 381 658 392 669 q 367 644 371 646 l 361 644 z "},"˝":{"ha":961,"x_min":153,"x_max":603,"o":"m 383 694 l 265 599 q 227 570 242 579 q 192 561 213 561 q 153 574 161 561 l 157 657 q 184 663 171 657 q 215 682 197 668 q 258 720 233 696 q 319 782 283 744 l 383 694 m 603 694 l 489 603 q 447 571 463 581 q 410 561 432 561 q 383 565 390 561 q 369 576 376 569 l 375 653 q 445 692 407 660 q 539 779 483 724 l 603 694 z "},"U":{"ha":739,"x_min":64,"x_max":669,"o":"m 657 910 q 653 834 654 883 q 652 725 653 785 q 651 604 651 665 q 651 493 651 543 l 651 440 q 651 376 651 415 q 652 290 651 336 q 654 197 653 244 q 658 108 656 149 q 663 38 660 68 q 669 -3 665 8 l 540 -3 q 498 24 513 -3 q 478 100 483 50 q 409 26 443 56 q 339 -3 375 -3 q 264 19 307 -3 q 182 72 221 42 q 116 131 143 101 q 89 174 89 160 q 78 210 82 183 q 71 274 74 238 q 67 356 68 311 q 67 444 67 400 l 67 581 q 67 659 67 614 q 67 747 67 704 q 66 823 67 789 q 64 867 65 857 l 260 885 q 255 813 257 857 q 251 719 253 768 q 249 624 250 671 q 249 549 249 578 l 249 456 q 253 339 249 394 q 275 239 258 283 q 323 167 292 194 q 407 135 354 139 q 436 167 415 140 q 476 225 457 194 q 474 329 475 292 q 473 386 474 367 q 472 413 472 406 q 472 425 472 421 q 473 501 472 461 q 474 585 474 540 q 474 718 474 650 q 471 864 474 786 l 657 910 z "},"V":{"ha":751,"x_min":64,"x_max":708,"o":"m 346 -56 q 321 56 339 -18 q 280 212 303 129 q 235 372 257 294 q 197 493 213 449 q 166 579 185 531 q 128 674 147 628 q 91 753 108 719 q 64 794 74 788 l 131 899 q 149 910 138 906 q 171 914 161 914 q 249 838 215 914 q 331 614 282 761 l 414 365 q 498 628 461 493 q 558 906 535 764 l 671 913 q 708 875 708 894 l 708 869 q 688 780 708 849 q 635 613 667 711 q 563 395 603 514 q 486 156 524 276 l 490 136 l 346 -56 z "},"W":{"ha":985,"x_min":64,"x_max":1008,"o":"m 679 -54 q 661 33 674 -22 q 632 151 649 88 q 597 278 615 214 q 564 396 579 343 l 485 165 l 494 136 l 351 -54 q 336 13 346 -29 q 313 105 326 54 q 283 212 299 156 q 251 320 267 268 q 222 418 236 372 q 199 493 208 464 q 167 579 186 531 q 128 673 147 628 q 91 752 108 718 q 64 794 74 786 l 132 900 q 155 911 147 910 q 172 913 163 913 q 216 885 194 913 q 259 811 238 858 q 304 699 281 764 q 353 557 328 633 l 415 368 q 453 476 435 419 q 490 597 472 532 q 464 659 478 626 q 437 719 450 692 q 413 767 424 747 q 396 793 401 788 l 464 901 q 481 909 472 906 q 501 913 490 913 q 558 872 532 913 q 612 759 585 831 q 669 590 639 688 q 740 379 700 493 q 771 484 756 431 q 793 567 786 538 q 815 641 803 597 q 837 731 826 685 q 854 818 847 776 q 861 886 861 860 l 861 897 l 972 915 q 1008 872 1008 896 q 955 633 1008 810 q 819 163 901 457 l 828 138 l 679 -54 z "},"X":{"ha":722,"x_min":31,"x_max":721,"o":"m 492 8 q 467 78 485 36 q 429 165 450 119 q 388 255 408 211 q 354 329 367 299 q 329 291 344 317 q 297 233 314 265 q 262 165 279 200 q 230 97 244 129 q 206 39 215 65 q 197 0 197 13 l 57 0 q 31 32 31 25 q 46 76 31 46 q 93 158 61 106 q 174 288 125 210 q 289 476 222 365 q 244 563 268 518 q 197 646 219 607 q 155 713 174 685 q 126 749 136 742 l 153 919 q 170 927 161 924 q 192 931 179 931 q 292 848 235 931 q 419 621 350 765 q 460 696 438 654 q 503 778 483 738 q 537 854 524 819 q 550 906 550 889 l 692 906 q 721 869 721 881 q 708 832 721 857 q 669 761 696 807 q 597 643 642 715 q 490 464 553 571 q 572 278 531 376 q 658 74 614 181 l 688 8 l 492 8 z "},"Y":{"ha":638,"x_min":58,"x_max":683,"o":"m 192 671 q 160 722 179 693 q 122 779 142 751 q 85 828 103 807 q 58 853 68 849 l 143 924 l 149 924 q 154 924 151 924 q 160 925 157 924 l 153 925 q 174 926 156 926 q 231 902 206 926 q 283 834 257 878 q 340 731 310 790 q 414 600 371 671 q 442 656 429 628 q 464 707 454 683 q 487 756 474 725 q 512 817 500 786 q 532 876 524 849 q 540 914 540 903 q 538 919 540 919 q 564 920 544 919 q 644 926 583 921 q 683 901 683 917 q 666 840 683 881 q 619 740 649 799 q 553 608 590 682 q 478 447 517 535 l 478 317 q 478 185 478 238 q 479 97 479 132 q 480 41 479 63 q 481 3 481 19 l 290 3 l 296 108 q 302 242 299 175 q 306 374 306 310 q 306 404 306 389 q 304 435 306 419 q 276 499 292 464 q 244 567 260 533 q 215 628 229 600 q 192 671 200 656 z "},"Z":{"ha":897,"x_min":126,"x_max":822,"o":"m 500 813 q 476 817 488 815 q 458 818 465 818 q 374 787 407 818 q 322 711 342 756 q 295 619 303 667 q 288 536 288 571 l 288 526 l 213 514 q 152 626 175 575 q 129 708 129 676 l 131 708 q 165 773 139 738 q 225 840 190 808 q 300 892 260 871 q 378 917 340 914 l 386 917 q 472 905 425 917 q 564 880 519 893 q 647 855 608 867 q 707 843 685 843 q 740 849 719 843 q 793 868 761 854 l 801 749 l 753 763 q 712 658 742 722 q 638 509 682 594 q 540 316 594 424 q 424 82 485 208 q 493 89 456 85 q 569 97 531 93 q 644 106 608 101 q 711 114 681 110 l 822 126 l 776 7 q 697 9 743 8 q 619 10 651 10 q 473 8 543 10 q 340 7 403 7 q 183 10 240 7 q 126 26 126 13 l 206 108 l 210 104 q 264 185 235 138 q 322 282 293 232 q 378 383 351 332 q 427 475 406 433 q 463 545 449 517 q 481 581 478 574 l 488 594 q 527 690 508 639 q 549 797 546 742 l 500 813 z "},"`":{"ha":510,"x_min":172,"x_max":403,"o":"m 235 781 q 288 724 265 747 q 330 687 311 701 q 365 664 349 672 q 399 653 382 656 l 403 574 q 364 561 394 561 q 331 569 346 561 q 295 593 315 576 q 247 635 275 610 q 172 694 218 660 l 235 781 z "},"!":{"ha":375,"x_min":85,"x_max":293,"o":"m 111 290 q 115 353 113 307 q 119 455 118 400 q 122 561 121 510 q 124 639 124 613 q 117 728 124 685 q 101 788 110 772 l 176 901 q 214 911 186 911 q 242 886 231 911 q 263 819 254 861 q 275 722 271 778 q 279 607 279 667 q 277 496 279 553 q 272 385 275 439 q 263 282 268 331 q 250 197 257 233 l 111 290 m 194 161 q 243 153 224 161 q 274 133 263 144 q 289 106 285 121 q 293 79 293 92 q 264 22 293 47 q 189 -3 235 -3 q 113 22 142 -3 q 85 79 85 47 q 118 138 85 115 q 194 161 151 161 z "},"\"":{"ha":369,"x_min":33,"x_max":326,"o":"m 167 908 l 172 813 q 177 728 175 768 q 179 661 179 689 q 164 606 179 625 q 118 586 149 586 l 43 646 q 39 665 39 650 q 40 688 39 676 q 42 706 42 699 l 42 807 q 38 869 39 839 q 33 908 36 900 l 167 908 m 314 908 q 323 767 319 829 q 326 661 326 704 q 313 606 326 625 q 267 586 299 586 l 190 646 l 190 706 q 190 763 190 729 q 188 827 189 796 q 185 881 188 858 q 182 908 183 904 l 314 908 z "},"#":{"ha":1050,"x_min":82,"x_max":976,"o":"m 108 294 q 170 295 138 294 q 217 296 203 296 l 265 296 l 317 501 q 197 498 232 499 q 157 497 161 497 l 182 596 l 339 596 q 349 640 343 613 q 360 694 356 667 q 369 744 365 721 q 374 778 374 767 q 372 785 374 785 q 374 786 372 785 q 385 799 376 788 q 413 834 394 810 q 467 903 432 858 q 519 886 503 899 q 535 851 535 874 q 522 747 535 817 q 490 597 508 676 l 646 597 l 657 642 q 673 711 665 676 q 681 769 681 746 l 681 783 l 774 903 q 826 886 810 899 q 842 851 842 874 q 830 745 842 811 q 800 597 818 679 q 932 586 888 594 q 976 558 976 578 l 821 499 l 782 514 l 736 324 q 735 316 736 321 q 729 297 735 311 q 863 287 817 294 q 908 258 908 279 l 740 193 q 723 208 728 203 q 715 214 718 214 q 704 196 707 206 l 679 89 q 670 42 675 65 q 660 0 665 19 l 493 0 q 515 74 499 15 q 550 213 531 133 l 399 213 l 399 201 q 398 197 399 200 q 394 181 397 194 q 384 137 390 167 q 365 53 378 107 q 360 26 363 40 q 354 0 357 13 l 186 0 q 216 113 206 72 q 232 172 226 153 q 238 196 238 192 q 239 201 239 200 l 185 199 q 135 196 160 197 q 82 190 110 194 l 108 294 m 574 299 q 600 406 585 347 q 626 513 615 464 q 540 509 582 511 q 471 507 499 507 l 432 344 q 421 299 429 322 l 574 299 z "},"%":{"ha":993,"x_min":19,"x_max":922,"o":"m 225 490 q 112 510 153 490 q 50 561 71 529 q 24 634 29 593 q 19 717 19 675 q 47 769 19 736 q 114 835 75 803 q 194 890 153 867 q 264 913 236 913 q 364 899 324 913 q 428 860 404 885 q 462 805 451 836 q 472 739 472 774 q 472 730 472 735 q 471 718 472 725 l 467 686 q 436 632 464 665 q 370 567 408 599 q 292 513 332 536 q 225 490 251 490 m 676 -7 q 563 13 604 -7 q 501 65 522 32 q 476 138 481 97 q 471 219 471 178 q 499 273 471 240 q 565 338 526 306 q 646 392 604 369 q 715 415 688 415 q 815 401 775 415 q 879 364 856 388 q 913 309 903 340 q 922 243 922 278 q 920 222 922 233 q 918 189 918 211 q 890 136 918 169 q 824 71 863 103 q 744 16 785 39 q 676 -7 703 -7 m 88 -10 q 126 49 94 -1 q 203 173 158 100 q 299 329 247 246 q 397 488 351 413 q 476 618 443 563 q 519 689 510 674 q 538 718 528 701 q 558 751 549 735 q 574 784 567 768 q 581 813 581 800 l 726 910 q 765 881 765 886 q 718 768 764 857 q 593 547 672 679 l 501 396 q 480 361 490 378 q 458 328 469 344 l 258 -1 l 88 -10 m 776 96 q 782 138 779 114 q 785 188 785 161 q 778 245 785 217 q 760 295 772 274 q 730 330 747 317 q 690 343 713 343 q 631 324 668 343 q 618 281 624 304 q 613 231 613 258 q 622 174 613 201 q 646 126 631 147 q 682 93 661 106 q 726 81 703 81 q 776 96 747 81 m 326 592 q 332 633 329 608 q 335 685 335 657 q 328 742 335 714 q 310 791 322 769 q 279 826 297 813 q 239 839 261 839 q 179 819 217 839 q 167 778 172 801 q 163 728 163 754 q 172 672 163 699 q 196 624 181 644 q 231 590 211 603 q 275 578 251 578 q 326 592 297 578 z "},"'":{"ha":211,"x_min":31,"x_max":176,"o":"m 164 908 l 169 813 q 174 728 172 768 q 176 661 176 689 q 161 606 176 625 q 115 586 146 586 l 40 646 q 36 665 36 650 q 38 688 36 676 q 39 706 39 699 l 39 807 q 35 869 36 839 q 31 908 33 900 l 164 908 z "},"(":{"ha":418,"x_min":40,"x_max":424,"o":"m 388 892 q 303 749 336 818 q 251 606 269 679 q 224 450 232 532 q 217 269 217 368 l 217 247 q 232 53 217 136 q 272 -92 247 -29 q 328 -206 297 -156 q 388 -299 358 -256 q 406 -326 396 -312 q 424 -353 415 -339 l 342 -353 q 193 -190 260 -285 q 138 -101 165 -150 q 90 7 111 -51 q 55 132 68 65 q 40 274 42 199 l 40 279 q 53 422 40 354 q 86 551 65 490 q 133 664 107 611 q 188 761 160 717 q 335 944 253 864 l 388 892 z "},")":{"ha":390,"x_min":-28,"x_max":356,"o":"m 61 944 q 208 761 143 864 q 263 664 236 717 q 310 551 289 611 q 343 422 331 490 q 356 279 356 354 l 356 274 q 341 132 354 199 q 306 7 328 65 q 258 -101 285 -51 q 203 -190 231 -150 q 54 -353 136 -285 l -28 -353 q -10 -326 -19 -339 q 10 -299 0 -312 q 69 -206 39 -256 q 124 -92 99 -156 q 164 53 149 -29 q 179 247 179 136 q 178 258 179 253 q 178 269 178 264 l 178 292 q 167 464 175 386 q 142 612 160 542 q 92 749 124 682 q 8 892 60 817 l 61 944 z "},"*":{"ha":506,"x_min":33,"x_max":475,"o":"m 329 931 q 311 882 321 915 q 294 814 301 849 q 338 840 314 828 q 384 863 361 853 q 426 878 407 872 q 458 886 446 885 l 458 801 q 412 790 439 797 q 359 772 385 782 q 312 753 333 763 q 282 735 290 743 q 336 709 304 725 q 398 676 368 693 q 450 644 428 660 q 475 622 472 629 l 344 582 q 321 623 333 601 q 294 661 308 644 q 299 580 297 622 q 301 519 301 538 l 171 542 q 177 560 172 546 q 187 592 182 574 q 195 628 192 610 q 199 661 199 647 q 201 672 199 667 q 112 630 160 649 q 36 610 64 611 l 43 697 q 87 703 61 699 q 139 712 113 707 q 187 723 165 717 q 217 735 208 729 q 165 760 196 744 q 106 793 135 776 q 56 825 78 810 q 33 849 35 840 l 163 888 q 182 849 169 871 q 206 810 194 828 q 203 849 204 828 q 202 890 203 871 q 201 925 201 910 q 201 949 201 940 l 329 931 z "},"+":{"ha":803,"x_min":85,"x_max":701,"o":"m 111 361 l 313 361 q 313 394 313 375 q 314 424 314 414 l 314 450 q 312 499 314 483 q 307 531 310 514 l 304 546 l 364 642 q 400 654 368 654 q 448 593 439 654 q 457 408 457 532 l 457 364 l 701 364 l 654 276 q 593 276 619 276 q 544 277 567 276 q 499 278 521 278 q 454 278 478 278 q 446 142 451 207 q 432 35 440 76 l 294 35 q 297 71 296 46 q 301 129 299 96 q 305 201 303 163 q 308 276 307 239 q 176 272 238 275 q 85 267 115 269 l 111 361 z "},"-":{"ha":539,"x_min":81,"x_max":454,"o":"m 107 326 l 242 326 q 317 328 279 326 q 392 329 354 329 l 454 329 l 406 243 l 335 243 q 213 242 271 243 q 94 235 154 240 q 87 234 90 235 q 81 233 83 233 l 107 326 z "},"ा":{"ha":411,"x_min":-40,"x_max":447,"o":"m -40 893 l 411 893 l 447 786 l 292 786 l 292 644 l 292 219 q 293 -21 292 100 l 135 24 l 135 786 l 0 786 l -40 893 z "},"/":{"ha":663,"x_min":92,"x_max":690,"o":"m 92 -1 q 110 28 94 0 q 151 101 126 56 q 206 203 175 146 q 267 322 236 260 q 330 444 299 383 q 388 557 361 506 l 468 717 q 497 777 483 744 q 511 828 511 810 l 643 925 q 680 910 669 917 q 690 896 690 903 q 679 847 690 881 q 649 769 668 814 q 605 672 631 725 q 550 561 579 618 l 263 0 l 92 -1 z "},"<":{"ha":729,"x_min":43,"x_max":672,"o":"m 43 329 l 340 449 q 510 515 444 492 q 617 539 576 539 q 672 522 663 539 l 568 425 q 542 426 557 425 q 526 429 526 426 q 519 425 528 429 q 503 418 510 421 l 169 281 q 264 232 215 256 q 356 188 313 208 q 435 153 400 168 q 490 129 471 138 l 526 114 q 532 115 529 114 q 542 117 531 117 q 568 117 553 117 l 671 18 q 617 3 660 3 q 510 26 576 3 q 339 93 444 50 l 250 129 q 224 140 236 135 q 197 150 211 144 q 163 164 182 156 q 117 183 143 172 q 76 197 90 192 q 53 204 61 201 q 44 209 46 207 q 43 215 43 211 l 43 329 z "},">":{"ha":724,"x_min":51,"x_max":681,"o":"m 681 211 l 607 183 q 560 165 579 172 q 526 151 540 157 q 499 140 511 144 q 474 129 488 135 l 383 93 q 213 26 279 50 q 107 3 147 3 q 51 18 60 3 l 157 117 q 183 117 171 117 q 197 115 194 117 l 232 129 q 286 151 250 136 q 366 187 322 167 q 458 228 410 207 q 550 271 506 250 q 457 313 506 292 q 365 354 408 335 q 285 390 321 374 q 231 414 249 406 l 196 429 q 182 426 196 426 q 157 425 168 425 l 51 522 q 70 535 56 532 q 107 539 85 539 q 213 515 147 539 q 385 450 279 492 q 429 433 410 440 q 472 415 449 425 q 526 392 494 406 q 607 358 557 379 q 636 345 621 351 q 679 339 651 339 l 681 211 z "},"=":{"ha":760,"x_min":39,"x_max":724,"o":"m 63 225 l 199 225 q 274 225 236 225 q 350 226 311 225 l 689 226 l 642 140 q 519 142 579 142 q 400 143 460 143 q 219 140 308 143 q 39 131 129 138 l 63 225 m 99 464 l 308 464 q 347 465 328 464 q 385 465 365 465 l 724 465 l 676 379 q 588 380 626 379 q 519 381 550 381 q 460 382 488 382 q 408 382 433 382 q 239 379 322 382 q 72 369 156 376 l 99 464 z "},"?":{"ha":603,"x_min":32,"x_max":464,"o":"m 135 256 q 131 294 132 272 q 128 340 131 317 q 123 389 126 364 q 113 436 119 414 l 194 454 q 226 486 211 465 q 252 533 240 507 q 270 589 264 558 q 276 649 276 619 l 276 658 q 276 710 276 676 q 270 775 275 743 q 256 831 265 807 q 231 856 247 856 q 211 848 218 856 q 201 829 204 840 q 197 805 197 818 q 196 781 196 792 l 196 764 q 160 753 185 757 q 108 747 135 749 q 60 744 82 744 q 38 744 39 744 q 32 794 32 771 q 44 863 32 839 q 79 899 57 888 q 133 913 101 911 q 201 915 164 915 q 283 895 238 915 q 368 842 328 875 q 436 769 408 810 q 464 688 464 728 q 441 612 464 653 q 385 533 418 571 q 313 463 351 494 q 243 413 275 431 q 264 352 256 378 q 278 304 272 326 q 288 260 283 282 q 296 214 292 239 l 135 256 m 213 161 q 261 153 242 161 q 292 133 281 144 q 307 106 303 121 q 311 79 311 92 q 282 22 311 47 q 207 -3 253 -3 q 131 22 160 -3 q 103 79 103 47 q 136 138 103 115 q 213 161 169 161 z "},"@":{"ha":1046,"x_min":114,"x_max":1001,"o":"m 715 -92 q 689 -122 708 -111 q 645 -140 669 -133 q 595 -147 621 -146 q 551 -149 569 -149 q 372 -113 453 -149 q 234 -22 292 -78 q 145 103 176 33 q 114 240 114 172 q 144 388 114 322 q 224 504 175 454 q 335 590 274 554 q 456 649 396 626 q 571 683 517 672 q 660 694 625 694 q 822 660 757 692 q 927 581 888 629 q 984 475 967 533 q 1001 360 1001 417 q 980 235 1001 290 q 919 133 958 179 q 824 48 881 86 q 700 -24 768 10 l 657 13 q 632 32 643 24 q 613 50 621 40 q 563 11 589 28 q 518 -6 538 -6 q 446 15 476 -6 q 396 67 415 36 q 367 136 376 99 q 357 208 357 174 q 358 242 357 225 q 367 274 360 258 q 398 322 374 292 q 452 383 422 353 q 513 435 482 413 q 565 457 544 457 q 583 456 582 457 q 624 437 601 450 q 669 406 647 424 q 708 371 692 389 q 728 339 724 353 q 731 326 731 331 q 732 319 732 322 q 728 269 732 296 q 725 228 725 242 l 725 217 q 730 156 725 181 q 743 114 735 131 q 761 88 751 97 q 781 74 771 79 q 832 161 811 104 q 853 319 853 218 l 853 325 q 826 458 851 406 q 763 542 801 511 q 676 584 724 572 q 583 596 629 596 q 353 522 439 596 q 268 296 268 447 q 303 131 268 206 q 390 5 338 57 q 503 -76 442 -47 q 618 -104 565 -104 q 637 -99 626 -104 q 657 -67 647 -94 l 715 -92 m 582 100 q 591 135 589 114 q 593 183 593 157 q 589 243 593 213 q 576 297 585 274 q 556 336 568 321 q 529 351 544 351 q 520 349 526 351 q 508 339 514 346 q 490 254 490 308 q 497 194 490 224 q 514 142 503 165 q 540 106 525 119 q 572 92 556 92 q 578 94 575 92 q 582 99 582 96 l 582 100 z "},"Ø":{"ha":760,"x_min":25,"x_max":765,"o":"m 63 -44 q 81 -10 65 -40 q 122 67 97 19 q 47 214 69 128 q 25 383 25 300 q 50 556 25 479 q 115 692 75 633 q 207 793 156 751 q 311 861 258 835 q 413 900 364 888 q 499 913 463 913 q 527 910 514 913 q 550 907 540 908 q 603 946 574 925 q 656 985 632 967 q 693 963 693 965 q 691 943 693 956 q 685 917 689 931 q 678 890 682 903 q 674 868 675 876 l 669 846 l 663 846 q 710 776 690 815 q 742 695 729 738 q 760 608 754 653 q 765 522 765 564 q 741 352 765 428 q 677 217 717 276 q 587 117 638 158 q 483 48 536 75 q 381 8 431 21 q 293 -4 331 -4 q 272 -3 282 -4 q 253 0 261 -1 q 244 -17 249 -8 q 238 -33 240 -25 l 63 -44 m 340 800 q 299 788 321 799 q 256 743 276 776 q 221 648 236 710 q 201 483 206 586 l 201 458 q 208 356 201 400 q 231 275 215 311 q 341 490 296 401 q 415 636 386 579 q 459 723 444 693 q 478 763 474 753 l 488 763 q 419 794 451 786 q 364 801 388 801 q 346 800 351 801 l 340 800 m 418 104 q 489 116 457 104 q 543 166 521 128 q 577 276 565 204 q 589 465 589 347 l 589 479 q 583 560 588 524 q 571 625 579 597 q 477 443 526 533 q 392 274 428 353 l 326 147 l 318 147 q 418 104 374 104 z "},"×":{"ha":817,"x_min":138,"x_max":649,"o":"m 146 79 l 319 256 q 253 329 276 306 q 219 363 231 353 q 203 376 208 374 q 193 385 199 379 l 158 408 l 140 479 q 138 488 138 485 q 152 494 139 488 q 176 500 165 500 q 256 460 208 500 q 382 343 304 421 l 393 331 l 604 542 l 640 414 l 603 382 q 588 367 603 382 q 553 332 574 353 q 510 288 532 311 q 474 250 488 265 q 521 198 494 229 q 572 135 547 167 q 618 78 597 104 q 649 42 639 51 l 551 -10 q 530 17 544 -1 q 494 59 515 35 q 448 113 474 83 q 394 172 422 142 q 335 109 365 142 q 278 48 304 76 q 233 -1 251 19 q 208 -29 214 -22 l 146 79 z "},"…":{"ha":739,"x_min":38,"x_max":703,"o":"m 146 161 q 194 153 175 161 q 226 133 214 144 q 242 106 238 121 q 246 79 246 92 q 216 22 246 47 q 142 -3 186 -3 q 65 22 93 -3 q 38 79 38 47 q 38 88 38 83 q 42 101 39 93 q 78 145 47 129 q 146 161 110 161 m 375 161 q 424 153 404 161 q 455 133 443 144 q 471 106 467 121 q 475 79 475 92 q 445 22 475 47 q 371 -3 415 -3 q 294 22 322 -3 q 267 79 267 47 q 298 140 267 118 q 375 161 329 161 m 604 161 q 653 153 633 161 q 683 133 672 144 q 699 106 694 121 q 703 79 703 92 q 674 22 703 47 q 600 -3 644 -3 q 524 22 551 -3 q 496 79 496 47 q 527 140 496 118 q 604 161 558 161 z "},"•":{"ha":579,"x_min":135,"x_max":444,"o":"m 296 488 q 368 474 339 488 q 414 441 397 461 q 438 397 431 421 q 444 351 444 372 q 433 301 444 325 q 400 259 421 278 q 351 229 379 240 q 290 218 322 218 q 227 229 256 218 q 178 259 199 240 q 146 301 157 278 q 135 351 135 325 q 148 407 135 382 q 184 450 161 432 q 235 478 207 468 q 296 488 264 488 z "},"_":{"ha":685,"x_min":1,"x_max":681,"o":"m 17 -37 l 153 -37 q 244 -36 189 -37 q 342 -35 299 -35 l 681 -35 l 640 -108 q 499 -108 567 -108 q 367 -107 432 -107 q 180 -110 269 -107 q 1 -119 90 -112 l 17 -37 z "},"\\":{"ha":619,"x_min":86,"x_max":685,"o":"m 511 -1 l 228 563 q 174 673 199 619 q 129 771 149 726 q 98 848 110 815 q 86 896 86 881 q 97 910 86 903 q 133 925 107 917 l 265 828 q 280 773 265 800 q 306 722 294 746 l 383 554 q 444 442 411 503 q 508 319 476 381 q 571 199 540 257 q 626 94 601 140 q 665 18 650 47 q 685 -15 681 -11 l 511 -1 z "},"]":{"ha":369,"x_min":-81,"x_max":300,"o":"m 275 879 q 269 834 271 863 q 265 774 267 806 q 262 714 263 743 q 261 668 261 685 q 262 590 261 651 q 263 444 263 529 q 265 259 264 358 q 268 68 267 160 q 270 -98 269 -24 q 271 -207 271 -172 l 300 -249 l 118 -249 q -31 -243 18 -249 q -81 -218 -81 -237 l 4 -161 q 58 -181 32 -176 q 110 -187 85 -186 l 110 -110 q 109 22 110 -49 q 108 165 108 92 q 108 315 108 239 q 107 465 107 392 q 109 697 107 592 q 117 863 111 801 q 62 856 90 861 q 4 836 33 851 l -81 892 q -31 917 -81 913 q 118 922 18 922 l 192 922 q 244 922 213 922 q 300 921 276 921 l 275 879 z "},"[":{"ha":406,"x_min":63,"x_max":446,"o":"m 63 921 q 197 922 150 922 q 247 922 244 922 q 397 917 347 922 q 446 892 446 913 l 361 836 q 300 857 329 853 q 246 863 271 861 q 255 697 253 801 q 257 464 257 592 q 256 197 257 333 q 254 -75 254 61 q 255 -106 254 -90 q 256 -136 256 -121 l 256 -187 q 306 -181 279 -186 q 361 -161 333 -176 l 446 -218 q 397 -243 446 -237 q 247 -249 347 -249 l 64 -249 l 88 -207 q 91 -98 89 -172 q 95 68 93 -24 q 99 259 97 160 q 101 444 100 358 q 103 590 103 529 q 104 668 104 651 q 103 722 104 689 q 101 787 103 754 q 96 845 99 819 q 89 879 93 871 l 63 921 z "},"^":{"ha":1010,"x_min":81,"x_max":661,"o":"m 463 882 q 515 751 482 824 q 581 609 549 679 q 638 479 614 539 q 661 388 661 419 q 633 364 661 376 l 597 363 l 499 465 l 501 482 q 492 521 500 500 q 474 563 485 542 q 451 602 463 583 q 431 636 439 621 q 415 665 421 653 q 402 687 408 676 q 388 710 396 697 q 371 744 381 724 l 310 636 q 281 586 294 608 q 260 540 268 564 l 251 522 q 242 498 244 506 q 240 483 240 490 q 241 472 240 472 q 243 468 242 471 l 144 363 l 108 364 q 81 389 81 376 q 105 482 81 419 q 162 617 129 544 q 228 761 194 690 q 278 881 261 832 q 279 881 278 881 q 289 882 281 882 q 317 882 297 882 q 371 882 336 882 l 463 882 z "},"{":{"ha":483,"x_min":57,"x_max":447,"o":"m 63 343 l 68 350 q 101 453 92 382 q 110 607 110 524 q 108 688 110 647 q 102 763 106 728 q 95 828 99 799 q 88 879 92 858 q 78 900 85 890 q 64 921 71 910 q 199 922 151 922 q 249 922 246 922 q 398 917 349 922 q 447 892 447 913 l 363 836 q 301 857 331 853 q 247 863 272 861 q 256 725 250 790 q 261 601 261 660 q 238 458 261 522 q 146 338 214 393 q 238 217 215 281 q 261 74 261 153 q 256 -50 261 15 q 247 -186 250 -115 q 301 -181 272 -185 q 363 -160 331 -176 l 447 -217 q 398 -242 447 -237 q 249 -247 349 -247 l 65 -247 l 89 -206 q 97 -155 93 -185 q 103 -89 100 -125 q 108 -12 106 -53 q 110 68 110 28 q 107 158 110 114 q 98 238 104 201 q 82 301 92 275 q 57 340 72 328 l 63 343 z "},"}":{"ha":561,"x_min":40,"x_max":431,"o":"m 413 319 q 385 219 393 288 q 376 69 376 150 q 378 -12 376 28 q 383 -89 381 -53 q 390 -155 386 -125 q 397 -206 393 -185 l 421 -247 l 239 -247 q 90 -242 139 -247 q 40 -217 40 -237 l 125 -160 q 196 -183 161 -179 q 258 -186 231 -186 l 239 -186 q 231 -49 236 -114 q 225 75 225 17 q 247 217 225 153 q 339 338 269 281 q 247 457 269 393 q 225 599 225 521 q 231 724 225 657 q 239 863 236 790 q 183 857 213 861 q 125 836 154 853 l 40 892 q 90 917 40 913 q 239 922 139 922 q 313 922 267 922 q 422 921 360 922 l 396 879 q 390 828 393 858 q 383 761 386 797 q 378 684 381 725 q 376 601 376 643 q 385 453 376 522 q 415 356 393 385 l 431 338 l 413 319 z "},"|":{"ha":329,"x_min":94,"x_max":233,"o":"m 103 -325 q 105 -285 104 -318 q 106 -203 106 -253 q 106 -87 106 -153 q 107 51 107 -21 q 107 201 107 124 q 107 351 107 278 l 107 747 q 106 800 107 768 q 104 864 106 832 q 101 921 103 896 q 94 953 99 946 l 164 990 q 198 943 185 990 q 219 817 211 896 q 231 633 228 738 q 233 415 233 529 q 232 121 233 268 q 231 -172 231 -26 q 231 -261 231 -219 q 232 -336 231 -303 l 103 -325 z "},"~":{"ha":688,"x_min":103,"x_max":571,"o":"m 286 383 q 328 367 306 382 q 369 336 350 353 q 402 306 389 319 q 415 293 415 293 q 417 290 417 290 q 418 289 417 289 q 446 305 432 293 q 472 331 460 317 q 493 360 483 346 q 511 386 503 375 q 538 383 526 386 q 557 378 550 381 q 571 369 565 374 l 567 297 q 526 256 546 274 q 486 226 507 238 q 442 210 465 215 q 390 204 419 204 q 355 216 372 204 q 321 243 338 228 q 301 261 311 251 q 283 278 292 271 q 270 291 275 286 q 267 297 265 296 q 245 281 258 296 q 215 249 232 267 q 178 218 197 232 q 142 204 160 204 q 114 207 119 204 q 103 218 108 210 l 107 290 q 137 319 119 303 q 175 349 154 335 q 221 374 196 364 q 274 383 246 383 l 286 383 z "}," ":{"ha":310,"x_min":0,"x_max":0,"o":""},"¡":{"ha":390,"x_min":92,"x_max":300,"o":"m 257 344 q 269 260 264 308 q 278 158 275 213 q 284 47 282 104 q 286 -64 286 -10 q 282 -180 286 -125 q 269 -276 278 -235 q 249 -343 261 -318 q 221 -368 238 -368 q 186 -355 201 -368 q 157 -322 171 -342 q 131 -281 143 -303 q 108 -243 119 -260 q 124 -185 117 -228 q 131 -96 131 -142 q 129 -19 131 -71 q 126 87 128 32 q 122 188 125 142 q 118 251 119 235 l 257 344 m 201 382 q 124 406 157 382 q 92 465 92 429 q 120 522 92 497 q 196 546 149 546 q 271 522 242 546 q 300 465 300 497 q 296 438 300 453 q 281 411 292 424 q 250 390 269 399 q 201 382 231 382 z "},"¢":{"ha":513,"x_min":33,"x_max":478,"o":"m 217 -90 l 217 -4 q 135 23 169 -1 q 78 84 100 47 q 44 163 56 121 q 33 246 33 206 q 38 289 33 264 q 59 347 42 314 q 113 420 76 379 q 215 513 150 461 l 215 583 l 283 622 q 301 616 297 622 q 304 599 304 610 q 303 581 304 590 q 301 560 301 571 q 311 522 301 540 q 354 498 329 514 q 401 465 379 482 q 439 435 424 449 q 454 419 454 422 q 444 404 454 417 q 420 376 435 392 q 390 345 406 361 q 364 321 375 329 q 315 376 335 360 l 315 104 q 381 130 350 104 q 431 178 411 156 l 478 131 q 452 107 469 119 q 413 81 435 94 q 365 53 390 67 q 314 28 339 40 l 314 -99 l 217 -90 m 156 372 q 151 311 151 340 q 170 203 151 246 q 219 136 189 160 q 219 240 219 196 q 218 316 218 283 q 217 374 218 349 q 217 421 217 399 q 156 372 169 421 z "},"$":{"ha":913,"x_min":114,"x_max":788,"o":"m 379 -46 l 379 -7 q 292 18 339 -1 q 206 60 246 38 q 140 99 167 82 q 114 119 114 117 l 114 132 q 129 251 114 194 q 174 364 144 308 l 278 326 q 272 271 272 306 q 282 206 272 232 q 308 163 292 179 q 344 138 324 146 q 383 125 364 129 l 383 422 l 313 467 q 205 526 250 499 q 158 578 160 554 q 187 646 164 603 q 241 735 210 689 q 308 826 272 782 q 376 899 344 871 q 374 933 376 918 q 371 951 371 947 q 372 953 371 951 q 380 958 374 954 q 400 969 386 961 q 439 990 414 976 q 480 972 467 990 q 497 922 493 954 q 559 902 522 917 q 630 871 596 888 q 688 841 664 854 q 713 824 713 828 l 713 768 q 702 681 713 732 q 668 571 692 629 l 572 606 q 574 618 574 608 q 576 640 575 628 l 576 649 q 555 722 576 688 q 506 779 533 757 q 508 675 508 731 q 508 557 508 619 q 603 492 554 526 q 694 424 653 457 q 761 364 735 392 q 788 318 788 336 q 751 249 781 292 q 680 161 721 207 q 593 74 639 115 q 510 10 547 33 l 510 -57 l 379 -46 m 579 264 q 551 313 568 292 q 510 353 533 333 l 510 142 q 543 172 531 154 q 563 208 556 190 q 574 242 571 226 q 579 264 578 257 m 324 660 q 333 654 326 658 q 352 644 340 651 q 383 625 364 636 l 383 747 l 383 753 l 383 765 q 353 717 368 746 q 324 660 339 688 z "},"£":{"ha":701,"x_min":92,"x_max":694,"o":"m 183 440 l 265 440 q 267 483 265 463 q 272 533 269 503 q 311 596 285 560 q 370 665 338 632 q 437 722 403 699 q 496 746 471 746 q 538 735 519 743 q 574 715 557 726 l 588 706 q 651 656 624 679 q 679 631 679 633 q 669 616 679 628 q 643 590 658 604 q 612 560 628 575 q 583 536 596 544 q 553 570 571 553 q 517 601 536 588 q 478 624 497 615 q 444 633 460 633 q 416 610 426 633 q 406 532 406 588 q 408 483 406 504 q 411 446 411 461 l 411 440 q 439 441 425 440 q 470 442 453 442 q 510 442 488 442 q 564 443 532 443 l 515 368 q 453 369 469 368 q 419 371 436 371 l 414 369 q 367 219 406 294 q 264 85 328 143 q 308 81 283 82 q 356 79 332 81 q 403 78 381 78 q 443 78 426 78 l 457 78 q 520 81 485 78 q 594 106 556 85 l 694 31 q 647 6 694 11 q 500 1 599 1 l 364 1 q 326 2 344 1 q 294 3 308 3 q 250 3 275 3 q 197 2 225 3 q 142 1 169 1 q 92 0 114 0 l 135 96 l 183 89 q 215 136 201 106 q 238 206 229 167 q 253 287 247 244 q 261 368 258 329 q 217 363 238 365 q 160 361 197 361 l 183 440 z "},"¤":{"ha":674,"x_min":54,"x_max":601,"o":"m 81 401 q 118 517 81 460 q 78 569 92 550 q 56 601 64 589 l 154 656 q 182 613 174 622 q 201 590 190 603 q 328 621 254 621 q 451 590 400 621 l 504 653 l 597 603 q 569 562 586 583 q 532 517 551 540 q 562 460 553 489 q 571 401 571 431 q 532 283 571 343 l 592 204 l 601 194 l 501 142 l 447 213 q 328 186 400 186 q 207 213 254 186 q 172 169 188 190 q 151 142 157 149 l 54 194 q 81 229 61 206 q 124 283 100 253 q 81 401 81 346 m 204 401 q 214 344 204 371 q 240 297 224 317 q 280 266 257 278 q 328 254 303 254 q 375 266 353 254 q 413 297 397 278 q 439 344 429 317 q 449 401 449 371 q 439 461 449 433 q 413 509 429 489 q 375 541 397 529 q 328 553 353 553 q 240 509 276 553 q 204 401 204 465 z "},"¥":{"ha":801,"x_min":82,"x_max":731,"o":"m 111 235 l 328 235 l 328 279 q 328 302 328 290 q 329 325 329 314 q 269 322 301 324 q 206 319 236 321 q 149 316 175 318 q 108 313 122 314 l 133 396 l 325 396 q 296 457 311 425 q 265 519 281 489 q 237 574 250 549 q 215 614 224 599 q 183 666 201 636 q 145 723 164 696 q 109 771 126 750 q 82 796 92 792 l 167 867 q 183 868 179 867 q 197 869 186 869 q 255 845 229 869 q 307 777 281 821 q 364 674 333 733 q 438 543 394 614 q 473 613 451 569 q 515 703 494 657 q 549 790 535 749 q 564 857 564 832 q 561 863 564 863 q 588 863 568 863 q 668 869 607 864 q 707 844 707 860 q 690 787 707 825 q 646 692 674 749 q 581 562 618 636 q 501 396 543 488 l 669 396 l 731 404 l 681 325 q 623 326 646 325 q 581 328 600 328 l 540 328 q 531 328 533 328 q 525 327 528 328 q 518 326 522 326 q 504 326 514 326 l 504 265 q 503 257 503 261 q 503 250 503 253 l 503 235 l 706 235 l 658 164 q 590 165 615 164 q 535 165 564 165 l 503 165 q 503 69 503 115 q 504 3 503 24 l 314 3 q 316 54 315 29 q 319 104 317 79 l 324 161 l 297 161 q 237 160 268 161 q 177 158 206 160 q 124 156 149 157 q 86 153 100 154 l 111 235 z "},"¦":{"ha":326,"x_min":100,"x_max":238,"o":"m 104 -324 q 108 -272 107 -306 q 110 -201 110 -239 q 111 -125 111 -162 q 111 -60 111 -87 l 111 219 l 235 219 q 238 208 238 213 q 238 197 238 204 q 235 73 238 161 q 232 -143 232 -15 l 232 -197 q 233 -229 232 -212 q 233 -262 233 -246 l 233 -335 l 104 -324 m 106 428 q 108 474 107 444 q 110 537 110 503 q 111 608 111 571 q 111 676 111 644 l 111 749 q 110 802 111 769 q 108 867 110 835 q 105 924 107 899 q 100 954 103 949 l 174 996 q 208 953 196 989 q 226 854 221 917 q 233 703 232 792 q 235 506 235 615 l 235 428 l 106 428 z "}}}
